<svg id="mol66" xmlns="http://www.w3.org/2000/svg" version="1.1" width="150px" height="120px" viewBox="74 40 150 120">
  <style> text {font-family: sans-serif;} #mol66 { pointer-events:none; } #mol66 .event  { pointer-events:all; } line { stroke-linecap:round; } polygon { stroke-linejoin:round; } </style>
  <text x="82.66" y="103.51" stroke="none" font-size="14" fill="rgb(166,41,41)">Br</text>
  <text x="109.75" y="144.17" stroke="none" font-size="14" fill="rgb(0,0,0)">H</text>
  <text x="114.61" y="127.33" stroke="none" font-size="14" fill="rgb(0,0,0)">H</text>
  <text x="135.55" y="112.91" stroke="none" font-size="14" fill="rgb(0,0,0)">H</text>
  <text x="156.05" y="150.32" stroke="none" font-size="14" fill="rgb(0,0,0)">H</text>
  <text x="160.92" y="133.48" stroke="none" font-size="14" fill="rgb(0,0,0)">H</text>
  <text x="181.85" y="119.06" stroke="none" font-size="14" fill="rgb(0,0,0)">H</text>
  <text x="199.22" y="133.01" stroke="none" font-size="14" fill="rgb(0,0,0)">H</text>
  <text x="205.28" y="86.86" stroke="none" font-size="14" fill="rgb(0,0,0)">H</text>
  <text x="189.66" y="96.42" stroke="none" font-size="14" fill="rgb(0,0,0)">H</text>
  <text x="164.3" y="75.85" stroke="none" font-size="14" fill="rgb(0,0,0)">H</text>
  <text x="169.16" y="59.01" stroke="none" font-size="14" fill="rgb(0,0,0)">H</text>
  <text x="143.36" y="90.27" stroke="none" font-size="14" fill="rgb(0,0,0)">H</text>
  <text x="125.99" y="76.32" stroke="none" font-size="14" fill="rgb(0,0,0)">H</text>
  <line x1="97.66" y1="105.1" x2="113.61" y2="117.56" stroke="rgb(0,0,0)" stroke-width="1.44" />
  <line x1="125.72" y1="117.47" x2="134.55" y2="113.44" stroke="rgb(0,0,0)" stroke-width="1.44" />
  <line x1="146.66" y1="113.35" x2="159.92" y2="123.71" stroke="rgb(0,0,0)" stroke-width="1.44" />
  <line x1="172.02" y1="123.62" x2="180.85" y2="119.59" stroke="rgb(0,0,0)" stroke-width="1.44" />
  <line x1="190.06" y1="107.4" x2="191.56" y2="98.76" stroke="rgb(0,0,0)" stroke-width="1.44" />
  <line x1="188.66" y1="86.65" x2="175.4" y2="76.29" stroke="rgb(0,0,0)" stroke-width="1.44" />
  <line x1="163.3" y1="76.38" x2="154.47" y2="80.41" stroke="rgb(0,0,0)" stroke-width="1.44" />
  <line x1="143.76" y1="101.24" x2="145.26" y2="92.6" stroke="rgb(0,0,0)" stroke-width="1.44" />
  <line x1="116.51" y1="129.66" x2="116.02" y2="132.5" stroke="rgb(0,0,0)" stroke-width="1.44" />
  <line x1="162.81" y1="135.81" x2="162.32" y2="138.65" stroke="rgb(0,0,0)" stroke-width="1.44" />
  <line x1="192.96" y1="119.5" x2="198.22" y2="123.61" stroke="rgb(0,0,0)" stroke-width="1.44" />
  <line x1="200.77" y1="86.57" x2="204.28" y2="84.96" stroke="rgb(0,0,0)" stroke-width="1.44" />
  <line x1="172.51" y1="64.19" x2="173" y2="61.35" stroke="rgb(0,0,0)" stroke-width="1.44" />
  <line x1="142.36" y1="80.5" x2="137.1" y2="76.39" stroke="rgb(0,0,0)" stroke-width="1.44" />
  <line id="mol66:Bond:0" class="event" x1="89.66" y1="98.85" x2="118.01" y2="120.99" stroke-width="8" opacity="0" />
  <line id="mol66:Bond:1" class="event" x1="118.01" y1="120.99" x2="142.26" y2="109.91" stroke-width="8" opacity="0" />
  <line id="mol66:Bond:2" class="event" x1="142.26" y1="109.91" x2="164.32" y2="127.15" stroke-width="8" opacity="0" />
  <line id="mol66:Bond:3" class="event" x1="164.32" y1="127.15" x2="188.56" y2="116.06" stroke-width="8" opacity="0" />
  <line id="mol66:Bond:4" class="event" x1="188.56" y1="116.06" x2="193.06" y2="90.09" stroke-width="8" opacity="0" />
  <line id="mol66:Bond:5" class="event" x1="193.06" y1="90.09" x2="171" y2="72.85" stroke-width="8" opacity="0" />
  <line id="mol66:Bond:6" class="event" x1="171" y1="72.85" x2="146.76" y2="83.94" stroke-width="8" opacity="0" />
  <line id="mol66:Bond:7" class="event" x1="142.26" y1="109.91" x2="146.76" y2="83.94" stroke-width="8" opacity="0" />
  <line id="mol66:Bond:8" class="event" x1="118.01" y1="120.99" x2="114.8" y2="139.5" stroke-width="8" opacity="0" />
  <line id="mol66:Bond:9" class="event" x1="118.01" y1="120.99" x2="119.67" y2="122.66" stroke-width="8" opacity="0" />
  <line id="mol66:Bond:10" class="event" x1="142.26" y1="109.91" x2="140.6" y2="108.24" stroke-width="8" opacity="0" />
  <line id="mol66:Bond:11" class="event" x1="164.32" y1="127.15" x2="161.11" y2="145.65" stroke-width="8" opacity="0" />
  <line id="mol66:Bond:12" class="event" x1="164.32" y1="127.15" x2="165.97" y2="128.81" stroke-width="8" opacity="0" />
  <line id="mol66:Bond:13" class="event" x1="188.56" y1="116.06" x2="186.91" y2="114.4" stroke-width="8" opacity="0" />
  <line id="mol66:Bond:14" class="event" x1="188.56" y1="116.06" x2="204.28" y2="128.34" stroke-width="8" opacity="0" />
  <line id="mol66:Bond:15" class="event" x1="193.06" y1="90.09" x2="210.34" y2="82.19" stroke-width="8" opacity="0" />
  <line id="mol66:Bond:16" class="event" x1="193.06" y1="90.09" x2="194.72" y2="91.76" stroke-width="8" opacity="0" />
  <line id="mol66:Bond:17" class="event" x1="171" y1="72.85" x2="169.35" y2="71.19" stroke-width="8" opacity="0" />
  <line id="mol66:Bond:18" class="event" x1="171" y1="72.85" x2="174.21" y2="54.35" stroke-width="8" opacity="0" />
  <line id="mol66:Bond:19" class="event" x1="146.76" y1="83.94" x2="148.41" y2="85.6" stroke-width="8" opacity="0" />
  <line id="mol66:Bond:20" class="event" x1="146.76" y1="83.94" x2="131.04" y2="71.66" stroke-width="8" opacity="0" />
  <circle id="mol66:Atom:0" class="event" cx="89.66" cy="98.85" r="8" opacity="0" />
  <circle id="mol66:Atom:1" class="event" cx="118.01" cy="120.99" r="8" opacity="0" />
  <circle id="mol66:Atom:2" class="event" cx="142.26" cy="109.91" r="8" opacity="0" />
  <circle id="mol66:Atom:3" class="event" cx="164.32" cy="127.15" r="8" opacity="0" />
  <circle id="mol66:Atom:4" class="event" cx="188.56" cy="116.06" r="8" opacity="0" />
  <circle id="mol66:Atom:5" class="event" cx="193.06" cy="90.09" r="8" opacity="0" />
  <circle id="mol66:Atom:6" class="event" cx="171" cy="72.85" r="8" opacity="0" />
  <circle id="mol66:Atom:7" class="event" cx="146.76" cy="83.94" r="8" opacity="0" />
  <circle id="mol66:Atom:8" class="event" cx="114.8" cy="139.5" r="8" opacity="0" />
  <circle id="mol66:Atom:9" class="event" cx="119.67" cy="122.66" r="8" opacity="0" />
  <circle id="mol66:Atom:10" class="event" cx="140.6" cy="108.24" r="8" opacity="0" />
  <circle id="mol66:Atom:11" class="event" cx="161.11" cy="145.65" r="8" opacity="0" />
  <circle id="mol66:Atom:12" class="event" cx="165.97" cy="128.81" r="8" opacity="0" />
  <circle id="mol66:Atom:13" class="event" cx="186.91" cy="114.4" r="8" opacity="0" />
  <circle id="mol66:Atom:14" class="event" cx="204.28" cy="128.34" r="8" opacity="0" />
  <circle id="mol66:Atom:15" class="event" cx="210.34" cy="82.19" r="8" opacity="0" />
  <circle id="mol66:Atom:16" class="event" cx="194.72" cy="91.76" r="8" opacity="0" />
  <circle id="mol66:Atom:17" class="event" cx="169.35" cy="71.19" r="8" opacity="0" />
  <circle id="mol66:Atom:18" class="event" cx="174.21" cy="54.35" r="8" opacity="0" />
  <circle id="mol66:Atom:19" class="event" cx="148.41" cy="85.6" r="8" opacity="0" />
  <circle id="mol66:Atom:20" class="event" cx="131.04" cy="71.66" r="8" opacity="0" />
</svg>