<svg id="mol67" xmlns="http://www.w3.org/2000/svg" version="1.1" width="103px" height="119px" viewBox="98 40 103 119">
  <style> text {font-family: sans-serif;} #mol67 { pointer-events:none; } #mol67 .event  { pointer-events:all; } line { stroke-linecap:round; } polygon { stroke-linejoin:round; } </style>
  <text x="113" y="111.57" stroke="none" font-size="14" fill="rgb(255,13,13)">O</text>
  <text x="155.38" y="125.26" stroke="none" font-size="14" fill="rgb(0,0,0)">H</text>
  <text x="171.39" y="140.44" stroke="none" font-size="14" fill="rgb(0,0,0)">H</text>
  <text x="133.27" y="130.16" stroke="none" font-size="14" fill="rgb(0,0,0)">H</text>
  <text x="124.37" y="150.01" stroke="none" font-size="14" fill="rgb(0,0,0)">H</text>
  <text x="106.65" y="71.64" stroke="none" font-size="14" fill="rgb(0,0,0)">H</text>
  <text x="150.04" y="59.32" stroke="none" font-size="14" fill="rgb(0,0,0)">H</text>
  <text x="183.24" y="92.71" stroke="none" font-size="14" fill="rgb(0,0,0)">H</text>
  <text x="173.44" y="100.56" stroke="none" font-size="14" fill="rgb(0,0,0)">H</text>
  <line x1="126.24" y1="81.95" x2="150.47" y2="75.03" stroke="rgb(0,0,0)" stroke-width="1.44" />
  <line x1="129.56" y1="84.75" x2="149.09" y2="79.17" stroke="rgb(0,0,0)" stroke-width="1.44" />
  <line x1="154.38" y1="122.55" x2="144.38" y2="124.61" stroke="rgb(0,0,0)" stroke-width="1.44" />
  <line x1="132.27" y1="121.87" x2="124.89" y2="113.88" stroke="rgb(0,0,0)" stroke-width="1.44" />
  <line x1="120.63" y1="99.9" x2="126.24" y2="81.95" stroke="rgb(0,0,0)" stroke-width="1.44" />
  <line x1="150.47" y1="75.03" x2="172.15" y2="94.37" stroke="rgb(0,0,0)" stroke-width="1.44" />
  <line x1="165.23" y1="113.59" x2="172.15" y2="94.37" stroke="rgb(0,0,0)" stroke-width="1.44" />
  <line x1="166.48" y1="125.02" x2="170.39" y2="129.24" stroke="rgb(0,0,0)" stroke-width="1.44" />
  <line x1="134.08" y1="132.5" x2="131.96" y2="138.35" stroke="rgb(0,0,0)" stroke-width="1.44" />
  <line x1="126.24" y1="81.95" x2="117.76" y2="73.21" stroke="rgb(0,0,0)" stroke-width="1.44" />
  <line x1="150.47" y1="75.03" x2="153.51" y2="61.65" stroke="rgb(0,0,0)" stroke-width="1.44" />
  <line x1="172.15" y1="94.37" x2="172.44" y2="94.26" stroke="rgb(0,0,0)" stroke-width="1.44" />
  <line x1="172.15" y1="94.37" x2="172.44" y2="94.44" stroke="rgb(0,0,0)" stroke-width="1.44" />
  <line id="mol67:Bond:3" class="event" x1="126.24" y1="81.95" x2="150.47" y2="75.03" stroke-width="8" opacity="0" />
  <line id="mol67:Bond:0" class="event" x1="162.62" y1="120.84" x2="136.34" y2="126.28" stroke-width="8" opacity="0" />
  <line id="mol67:Bond:1" class="event" x1="136.34" y1="126.28" x2="118.45" y2="106.9" stroke-width="8" opacity="0" />
  <line id="mol67:Bond:2" class="event" x1="118.45" y1="106.9" x2="126.24" y2="81.95" stroke-width="8" opacity="0" />
  <line id="mol67:Bond:4" class="event" x1="150.47" y1="75.03" x2="172.15" y2="94.37" stroke-width="8" opacity="0" />
  <line id="mol67:Bond:5" class="event" x1="162.62" y1="120.84" x2="172.15" y2="94.37" stroke-width="8" opacity="0" />
  <line id="mol67:Bond:6" class="event" x1="162.62" y1="120.84" x2="160.43" y2="120.59" stroke-width="8" opacity="0" />
  <line id="mol67:Bond:7" class="event" x1="162.62" y1="120.84" x2="176.45" y2="135.77" stroke-width="8" opacity="0" />
  <line id="mol67:Bond:8" class="event" x1="136.34" y1="126.28" x2="138.32" y2="125.5" stroke-width="8" opacity="0" />
  <line id="mol67:Bond:9" class="event" x1="136.34" y1="126.28" x2="129.43" y2="145.35" stroke-width="8" opacity="0" />
  <line id="mol67:Bond:10" class="event" x1="126.24" y1="81.95" x2="111.71" y2="66.97" stroke-width="8" opacity="0" />
  <line id="mol67:Bond:11" class="event" x1="150.47" y1="75.03" x2="155.1" y2="54.65" stroke-width="8" opacity="0" />
  <line id="mol67:Bond:12" class="event" x1="172.15" y1="94.37" x2="188.29" y2="88.04" stroke-width="8" opacity="0" />
  <line id="mol67:Bond:13" class="event" x1="172.15" y1="94.37" x2="178.5" y2="95.9" stroke-width="8" opacity="0" />
  <circle id="mol67:Atom:0" class="event" cx="162.62" cy="120.84" r="8" opacity="0" />
  <circle id="mol67:Atom:1" class="event" cx="136.34" cy="126.28" r="8" opacity="0" />
  <circle id="mol67:Atom:2" class="event" cx="118.45" cy="106.9" r="8" opacity="0" />
  <circle id="mol67:Atom:3" class="event" cx="126.24" cy="81.95" r="8" opacity="0" />
  <circle id="mol67:Atom:4" class="event" cx="150.47" cy="75.03" r="8" opacity="0" />
  <circle id="mol67:Atom:5" class="event" cx="172.15" cy="94.37" r="8" opacity="0" />
  <circle id="mol67:Atom:6" class="event" cx="160.43" cy="120.59" r="8" opacity="0" />
  <circle id="mol67:Atom:7" class="event" cx="176.45" cy="135.77" r="8" opacity="0" />
  <circle id="mol67:Atom:8" class="event" cx="138.32" cy="125.5" r="8" opacity="0" />
  <circle id="mol67:Atom:9" class="event" cx="129.43" cy="145.35" r="8" opacity="0" />
  <circle id="mol67:Atom:10" class="event" cx="111.71" cy="66.97" r="8" opacity="0" />
  <circle id="mol67:Atom:11" class="event" cx="155.1" cy="54.65" r="8" opacity="0" />
  <circle id="mol67:Atom:12" class="event" cx="188.29" cy="88.04" r="8" opacity="0" />
  <circle id="mol67:Atom:13" class="event" cx="178.5" cy="95.9" r="8" opacity="0" />
</svg>