<svg id="mol54" xmlns="http://www.w3.org/2000/svg" version="1.1" width="119px" height="192px" viewBox="91 4 119 192">
  <style> text {font-family: sans-serif;} #mol54 { pointer-events:none; } #mol54 .event  { pointer-events:all; } line { stroke-linecap:round; } polygon { stroke-linejoin:round; } </style>
  <text x="103.99" y="195.75" stroke="none" font-size="12" fill="rgb(160,0,0)">unknown chirality</text>
  <text x="134.16" y="49.06" stroke="none" font-size="14" fill="rgb(255,13,13)">O</text>
  <text x="113.38" y="85.06" stroke="none" font-size="14" fill="rgb(255,13,13)">O</text>
  <text x="155.34" y="85.06" stroke="none" font-size="14" fill="rgb(48,80,248)">N</text>
  <text x="165.45" y="85.06" stroke="none" font-size="14" fill="rgb(48,80,248)">H</text>
  <text x="134.16" y="145.06" stroke="none" font-size="14" fill="rgb(255,13,13)">O</text>
  <text x="145.05" y="145.06" stroke="none" font-size="14" fill="rgb(255,13,13)">H</text>
  <text x="113.38" y="109.06" stroke="none" font-size="14" fill="rgb(255,13,13)">O</text>
  <line x1="139.61" y1="66.31" x2="124.37" y2="75.11" stroke="rgb(0,0,0)" stroke-width="1.44" />
  <line x1="141.41" y1="69.43" x2="126.17" y2="78.23" stroke="rgb(0,0,0)" stroke-width="1.44" />
  <line x1="141.41" y1="115.35" x2="126.17" y2="106.56" stroke="rgb(0,0,0)" stroke-width="1.44" />
  <line x1="139.61" y1="118.47" x2="124.37" y2="109.67" stroke="rgb(0,0,0)" stroke-width="1.44" />
  <line x1="181.18" y1="140.39" x2="201.96" y2="152.39" stroke="rgb(0,0,0)" stroke-width="1.44" />
  <line x1="181.59" y1="144.79" x2="184.86" y2="146.68" stroke="rgb(0,0,0)" stroke-width="1.44" />
  <line x1="188.13" y1="148.57" x2="189.77" y2="149.51" stroke="rgb(0,0,0)" stroke-width="1.44" />
  <line x1="189.77" y1="149.51" x2="191.4" y2="150.45" stroke="rgb(0,0,0)" stroke-width="1.44" />
  <line x1="194.67" y1="152.34" x2="197.94" y2="154.23" stroke="rgb(0,0,0)" stroke-width="1.44" />
  <line x1="201.96" y1="152.39" x2="201.96" y2="176.39" stroke="rgb(0,0,0)" stroke-width="1.44" />
  <line x1="198.36" y1="154.95" x2="198.36" y2="158.73" stroke="rgb(0,0,0)" stroke-width="1.44" />
  <line x1="198.36" y1="162.5" x2="198.36" y2="164.39" stroke="rgb(0,0,0)" stroke-width="1.44" />
  <line x1="198.36" y1="164.39" x2="198.36" y2="166.28" stroke="rgb(0,0,0)" stroke-width="1.44" />
  <line x1="198.36" y1="170.06" x2="198.36" y2="173.83" stroke="rgb(0,0,0)" stroke-width="1.44" />
  <line x1="201.96" y1="176.39" x2="181.18" y2="188.39" stroke="rgb(0,0,0)" stroke-width="1.44" />
  <line x1="197.94" y1="174.55" x2="194.67" y2="176.44" stroke="rgb(0,0,0)" stroke-width="1.44" />
  <line x1="191.4" y1="178.33" x2="189.77" y2="179.27" stroke="rgb(0,0,0)" stroke-width="1.44" />
  <line x1="189.77" y1="179.27" x2="188.13" y2="180.22" stroke="rgb(0,0,0)" stroke-width="1.44" />
  <line x1="184.86" y1="182.11" x2="181.59" y2="183.99" stroke="rgb(0,0,0)" stroke-width="1.44" />
  <line x1="181.18" y1="188.39" x2="160.39" y2="176.39" stroke="rgb(0,0,0)" stroke-width="1.44" />
  <line x1="180.76" y1="183.99" x2="177.49" y2="182.11" stroke="rgb(0,0,0)" stroke-width="1.44" />
  <line x1="174.22" y1="180.22" x2="172.58" y2="179.27" stroke="rgb(0,0,0)" stroke-width="1.44" />
  <line x1="172.58" y1="179.27" x2="170.95" y2="178.33" stroke="rgb(0,0,0)" stroke-width="1.44" />
  <line x1="167.68" y1="176.44" x2="164.41" y2="174.55" stroke="rgb(0,0,0)" stroke-width="1.44" />
  <line x1="160.39" y1="176.39" x2="160.39" y2="152.39" stroke="rgb(0,0,0)" stroke-width="1.44" />
  <line x1="163.99" y1="173.83" x2="163.99" y2="170.06" stroke="rgb(0,0,0)" stroke-width="1.44" />
  <line x1="163.99" y1="166.28" x2="163.99" y2="164.39" stroke="rgb(0,0,0)" stroke-width="1.44" />
  <line x1="163.99" y1="164.39" x2="163.99" y2="162.5" stroke="rgb(0,0,0)" stroke-width="1.44" />
  <line x1="163.99" y1="158.73" x2="163.99" y2="154.95" stroke="rgb(0,0,0)" stroke-width="1.44" />
  <line x1="181.18" y1="140.39" x2="160.39" y2="152.39" stroke="rgb(0,0,0)" stroke-width="1.44" />
  <line x1="180.76" y1="144.79" x2="177.49" y2="146.68" stroke="rgb(0,0,0)" stroke-width="1.44" />
  <line x1="174.22" y1="148.57" x2="172.58" y2="149.51" stroke="rgb(0,0,0)" stroke-width="1.44" />
  <line x1="172.58" y1="149.51" x2="170.95" y2="150.45" stroke="rgb(0,0,0)" stroke-width="1.44" />
  <line x1="167.68" y1="152.34" x2="164.41" y2="154.23" stroke="rgb(0,0,0)" stroke-width="1.44" />
  <line x1="98.04" y1="20.39" x2="118.82" y2="32.39" stroke="rgb(0,0,0)" stroke-width="1.44" />
  <line x1="118.82" y1="32.39" x2="106.82" y2="53.18" stroke="rgb(0,0,0)" stroke-width="1.44" />
  <line x1="118.82" y1="32.39" x2="130.82" y2="11.61" stroke="rgb(0,0,0)" stroke-width="1.44" />
  <line x1="118.82" y1="32.39" x2="133.16" y2="40.67" stroke="rgb(0,0,0)" stroke-width="1.44" />
  <line x1="139.61" y1="51.39" x2="139.61" y2="68.39" stroke="rgb(0,0,0)" stroke-width="1.44" />
  <line x1="139.61" y1="68.39" x2="154.34" y2="76.9" stroke="rgb(0,0,0)" stroke-width="1.44" />
  <line x1="160.39" y1="87.39" x2="160.39" y2="95.89" stroke="rgb(0,0,0)" stroke-width="1.44" />
  <line x1="160.39" y1="95.89" x2="160.39" y2="104.39" stroke="rgb(192,0,255)" stroke-width="1.44" />
  <line x1="160.39" y1="104.39" x2="150" y2="110.39" stroke="rgb(192,0,255)" stroke-width="1.44" />
  <line x1="150" y1="110.39" x2="139.61" y2="116.39" stroke="rgb(0,0,0)" stroke-width="1.44" />
  <line x1="139.61" y1="116.39" x2="139.61" y2="133.39" stroke="rgb(0,0,0)" stroke-width="1.44" />
  <line x1="160.39" y1="104.39" x2="170.78" y2="110.39" stroke="rgb(192,0,255)" stroke-width="1.44" />
  <line x1="170.78" y1="110.39" x2="181.18" y2="116.39" stroke="rgb(0,0,0)" stroke-width="1.44" />
  <line x1="181.18" y1="116.39" x2="181.18" y2="140.39" stroke="rgb(0,0,0)" stroke-width="1.44" />
  <line id="mol54:Bond:5" class="event" x1="139.61" y1="68.39" x2="118.82" y2="80.39" stroke-width="8" opacity="0" />
  <line id="mol54:Bond:10" class="event" x1="139.61" y1="116.39" x2="118.82" y2="104.39" stroke-width="8" opacity="0" />
  <line id="mol54:Bond:13" class="event" x1="181.18" y1="140.39" x2="201.96" y2="152.39" stroke-width="8" opacity="0" />
  <line id="mol54:Bond:14" class="event" x1="201.96" y1="152.39" x2="201.96" y2="176.39" stroke-width="8" opacity="0" />
  <line id="mol54:Bond:15" class="event" x1="201.96" y1="176.39" x2="181.18" y2="188.39" stroke-width="8" opacity="0" />
  <line id="mol54:Bond:16" class="event" x1="181.18" y1="188.39" x2="160.39" y2="176.39" stroke-width="8" opacity="0" />
  <line id="mol54:Bond:17" class="event" x1="160.39" y1="176.39" x2="160.39" y2="152.39" stroke-width="8" opacity="0" />
  <line id="mol54:Bond:18" class="event" x1="181.18" y1="140.39" x2="160.39" y2="152.39" stroke-width="8" opacity="0" />
  <line id="mol54:Bond:0" class="event" x1="98.04" y1="20.39" x2="118.82" y2="32.39" stroke-width="8" opacity="0" />
  <line id="mol54:Bond:1" class="event" x1="118.82" y1="32.39" x2="106.82" y2="53.18" stroke-width="8" opacity="0" />
  <line id="mol54:Bond:2" class="event" x1="118.82" y1="32.39" x2="130.82" y2="11.61" stroke-width="8" opacity="0" />
  <line id="mol54:Bond:3" class="event" x1="118.82" y1="32.39" x2="139.61" y2="44.39" stroke-width="8" opacity="0" />
  <line id="mol54:Bond:4" class="event" x1="139.61" y1="44.39" x2="139.61" y2="68.39" stroke-width="8" opacity="0" />
  <line id="mol54:Bond:6" class="event" x1="139.61" y1="68.39" x2="160.39" y2="80.39" stroke-width="8" opacity="0" />
  <line id="mol54:Bond:7" class="event" x1="160.39" y1="80.39" x2="160.39" y2="104.39" stroke-width="8" opacity="0" />
  <line id="mol54:Bond:8" class="event" x1="160.39" y1="104.39" x2="139.61" y2="116.39" stroke-width="8" opacity="0" />
  <line id="mol54:Bond:9" class="event" x1="139.61" y1="116.39" x2="139.61" y2="140.39" stroke-width="8" opacity="0" />
  <line id="mol54:Bond:11" class="event" x1="160.39" y1="104.39" x2="181.18" y2="116.39" stroke-width="8" opacity="0" />
  <line id="mol54:Bond:12" class="event" x1="181.18" y1="116.39" x2="181.18" y2="140.39" stroke-width="8" opacity="0" />
  <circle id="mol54:Atom:0" class="event" cx="98.04" cy="20.39" r="8" opacity="0" />
  <circle id="mol54:Atom:1" class="event" cx="118.82" cy="32.39" r="8" opacity="0" />
  <circle id="mol54:Atom:2" class="event" cx="106.82" cy="53.18" r="8" opacity="0" />
  <circle id="mol54:Atom:3" class="event" cx="130.82" cy="11.61" r="8" opacity="0" />
  <circle id="mol54:Atom:4" class="event" cx="139.61" cy="44.39" r="8" opacity="0" />
  <circle id="mol54:Atom:5" class="event" cx="139.61" cy="68.39" r="8" opacity="0" />
  <circle id="mol54:Atom:6" class="event" cx="118.82" cy="80.39" r="8" opacity="0" />
  <circle id="mol54:Atom:7" class="event" cx="160.39" cy="80.39" r="8" opacity="0" />
  <circle id="mol54:Atom:8" class="event" cx="160.39" cy="104.39" r="8" opacity="0" />
  <circle id="mol54:Atom:9" class="event" cx="139.61" cy="116.39" r="8" opacity="0" />
  <circle id="mol54:Atom:10" class="event" cx="139.61" cy="140.39" r="8" opacity="0" />
  <circle id="mol54:Atom:11" class="event" cx="118.82" cy="104.39" r="8" opacity="0" />
  <circle id="mol54:Atom:12" class="event" cx="181.18" cy="116.39" r="8" opacity="0" />
  <circle id="mol54:Atom:13" class="event" cx="181.18" cy="140.39" r="8" opacity="0" />
  <circle id="mol54:Atom:14" class="event" cx="201.96" cy="152.39" r="8" opacity="0" />
  <circle id="mol54:Atom:15" class="event" cx="201.96" cy="176.39" r="8" opacity="0" />
  <circle id="mol54:Atom:16" class="event" cx="181.18" cy="188.39" r="8" opacity="0" />
  <circle id="mol54:Atom:17" class="event" cx="160.39" cy="176.39" r="8" opacity="0" />
  <circle id="mol54:Atom:18" class="event" cx="160.39" cy="152.39" r="8" opacity="0" />
</svg>