<svg id="mol58" xmlns="http://www.w3.org/2000/svg" version="1.1" width="68px" height="131px" viewBox="117 38 68 131">
  <style> text {font-family: sans-serif;} #mol58 { pointer-events:none; } #mol58 .event  { pointer-events:all; } line { stroke-linecap:round; } polygon { stroke-linejoin:round; } </style>
  <text x="125.53" y="136.31" stroke="none" font-size="14" fill="rgb(48,80,248)">N</text>
  <text x="156.95" y="159.13" stroke="none" font-size="14" fill="rgb(48,80,248)">N</text>
  <text x="167.05" y="159.13" stroke="none" font-size="14" fill="rgb(48,80,248)">H</text>
  <line x1="129.22" y1="57.53" x2="129.22" y2="81.53" stroke="rgb(0,0,0)" stroke-width="1.44" />
  <line x1="132.82" y1="60.09" x2="132.82" y2="78.97" stroke="rgb(0,0,0)" stroke-width="1.44" />
  <line x1="150" y1="93.53" x2="170.78" y2="81.53" stroke="rgb(0,0,0)" stroke-width="1.44" />
  <line x1="150.42" y1="89.14" x2="166.77" y2="79.7" stroke="rgb(0,0,0)" stroke-width="1.44" />
  <line x1="170.78" y1="57.53" x2="150" y2="45.53" stroke="rgb(0,0,0)" stroke-width="1.44" />
  <line x1="166.77" y1="59.37" x2="150.42" y2="49.93" stroke="rgb(0,0,0)" stroke-width="1.44" />
  <line x1="138" y1="154.47" x2="132.86" y2="138.64" stroke="rgb(0,0,0)" stroke-width="1.44" />
  <line x1="140.49" y1="150.49" x2="136.64" y2="138.62" stroke="rgb(0,0,0)" stroke-width="1.44" />
  <line x1="169.42" y1="131.64" x2="150" y2="117.53" stroke="rgb(0,0,0)" stroke-width="1.44" />
  <line x1="164.86" y1="132.78" x2="150.32" y2="122.22" stroke="rgb(0,0,0)" stroke-width="1.44" />
  <line x1="129.22" y1="81.53" x2="150" y2="93.53" stroke="rgb(0,0,0)" stroke-width="1.44" />
  <line x1="170.78" y1="81.53" x2="170.78" y2="57.53" stroke="rgb(0,0,0)" stroke-width="1.44" />
  <line x1="150" y1="45.53" x2="129.22" y2="57.53" stroke="rgb(0,0,0)" stroke-width="1.44" />
  <line x1="150" y1="93.53" x2="150" y2="117.53" stroke="rgb(0,0,0)" stroke-width="1.44" />
  <line x1="150" y1="117.53" x2="136.64" y2="127.24" stroke="rgb(0,0,0)" stroke-width="1.44" />
  <line x1="138" y1="154.47" x2="155.95" y2="154.47" stroke="rgb(0,0,0)" stroke-width="1.44" />
  <line x1="164.27" y1="147.47" x2="169.42" y2="131.64" stroke="rgb(0,0,0)" stroke-width="1.44" />
  <line id="mol58:Bond:0" class="event" x1="129.22" y1="57.53" x2="129.22" y2="81.53" stroke-width="8" opacity="0" />
  <line id="mol58:Bond:2" class="event" x1="150" y1="93.53" x2="170.78" y2="81.53" stroke-width="8" opacity="0" />
  <line id="mol58:Bond:4" class="event" x1="170.78" y1="57.53" x2="150" y2="45.53" stroke-width="8" opacity="0" />
  <line id="mol58:Bond:8" class="event" x1="130.58" y1="131.64" x2="138" y2="154.47" stroke-width="8" opacity="0" />
  <line id="mol58:Bond:11" class="event" x1="169.42" y1="131.64" x2="150" y2="117.53" stroke-width="8" opacity="0" />
  <line id="mol58:Bond:1" class="event" x1="129.22" y1="81.53" x2="150" y2="93.53" stroke-width="8" opacity="0" />
  <line id="mol58:Bond:3" class="event" x1="170.78" y1="81.53" x2="170.78" y2="57.53" stroke-width="8" opacity="0" />
  <line id="mol58:Bond:5" class="event" x1="150" y1="45.53" x2="129.22" y2="57.53" stroke-width="8" opacity="0" />
  <line id="mol58:Bond:6" class="event" x1="150" y1="93.53" x2="150" y2="117.53" stroke-width="8" opacity="0" />
  <line id="mol58:Bond:7" class="event" x1="150" y1="117.53" x2="130.58" y2="131.64" stroke-width="8" opacity="0" />
  <line id="mol58:Bond:9" class="event" x1="138" y1="154.47" x2="162" y2="154.47" stroke-width="8" opacity="0" />
  <line id="mol58:Bond:10" class="event" x1="162" y1="154.47" x2="169.42" y2="131.64" stroke-width="8" opacity="0" />
  <circle id="mol58:Atom:0" class="event" cx="129.22" cy="57.53" r="8" opacity="0" />
  <circle id="mol58:Atom:1" class="event" cx="129.22" cy="81.53" r="8" opacity="0" />
  <circle id="mol58:Atom:2" class="event" cx="150" cy="93.53" r="8" opacity="0" />
  <circle id="mol58:Atom:3" class="event" cx="170.78" cy="81.53" r="8" opacity="0" />
  <circle id="mol58:Atom:4" class="event" cx="170.78" cy="57.53" r="8" opacity="0" />
  <circle id="mol58:Atom:5" class="event" cx="150" cy="45.53" r="8" opacity="0" />
  <circle id="mol58:Atom:6" class="event" cx="150" cy="117.53" r="8" opacity="0" />
  <circle id="mol58:Atom:7" class="event" cx="130.58" cy="131.64" r="8" opacity="0" />
  <circle id="mol58:Atom:8" class="event" cx="138" cy="154.47" r="8" opacity="0" />
  <circle id="mol58:Atom:9" class="event" cx="162" cy="154.47" r="8" opacity="0" />
  <circle id="mol58:Atom:10" class="event" cx="169.42" cy="131.64" r="8" opacity="0" />
</svg>