<svg id="mol61" xmlns="http://www.w3.org/2000/svg" version="1.1" width="161px" height="72px" viewBox="75 62 161 72">
  <style> text {font-family: sans-serif;} #mol61 { pointer-events:none; } #mol61 .event  { pointer-events:all; } line { stroke-linecap:round; } polygon { stroke-linejoin:round; } </style>
  <text x="206.2" y="80.67" stroke="none" font-size="14" fill="rgb(255,13,13)">O</text>
  <text x="217.09" y="80.67" stroke="none" font-size="14" fill="rgb(255,13,13)">H</text>
  <text x="121.02" y="124.08" stroke="none" font-size="14" fill="rgb(255,13,13)">O</text>
  <text x="82.91" y="104.67" stroke="none" font-size="14" fill="rgb(255,13,13)">O</text>
  <line x1="190.86" y1="88" x2="190.86" y2="112" stroke="rgb(0,0,0)" stroke-width="1.44" />
  <line x1="187.26" y1="90.56" x2="187.26" y2="94.34" stroke="rgb(0,0,0)" stroke-width="1.44" />
  <line x1="187.26" y1="98.11" x2="187.26" y2="100" stroke="rgb(0,0,0)" stroke-width="1.44" />
  <line x1="187.26" y1="100" x2="187.26" y2="101.89" stroke="rgb(0,0,0)" stroke-width="1.44" />
  <line x1="187.26" y1="105.66" x2="187.26" y2="109.44" stroke="rgb(0,0,0)" stroke-width="1.44" />
  <line x1="190.86" y1="112" x2="170.07" y2="124" stroke="rgb(0,0,0)" stroke-width="1.44" />
  <line x1="186.84" y1="110.16" x2="183.57" y2="112.05" stroke="rgb(0,0,0)" stroke-width="1.44" />
  <line x1="180.3" y1="113.94" x2="178.67" y2="114.88" stroke="rgb(0,0,0)" stroke-width="1.44" />
  <line x1="178.67" y1="114.88" x2="177.03" y2="115.83" stroke="rgb(0,0,0)" stroke-width="1.44" />
  <line x1="173.76" y1="117.71" x2="170.49" y2="119.6" stroke="rgb(0,0,0)" stroke-width="1.44" />
  <line x1="170.07" y1="124" x2="149.29" y2="112" stroke="rgb(0,0,0)" stroke-width="1.44" />
  <line x1="169.66" y1="119.6" x2="166.39" y2="117.71" stroke="rgb(0,0,0)" stroke-width="1.44" />
  <line x1="163.12" y1="115.83" x2="161.48" y2="114.88" stroke="rgb(0,0,0)" stroke-width="1.44" />
  <line x1="161.48" y1="114.88" x2="159.85" y2="113.94" stroke="rgb(0,0,0)" stroke-width="1.44" />
  <line x1="156.58" y1="112.05" x2="153.31" y2="110.16" stroke="rgb(0,0,0)" stroke-width="1.44" />
  <line x1="113.66" y1="98.2" x2="94.8" y2="98.2" stroke="rgb(0,0,0)" stroke-width="1.44" />
  <line x1="113.66" y1="101.8" x2="94.8" y2="101.8" stroke="rgb(0,0,0)" stroke-width="1.44" />
  <line x1="149.29" y1="112" x2="149.29" y2="88" stroke="rgb(0,0,0)" stroke-width="1.44" />
  <line x1="152.89" y1="109.44" x2="152.89" y2="105.66" stroke="rgb(0,0,0)" stroke-width="1.44" />
  <line x1="152.89" y1="101.89" x2="152.89" y2="100" stroke="rgb(0,0,0)" stroke-width="1.44" />
  <line x1="152.89" y1="100" x2="152.89" y2="98.11" stroke="rgb(0,0,0)" stroke-width="1.44" />
  <line x1="152.89" y1="94.34" x2="152.89" y2="90.56" stroke="rgb(0,0,0)" stroke-width="1.44" />
  <line x1="149.29" y1="88" x2="170.07" y2="76" stroke="rgb(0,0,0)" stroke-width="1.44" />
  <line x1="153.31" y1="89.84" x2="156.58" y2="87.95" stroke="rgb(0,0,0)" stroke-width="1.44" />
  <line x1="159.85" y1="86.06" x2="161.48" y2="85.12" stroke="rgb(0,0,0)" stroke-width="1.44" />
  <line x1="161.48" y1="85.12" x2="163.12" y2="84.17" stroke="rgb(0,0,0)" stroke-width="1.44" />
  <line x1="166.39" y1="82.29" x2="169.66" y2="80.4" stroke="rgb(0,0,0)" stroke-width="1.44" />
  <line x1="190.86" y1="88" x2="170.07" y2="76" stroke="rgb(0,0,0)" stroke-width="1.44" />
  <line x1="186.84" y1="89.84" x2="183.57" y2="87.95" stroke="rgb(0,0,0)" stroke-width="1.44" />
  <line x1="180.3" y1="86.06" x2="178.67" y2="85.12" stroke="rgb(0,0,0)" stroke-width="1.44" />
  <line x1="178.67" y1="85.12" x2="177.03" y2="84.17" stroke="rgb(0,0,0)" stroke-width="1.44" />
  <line x1="173.76" y1="82.29" x2="170.49" y2="80.4" stroke="rgb(0,0,0)" stroke-width="1.44" />
  <line x1="205.2" y1="79.72" x2="190.86" y2="88" stroke="rgb(0,0,0)" stroke-width="1.44" />
  <line x1="149.29" y1="112" x2="132.91" y2="117.32" stroke="rgb(0,0,0)" stroke-width="1.44" />
  <line x1="121.38" y1="112.42" x2="112.36" y2="100" stroke="rgb(0,0,0)" stroke-width="1.44" />
  <line x1="112.36" y1="100" x2="126.46" y2="80.58" stroke="rgb(0,0,0)" stroke-width="1.44" />
  <line x1="126.46" y1="80.58" x2="149.29" y2="88" stroke="rgb(0,0,0)" stroke-width="1.44" />
  <line id="mol61:Bond:1" class="event" x1="190.86" y1="88" x2="190.86" y2="112" stroke-width="8" opacity="0" />
  <line id="mol61:Bond:2" class="event" x1="190.86" y1="112" x2="170.07" y2="124" stroke-width="8" opacity="0" />
  <line id="mol61:Bond:3" class="event" x1="170.07" y1="124" x2="149.29" y2="112" stroke-width="8" opacity="0" />
  <line id="mol61:Bond:6" class="event" x1="112.36" y1="100" x2="88.36" y2="100" stroke-width="8" opacity="0" />
  <line id="mol61:Bond:9" class="event" x1="149.29" y1="112" x2="149.29" y2="88" stroke-width="8" opacity="0" />
  <line id="mol61:Bond:10" class="event" x1="149.29" y1="88" x2="170.07" y2="76" stroke-width="8" opacity="0" />
  <line id="mol61:Bond:11" class="event" x1="190.86" y1="88" x2="170.07" y2="76" stroke-width="8" opacity="0" />
  <line id="mol61:Bond:0" class="event" x1="211.64" y1="76" x2="190.86" y2="88" stroke-width="8" opacity="0" />
  <line id="mol61:Bond:4" class="event" x1="149.29" y1="112" x2="126.46" y2="119.42" stroke-width="8" opacity="0" />
  <line id="mol61:Bond:5" class="event" x1="126.46" y1="119.42" x2="112.36" y2="100" stroke-width="8" opacity="0" />
  <line id="mol61:Bond:7" class="event" x1="112.36" y1="100" x2="126.46" y2="80.58" stroke-width="8" opacity="0" />
  <line id="mol61:Bond:8" class="event" x1="126.46" y1="80.58" x2="149.29" y2="88" stroke-width="8" opacity="0" />
  <circle id="mol61:Atom:0" class="event" cx="211.64" cy="76" r="8" opacity="0" />
  <circle id="mol61:Atom:1" class="event" cx="190.86" cy="88" r="8" opacity="0" />
  <circle id="mol61:Atom:2" class="event" cx="190.86" cy="112" r="8" opacity="0" />
  <circle id="mol61:Atom:3" class="event" cx="170.07" cy="124" r="8" opacity="0" />
  <circle id="mol61:Atom:4" class="event" cx="149.29" cy="112" r="8" opacity="0" />
  <circle id="mol61:Atom:5" class="event" cx="126.46" cy="119.42" r="8" opacity="0" />
  <circle id="mol61:Atom:6" class="event" cx="112.36" cy="100" r="8" opacity="0" />
  <circle id="mol61:Atom:7" class="event" cx="88.36" cy="100" r="8" opacity="0" />
  <circle id="mol61:Atom:8" class="event" cx="126.46" cy="80.58" r="8" opacity="0" />
  <circle id="mol61:Atom:9" class="event" cx="149.29" cy="88" r="8" opacity="0" />
  <circle id="mol61:Atom:10" class="event" cx="170.07" cy="76" r="8" opacity="0" />
</svg>