<svg id="mol62" xmlns="http://www.w3.org/2000/svg" version="1.1" width="80px" height="140px" viewBox="107 34 80 140">
  <style> text {font-family: sans-serif;} #mol62 { pointer-events:none; } #mol62 .event  { pointer-events:all; } line { stroke-linecap:round; } polygon { stroke-linejoin:round; } </style>
  <text x="100.76" y="188.12" stroke="none" font-size="12" fill="rgb(160,0,0)">unknown chirality</text>
  <text x="115.28" y="81.7" stroke="none" font-size="14" fill="rgb(255,13,13)">O</text>
  <text x="156.85" y="81.7" stroke="none" font-size="14" fill="rgb(255,13,13)">O</text>
  <text x="156.85" y="163.64" stroke="none" font-size="14" fill="rgb(255,13,13)">O</text>
  <text x="140.27" y="122.67" stroke="none" font-size="14" fill="rgb(48,80,248)">N</text>
  <text x="130.17" y="122.67" stroke="none" font-size="14" fill="rgb(48,80,248)">H</text>
  <line x1="141.52" y1="62.95" x2="126.28" y2="71.75" stroke="rgb(0,0,0)" stroke-width="1.44" />
  <line x1="143.32" y1="66.07" x2="128.08" y2="74.87" stroke="rgb(0,0,0)" stroke-width="1.44" />
  <line x1="160.5" y1="133.17" x2="160.5" y2="151.97" stroke="rgb(0,0,0)" stroke-width="1.44" />
  <line x1="164.1" y1="133.17" x2="164.1" y2="151.97" stroke="rgb(0,0,0)" stroke-width="1.44" />
  <line x1="141.52" y1="41.03" x2="141.52" y2="65.03" stroke="rgb(0,0,0)" stroke-width="1.44" />
  <line x1="141.52" y1="65.03" x2="155.85" y2="73.31" stroke="rgb(0,0,0)" stroke-width="1.44" />
  <line x1="162.3" y1="84.03" x2="162.3" y2="92.53" stroke="rgb(0,0,0)" stroke-width="1.44" />
  <line x1="162.3" y1="92.53" x2="162.3" y2="101.03" stroke="rgb(192,0,255)" stroke-width="1.44" />
  <line x1="162.3" y1="101.03" x2="170.78" y2="109.52" stroke="rgb(192,0,255)" stroke-width="1.44" />
  <line x1="170.78" y1="109.52" x2="179.27" y2="118" stroke="rgb(0,0,0)" stroke-width="1.44" />
  <line x1="179.27" y1="118" x2="162.3" y2="134.97" stroke="rgb(0,0,0)" stroke-width="1.44" />
  <line x1="162.3" y1="134.97" x2="151.38" y2="124.05" stroke="rgb(0,0,0)" stroke-width="1.44" />
  <line x1="162.3" y1="101.03" x2="156.84" y2="106.49" stroke="rgb(192,0,255)" stroke-width="1.44" />
  <line x1="156.84" y1="106.49" x2="151.38" y2="111.95" stroke="rgb(0,0,0)" stroke-width="1.44" />
  <line id="mol62:Bond:1" class="event" x1="141.52" y1="65.03" x2="120.73" y2="77.03" stroke-width="8" opacity="0" />
  <line id="mol62:Bond:6" class="event" x1="162.3" y1="134.97" x2="162.3" y2="158.97" stroke-width="8" opacity="0" />
  <line id="mol62:Bond:0" class="event" x1="141.52" y1="41.03" x2="141.52" y2="65.03" stroke-width="8" opacity="0" />
  <line id="mol62:Bond:2" class="event" x1="141.52" y1="65.03" x2="162.3" y2="77.03" stroke-width="8" opacity="0" />
  <line id="mol62:Bond:3" class="event" x1="162.3" y1="77.03" x2="162.3" y2="101.03" stroke-width="8" opacity="0" />
  <line id="mol62:Bond:4" class="event" x1="162.3" y1="101.03" x2="179.27" y2="118" stroke-width="8" opacity="0" />
  <line id="mol62:Bond:5" class="event" x1="179.27" y1="118" x2="162.3" y2="134.97" stroke-width="8" opacity="0" />
  <line id="mol62:Bond:7" class="event" x1="162.3" y1="134.97" x2="145.33" y2="118" stroke-width="8" opacity="0" />
  <line id="mol62:Bond:8" class="event" x1="162.3" y1="101.03" x2="145.33" y2="118" stroke-width="8" opacity="0" />
  <circle id="mol62:Atom:0" class="event" cx="141.52" cy="41.03" r="8" opacity="0" />
  <circle id="mol62:Atom:1" class="event" cx="141.52" cy="65.03" r="8" opacity="0" />
  <circle id="mol62:Atom:2" class="event" cx="120.73" cy="77.03" r="8" opacity="0" />
  <circle id="mol62:Atom:3" class="event" cx="162.3" cy="77.03" r="8" opacity="0" />
  <circle id="mol62:Atom:4" class="event" cx="162.3" cy="101.03" r="8" opacity="0" />
  <circle id="mol62:Atom:5" class="event" cx="179.27" cy="118" r="8" opacity="0" />
  <circle id="mol62:Atom:6" class="event" cx="162.3" cy="134.97" r="8" opacity="0" />
  <circle id="mol62:Atom:7" class="event" cx="162.3" cy="158.97" r="8" opacity="0" />
  <circle id="mol62:Atom:8" class="event" cx="145.33" cy="118" r="8" opacity="0" />
</svg>