<svg id="mol63" xmlns="http://www.w3.org/2000/svg" version="1.1" width="162px" height="186px" viewBox="69 7 162 186">
  <style> text {font-family: sans-serif;} #mol63 { pointer-events:none; } #mol63 .event  { pointer-events:all; } line { stroke-linecap:round; } polygon { stroke-linejoin:round; } </style>
  <text x="108.79" y="195.75" stroke="none" font-size="12" fill="rgb(160,0,0)">this enantiomer</text>
  <text x="181.19" y="26.22" stroke="none" font-size="14" fill="rgb(48,80,248)">N</text>
  <text x="201.4" y="29.56" stroke="none" font-size="9" fill="rgb(48,80,248)">2</text>
  <text x="191.3" y="26.22" stroke="none" font-size="14" fill="rgb(48,80,248)">H</text>
  <text x="201.97" y="62.22" stroke="none" font-size="14" fill="rgb(48,80,248)">N</text>
  <text x="212.08" y="62.22" stroke="none" font-size="14" fill="rgb(48,80,248)">H</text>
  <text x="181.19" y="98.22" stroke="none" font-size="14" fill="rgb(48,80,248)">N</text>
  <text x="181.19" y="112.22" stroke="none" font-size="14" fill="rgb(48,80,248)">H</text>
  <text x="137.58" y="93.64" stroke="none" font-size="14" fill="rgb(48,80,248)">N</text>
  <text x="137.58" y="54.81" stroke="none" font-size="14" fill="rgb(48,80,248)">N</text>
  <text x="137.58" y="40.81" stroke="none" font-size="14" fill="rgb(48,80,248)">H</text>
  <text x="128.72" y="119.8" stroke="none" font-size="9" fill="rgb(160,0,0)">R</text>
  <text x="134.18" y="113.81" stroke="none" font-size="9" fill="rgb(160,0,0)">abs</text>
  <text x="143.88" y="135.88" stroke="none" font-size="14" fill="rgb(255,13,13)">O</text>
  <text x="128.72" y="158.63" stroke="none" font-size="9" fill="rgb(160,0,0)">R</text>
  <text x="134.18" y="154.62" stroke="none" font-size="9" fill="rgb(160,0,0)">abs</text>
  <text x="160.66" y="183.11" stroke="none" font-size="14" fill="rgb(255,13,13)">O</text>
  <text x="171.55" y="183.11" stroke="none" font-size="14" fill="rgb(255,13,13)">H</text>
  <text x="106.39" y="151.21" stroke="none" font-size="9" fill="rgb(160,0,0)">S</text>
  <text x="110.23" y="142.51" stroke="none" font-size="9" fill="rgb(160,0,0)">abs</text>
  <text x="87.53" y="161.99" stroke="none" font-size="14" fill="rgb(255,13,13)">O</text>
  <text x="77.42" y="161.99" stroke="none" font-size="14" fill="rgb(255,13,13)">H</text>
  <text x="105.89" y="127.21" stroke="none" font-size="9" fill="rgb(160,0,0)">R</text>
  <text x="106.12" y="115.99" stroke="none" font-size="9" fill="rgb(160,0,0)">abs</text>
  <text x="87.53" y="109.77" stroke="none" font-size="14" fill="rgb(255,13,13)">O</text>
  <text x="77.42" y="109.77" stroke="none" font-size="14" fill="rgb(255,13,13)">H</text>
  <line x1="186.24" y1="45.56" x2="200.97" y2="54.06" stroke="rgb(0,0,0)" stroke-width="1.44" />
  <line x1="186.66" y1="49.95" x2="189.52" y2="51.61" stroke="rgb(0,0,0)" stroke-width="1.44" />
  <line x1="192.38" y1="53.26" x2="193.82" y2="54.08" stroke="rgb(0,0,0)" stroke-width="1.44" />
  <line x1="193.82" y1="54.08" x2="195.25" y2="54.91" stroke="rgb(0,0,0)" stroke-width="1.44" />
  <line x1="198.11" y1="56.56" x2="200.97" y2="58.22" stroke="rgb(0,0,0)" stroke-width="1.44" />
  <line x1="207.03" y1="64.56" x2="207.03" y2="81.56" stroke="rgb(0,0,0)" stroke-width="1.44" />
  <line x1="203.43" y1="64.56" x2="203.43" y2="67.44" stroke="rgb(0,0,0)" stroke-width="1.44" />
  <line x1="203.43" y1="70.33" x2="203.43" y2="71.77" stroke="rgb(0,0,0)" stroke-width="1.44" />
  <line x1="203.43" y1="71.77" x2="203.43" y2="73.22" stroke="rgb(0,0,0)" stroke-width="1.44" />
  <line x1="203.43" y1="76.11" x2="203.43" y2="78.99" stroke="rgb(0,0,0)" stroke-width="1.44" />
  <line x1="207.03" y1="81.56" x2="192.3" y2="90.06" stroke="rgb(0,0,0)" stroke-width="1.44" />
  <line x1="203.01" y1="79.72" x2="200.64" y2="81.09" stroke="rgb(0,0,0)" stroke-width="1.44" />
  <line x1="198.27" y1="82.45" x2="197.09" y2="83.14" stroke="rgb(0,0,0)" stroke-width="1.44" />
  <line x1="197.09" y1="83.14" x2="195.9" y2="83.82" stroke="rgb(0,0,0)" stroke-width="1.44" />
  <line x1="193.53" y1="85.19" x2="191.17" y2="86.56" stroke="rgb(0,0,0)" stroke-width="1.44" />
  <line x1="180.19" y1="90.06" x2="165.46" y2="81.56" stroke="rgb(0,0,0)" stroke-width="1.44" />
  <line x1="181.32" y1="86.56" x2="178.95" y2="85.19" stroke="rgb(0,0,0)" stroke-width="1.44" />
  <line x1="176.58" y1="83.82" x2="175.4" y2="83.14" stroke="rgb(0,0,0)" stroke-width="1.44" />
  <line x1="175.4" y1="83.14" x2="174.21" y2="82.45" stroke="rgb(0,0,0)" stroke-width="1.44" />
  <line x1="171.84" y1="81.09" x2="169.47" y2="79.72" stroke="rgb(0,0,0)" stroke-width="1.44" />
  <line x1="165.46" y1="81.56" x2="148.69" y2="87" stroke="rgb(0,0,0)" stroke-width="1.44" />
  <line x1="161.48" y1="79.06" x2="158.92" y2="79.89" stroke="rgb(0,0,0)" stroke-width="1.44" />
  <line x1="156.36" y1="80.73" x2="155.08" y2="81.14" stroke="rgb(0,0,0)" stroke-width="1.44" />
  <line x1="155.08" y1="81.14" x2="153.8" y2="81.56" stroke="rgb(0,0,0)" stroke-width="1.44" />
  <line x1="151.24" y1="82.39" x2="148.69" y2="83.22" stroke="rgb(0,0,0)" stroke-width="1.44" />
  <line x1="137.55" y1="81.97" x2="128.52" y2="69.56" stroke="rgb(0,0,0)" stroke-width="1.44" />
  <line x1="142" y1="81.97" x2="140.24" y2="79.55" stroke="rgb(0,0,0)" stroke-width="1.44" />
  <line x1="138.48" y1="77.13" x2="137.6" y2="75.93" stroke="rgb(0,0,0)" stroke-width="1.44" />
  <line x1="137.6" y1="75.93" x2="136.72" y2="74.72" stroke="rgb(0,0,0)" stroke-width="1.44" />
  <line x1="134.97" y1="72.3" x2="133.21" y2="69.88" stroke="rgb(0,0,0)" stroke-width="1.44" />
  <line x1="128.52" y1="69.56" x2="137.55" y2="57.14" stroke="rgb(0,0,0)" stroke-width="1.44" />
  <line x1="133.21" y1="69.23" x2="134.97" y2="66.81" stroke="rgb(0,0,0)" stroke-width="1.44" />
  <line x1="136.72" y1="64.39" x2="137.6" y2="63.19" stroke="rgb(0,0,0)" stroke-width="1.44" />
  <line x1="137.6" y1="63.19" x2="138.48" y2="61.98" stroke="rgb(0,0,0)" stroke-width="1.44" />
  <line x1="140.24" y1="59.56" x2="142" y2="57.14" stroke="rgb(0,0,0)" stroke-width="1.44" />
  <line x1="148.69" y1="52.11" x2="165.46" y2="57.56" stroke="rgb(0,0,0)" stroke-width="1.44" />
  <line x1="148.69" y1="55.89" x2="151.24" y2="56.72" stroke="rgb(0,0,0)" stroke-width="1.44" />
  <line x1="153.8" y1="57.55" x2="155.08" y2="57.97" stroke="rgb(0,0,0)" stroke-width="1.44" />
  <line x1="155.08" y1="57.97" x2="156.36" y2="58.38" stroke="rgb(0,0,0)" stroke-width="1.44" />
  <line x1="158.92" y1="59.22" x2="161.48" y2="60.05" stroke="rgb(0,0,0)" stroke-width="1.44" />
  <line x1="186.24" y1="45.56" x2="165.46" y2="57.56" stroke="rgb(0,0,0)" stroke-width="1.44" />
  <line x1="185.82" y1="49.95" x2="182.55" y2="51.84" stroke="rgb(0,0,0)" stroke-width="1.44" />
  <line x1="179.28" y1="53.73" x2="177.65" y2="54.67" stroke="rgb(0,0,0)" stroke-width="1.44" />
  <line x1="177.65" y1="54.67" x2="176.01" y2="55.62" stroke="rgb(0,0,0)" stroke-width="1.44" />
  <line x1="172.74" y1="57.5" x2="169.47" y2="59.39" stroke="rgb(0,0,0)" stroke-width="1.44" />
  <line x1="165.46" y1="81.56" x2="165.46" y2="57.56" stroke="rgb(0,0,0)" stroke-width="1.44" />
  <line x1="169.06" y1="78.99" x2="169.06" y2="75.22" stroke="rgb(0,0,0)" stroke-width="1.44" />
  <line x1="169.06" y1="71.44" x2="169.06" y2="69.56" stroke="rgb(0,0,0)" stroke-width="1.44" />
  <line x1="169.06" y1="69.56" x2="169.06" y2="67.67" stroke="rgb(0,0,0)" stroke-width="1.44" />
  <line x1="169.06" y1="63.89" x2="169.06" y2="60.12" stroke="rgb(0,0,0)" stroke-width="1.44" />
  <line x1="186.24" y1="28.56" x2="186.24" y2="45.56" stroke="rgb(0,0,0)" stroke-width="1.44" />
  <line x1="136.44" y1="109.23" x2="135.73" y2="109" stroke="rgb(160,0,0)" stroke-width="1.44" />
  <line x1="137.67" y1="106.66" x2="136.25" y2="106.19" stroke="rgb(160,0,0)" stroke-width="1.44" />
  <line x1="138.9" y1="104.09" x2="136.76" y2="103.39" stroke="rgb(160,0,0)" stroke-width="1.44" />
  <line x1="140.13" y1="101.52" x2="137.28" y2="100.59" stroke="rgb(160,0,0)" stroke-width="1.44" />
  <line x1="141.36" y1="98.95" x2="137.79" y2="97.79" stroke="rgb(160,0,0)" stroke-width="1.44" />
  <line x1="142.59" y1="96.38" x2="141.33" y2="95.97" stroke="rgb(160,0,0)" stroke-width="1.44" />
  <line x1="135.22" y1="111.8" x2="144.24" y2="124.21" stroke="rgb(0,0,0)" stroke-width="1.44" />
  <line x1="135.22" y1="150.63" x2="144.24" y2="138.21" stroke="rgb(0,0,0)" stroke-width="1.44" />
  <line x1="135.73" y1="153.43" x2="136.44" y2="153.2" stroke="rgb(160,0,0)" stroke-width="1.44" />
  <line x1="136.25" y1="156.23" x2="137.67" y2="155.77" stroke="rgb(160,0,0)" stroke-width="1.44" />
  <line x1="136.76" y1="159.03" x2="138.9" y2="158.34" stroke="rgb(160,0,0)" stroke-width="1.44" />
  <line x1="137.28" y1="161.83" x2="140.13" y2="160.91" stroke="rgb(160,0,0)" stroke-width="1.44" />
  <line x1="137.79" y1="164.64" x2="141.36" y2="163.48" stroke="rgb(160,0,0)" stroke-width="1.44" />
  <line x1="138.31" y1="167.44" x2="142.59" y2="166.05" stroke="rgb(160,0,0)" stroke-width="1.44" />
  <line x1="138.83" y1="170.24" x2="143.82" y2="168.62" stroke="rgb(160,0,0)" stroke-width="1.44" />
  <line x1="139.34" y1="173.04" x2="145.05" y2="171.19" stroke="rgb(160,0,0)" stroke-width="1.44" />
  <line x1="142.63" y1="173.45" x2="159.66" y2="177.07" stroke="rgb(0,0,0)" stroke-width="1.44" />
  <line x1="112.39" y1="143.21" x2="135.22" y2="150.63" stroke="rgb(0,0,0)" stroke-width="1.44" />
  <polygon points="112,143 105,147 106,149 " fill="rgb(160,0,0)" stroke="rgb(160,0,0)" stroke-width="1.44" />
  <polygon points="106,149 105,147 98,151 100,154 " fill="rgb(160,0,0)" stroke="rgb(160,0,0)" stroke-width="1.44" />
  <line x1="112.39" y1="143.21" x2="112.39" y2="119.21" stroke="rgb(0,0,0)" stroke-width="1.44" />
  <line x1="112.39" y1="119.21" x2="135.22" y2="111.8" stroke="rgb(0,0,0)" stroke-width="1.44" />
  <polygon points="112,119 106,114 105,115 " fill="rgb(160,0,0)" stroke="rgb(160,0,0)" stroke-width="1.44" />
  <polygon points="105,115 106,114 100,108 98,111 " fill="rgb(160,0,0)" stroke="rgb(160,0,0)" stroke-width="1.44" />
  <line id="mol63:Bond:1" class="event" x1="186.24" y1="45.56" x2="207.03" y2="57.56" stroke-width="8" opacity="0" />
  <line id="mol63:Bond:2" class="event" x1="207.03" y1="57.56" x2="207.03" y2="81.56" stroke-width="8" opacity="0" />
  <line id="mol63:Bond:3" class="event" x1="207.03" y1="81.56" x2="186.24" y2="93.56" stroke-width="8" opacity="0" />
  <line id="mol63:Bond:4" class="event" x1="186.24" y1="93.56" x2="165.46" y2="81.56" stroke-width="8" opacity="0" />
  <line id="mol63:Bond:5" class="event" x1="165.46" y1="81.56" x2="142.63" y2="88.97" stroke-width="8" opacity="0" />
  <line id="mol63:Bond:6" class="event" x1="142.63" y1="88.97" x2="128.52" y2="69.56" stroke-width="8" opacity="0" />
  <line id="mol63:Bond:7" class="event" x1="128.52" y1="69.56" x2="142.63" y2="50.14" stroke-width="8" opacity="0" />
  <line id="mol63:Bond:8" class="event" x1="142.63" y1="50.14" x2="165.46" y2="57.56" stroke-width="8" opacity="0" />
  <line id="mol63:Bond:9" class="event" x1="186.24" y1="45.56" x2="165.46" y2="57.56" stroke-width="8" opacity="0" />
  <line id="mol63:Bond:10" class="event" x1="165.46" y1="81.56" x2="165.46" y2="57.56" stroke-width="8" opacity="0" />
  <line id="mol63:Bond:0" class="event" x1="186.24" y1="21.56" x2="186.24" y2="45.56" stroke-width="8" opacity="0" />
  <line id="mol63:Bond:11" class="event" x1="135.22" y1="111.8" x2="142.63" y2="88.97" stroke-width="8" opacity="0" />
  <line id="mol63:Bond:12" class="event" x1="135.22" y1="111.8" x2="149.32" y2="131.21" stroke-width="8" opacity="0" />
  <line id="mol63:Bond:13" class="event" x1="135.22" y1="150.63" x2="149.32" y2="131.21" stroke-width="8" opacity="0" />
  <line id="mol63:Bond:14" class="event" x1="135.22" y1="150.63" x2="142.63" y2="173.45" stroke-width="8" opacity="0" />
  <line id="mol63:Bond:15" class="event" x1="142.63" y1="173.45" x2="166.11" y2="178.44" stroke-width="8" opacity="0" />
  <line id="mol63:Bond:16" class="event" x1="112.39" y1="143.21" x2="135.22" y2="150.63" stroke-width="8" opacity="0" />
  <line id="mol63:Bond:17" class="event" x1="112.39" y1="143.21" x2="92.97" y2="157.32" stroke-width="8" opacity="0" />
  <line id="mol63:Bond:18" class="event" x1="112.39" y1="143.21" x2="112.39" y2="119.21" stroke-width="8" opacity="0" />
  <line id="mol63:Bond:19" class="event" x1="112.39" y1="119.21" x2="135.22" y2="111.8" stroke-width="8" opacity="0" />
  <line id="mol63:Bond:20" class="event" x1="112.39" y1="119.21" x2="92.97" y2="105.11" stroke-width="8" opacity="0" />
  <circle id="mol63:Atom:0" class="event" cx="186.24" cy="21.56" r="8" opacity="0" />
  <circle id="mol63:Atom:1" class="event" cx="186.24" cy="45.56" r="8" opacity="0" />
  <circle id="mol63:Atom:2" class="event" cx="207.03" cy="57.56" r="8" opacity="0" />
  <circle id="mol63:Atom:3" class="event" cx="207.03" cy="81.56" r="8" opacity="0" />
  <circle id="mol63:Atom:4" class="event" cx="186.24" cy="93.56" r="8" opacity="0" />
  <circle id="mol63:Atom:5" class="event" cx="165.46" cy="81.56" r="8" opacity="0" />
  <circle id="mol63:Atom:6" class="event" cx="142.63" cy="88.97" r="8" opacity="0" />
  <circle id="mol63:Atom:7" class="event" cx="128.52" cy="69.56" r="8" opacity="0" />
  <circle id="mol63:Atom:8" class="event" cx="142.63" cy="50.14" r="8" opacity="0" />
  <circle id="mol63:Atom:9" class="event" cx="165.46" cy="57.56" r="8" opacity="0" />
  <circle id="mol63:Atom:10" class="event" cx="135.22" cy="111.8" r="8" opacity="0" />
  <circle id="mol63:Atom:11" class="event" cx="149.32" cy="131.21" r="8" opacity="0" />
  <circle id="mol63:Atom:12" class="event" cx="135.22" cy="150.63" r="8" opacity="0" />
  <circle id="mol63:Atom:13" class="event" cx="142.63" cy="173.45" r="8" opacity="0" />
  <circle id="mol63:Atom:14" class="event" cx="166.11" cy="178.44" r="8" opacity="0" />
  <circle id="mol63:Atom:15" class="event" cx="112.39" cy="143.21" r="8" opacity="0" />
  <circle id="mol63:Atom:16" class="event" cx="92.97" cy="157.32" r="8" opacity="0" />
  <circle id="mol63:Atom:17" class="event" cx="112.39" cy="119.21" r="8" opacity="0" />
  <circle id="mol63:Atom:18" class="event" cx="92.97" cy="105.11" r="8" opacity="0" />
</svg>