<svg id="mol4" xmlns="http://www.w3.org/2000/svg" version="1.1" width="69px" height="149px" viewBox="115 26 69 149">
  <style> text {font-family: sans-serif;} #mol4 { pointer-events:none; } #mol4 .event  { pointer-events:all; } line { stroke-linecap:round; } polygon { stroke-linejoin:round; } </style>
  <text x="123.77" y="44.67" stroke="none" font-size="14" fill="rgb(255,13,13)">O</text>
  <text x="165.34" y="164.67" stroke="none" font-size="14" fill="rgb(255,13,13)">O</text>
  <line x1="150.9" y1="50.44" x2="136.56" y2="42.16" stroke="rgb(0,0,0)" stroke-width="1.44" />
  <line x1="146.88" y1="52.28" x2="134.76" y2="45.28" stroke="rgb(0,0,0)" stroke-width="1.44" />
  <line x1="150" y1="76" x2="170.78" y2="88" stroke="rgb(0,0,0)" stroke-width="1.44" />
  <line x1="150.42" y1="80.4" x2="153.69" y2="82.29" stroke="rgb(0,0,0)" stroke-width="1.44" />
  <line x1="156.96" y1="84.17" x2="158.59" y2="85.12" stroke="rgb(0,0,0)" stroke-width="1.44" />
  <line x1="158.59" y1="85.12" x2="160.23" y2="86.06" stroke="rgb(0,0,0)" stroke-width="1.44" />
  <line x1="163.5" y1="87.95" x2="166.77" y2="89.84" stroke="rgb(0,0,0)" stroke-width="1.44" />
  <line x1="170.78" y1="88" x2="170.78" y2="112" stroke="rgb(0,0,0)" stroke-width="1.44" />
  <line x1="167.18" y1="90.56" x2="167.18" y2="94.34" stroke="rgb(0,0,0)" stroke-width="1.44" />
  <line x1="167.18" y1="98.11" x2="167.18" y2="100" stroke="rgb(0,0,0)" stroke-width="1.44" />
  <line x1="167.18" y1="100" x2="167.18" y2="101.89" stroke="rgb(0,0,0)" stroke-width="1.44" />
  <line x1="167.18" y1="105.66" x2="167.18" y2="109.44" stroke="rgb(0,0,0)" stroke-width="1.44" />
  <line x1="170.78" y1="112" x2="150" y2="124" stroke="rgb(0,0,0)" stroke-width="1.44" />
  <line x1="166.77" y1="110.16" x2="163.5" y2="112.05" stroke="rgb(0,0,0)" stroke-width="1.44" />
  <line x1="160.23" y1="113.94" x2="158.59" y2="114.88" stroke="rgb(0,0,0)" stroke-width="1.44" />
  <line x1="158.59" y1="114.88" x2="156.96" y2="115.83" stroke="rgb(0,0,0)" stroke-width="1.44" />
  <line x1="153.69" y1="117.71" x2="150.42" y2="119.6" stroke="rgb(0,0,0)" stroke-width="1.44" />
  <line x1="149.1" y1="149.56" x2="163.44" y2="157.84" stroke="rgb(0,0,0)" stroke-width="1.44" />
  <line x1="153.12" y1="147.72" x2="165.24" y2="154.72" stroke="rgb(0,0,0)" stroke-width="1.44" />
  <line x1="150" y1="124" x2="129.22" y2="112" stroke="rgb(0,0,0)" stroke-width="1.44" />
  <line x1="149.58" y1="119.6" x2="146.31" y2="117.71" stroke="rgb(0,0,0)" stroke-width="1.44" />
  <line x1="143.04" y1="115.83" x2="141.41" y2="114.88" stroke="rgb(0,0,0)" stroke-width="1.44" />
  <line x1="141.41" y1="114.88" x2="139.77" y2="113.94" stroke="rgb(0,0,0)" stroke-width="1.44" />
  <line x1="136.5" y1="112.05" x2="133.23" y2="110.16" stroke="rgb(0,0,0)" stroke-width="1.44" />
  <line x1="129.22" y1="112" x2="129.22" y2="88" stroke="rgb(0,0,0)" stroke-width="1.44" />
  <line x1="132.82" y1="109.44" x2="132.82" y2="105.66" stroke="rgb(0,0,0)" stroke-width="1.44" />
  <line x1="132.82" y1="101.89" x2="132.82" y2="100" stroke="rgb(0,0,0)" stroke-width="1.44" />
  <line x1="132.82" y1="100" x2="132.82" y2="98.11" stroke="rgb(0,0,0)" stroke-width="1.44" />
  <line x1="132.82" y1="94.34" x2="132.82" y2="90.56" stroke="rgb(0,0,0)" stroke-width="1.44" />
  <line x1="150" y1="76" x2="129.22" y2="88" stroke="rgb(0,0,0)" stroke-width="1.44" />
  <line x1="149.58" y1="80.4" x2="146.31" y2="82.29" stroke="rgb(0,0,0)" stroke-width="1.44" />
  <line x1="143.04" y1="84.17" x2="141.41" y2="85.12" stroke="rgb(0,0,0)" stroke-width="1.44" />
  <line x1="141.41" y1="85.12" x2="139.77" y2="86.06" stroke="rgb(0,0,0)" stroke-width="1.44" />
  <line x1="136.5" y1="87.95" x2="133.23" y2="89.84" stroke="rgb(0,0,0)" stroke-width="1.44" />
  <line x1="150.9" y1="50.44" x2="150" y2="76" stroke="rgb(0,0,0)" stroke-width="1.44" />
  <line x1="150" y1="124" x2="149.1" y2="149.56" stroke="rgb(0,0,0)" stroke-width="1.44" />
  <line id="mol4:Bond:0" class="event" x1="129.22" y1="40" x2="150" y2="52" stroke-width="8" opacity="0" />
  <line id="mol4:Bond:2" class="event" x1="150" y1="76" x2="170.78" y2="88" stroke-width="8" opacity="0" />
  <line id="mol4:Bond:3" class="event" x1="170.78" y1="88" x2="170.78" y2="112" stroke-width="8" opacity="0" />
  <line id="mol4:Bond:4" class="event" x1="170.78" y1="112" x2="150" y2="124" stroke-width="8" opacity="0" />
  <line id="mol4:Bond:6" class="event" x1="150" y1="148" x2="170.78" y2="160" stroke-width="8" opacity="0" />
  <line id="mol4:Bond:7" class="event" x1="150" y1="124" x2="129.22" y2="112" stroke-width="8" opacity="0" />
  <line id="mol4:Bond:8" class="event" x1="129.22" y1="112" x2="129.22" y2="88" stroke-width="8" opacity="0" />
  <line id="mol4:Bond:9" class="event" x1="150" y1="76" x2="129.22" y2="88" stroke-width="8" opacity="0" />
  <line id="mol4:Bond:1" class="event" x1="150" y1="52" x2="150" y2="76" stroke-width="8" opacity="0" />
  <line id="mol4:Bond:5" class="event" x1="150" y1="124" x2="150" y2="148" stroke-width="8" opacity="0" />
  <circle id="mol4:Atom:0" class="event" cx="129.22" cy="40" r="8" opacity="0" />
  <circle id="mol4:Atom:1" class="event" cx="150" cy="52" r="8" opacity="0" />
  <circle id="mol4:Atom:2" class="event" cx="150" cy="76" r="8" opacity="0" />
  <circle id="mol4:Atom:3" class="event" cx="170.78" cy="88" r="8" opacity="0" />
  <circle id="mol4:Atom:4" class="event" cx="170.78" cy="112" r="8" opacity="0" />
  <circle id="mol4:Atom:5" class="event" cx="150" cy="124" r="8" opacity="0" />
  <circle id="mol4:Atom:6" class="event" cx="150" cy="148" r="8" opacity="0" />
  <circle id="mol4:Atom:7" class="event" cx="170.78" cy="160" r="8" opacity="0" />
  <circle id="mol4:Atom:8" class="event" cx="129.22" cy="112" r="8" opacity="0" />
  <circle id="mol4:Atom:9" class="event" cx="129.22" cy="88" r="8" opacity="0" />
</svg>