<svg id="mol13" xmlns="http://www.w3.org/2000/svg" version="1.1" width="84px" height="135px" viewBox="111 33 84 135">
  <style> text {font-family: sans-serif;} #mol13 { pointer-events:none; } #mol13 .event  { pointer-events:all; } line { stroke-linecap:round; } polygon { stroke-linejoin:round; } </style>
  <text x="175.73" y="80.67" stroke="none" font-size="14" fill="rgb(255,13,13)">O</text>
  <line x1="160.39" y1="90.08" x2="175.63" y2="81.28" stroke="rgb(0,0,0)" stroke-width="1.44" />
  <line x1="158.59" y1="86.96" x2="173.83" y2="78.16" stroke="rgb(0,0,0)" stroke-width="1.44" />
  <line x1="160.39" y1="112" x2="181.18" y2="124" stroke="rgb(0,0,0)" stroke-width="1.44" />
  <line x1="160.81" y1="116.4" x2="164.08" y2="118.29" stroke="rgb(0,0,0)" stroke-width="1.44" />
  <line x1="167.35" y1="120.17" x2="168.99" y2="121.12" stroke="rgb(0,0,0)" stroke-width="1.44" />
  <line x1="168.99" y1="121.12" x2="170.62" y2="122.06" stroke="rgb(0,0,0)" stroke-width="1.44" />
  <line x1="173.89" y1="123.95" x2="177.16" y2="125.84" stroke="rgb(0,0,0)" stroke-width="1.44" />
  <line x1="181.18" y1="124" x2="181.18" y2="148" stroke="rgb(0,0,0)" stroke-width="1.44" />
  <line x1="177.58" y1="126.56" x2="177.58" y2="130.34" stroke="rgb(0,0,0)" stroke-width="1.44" />
  <line x1="177.58" y1="134.11" x2="177.58" y2="136" stroke="rgb(0,0,0)" stroke-width="1.44" />
  <line x1="177.58" y1="136" x2="177.58" y2="137.89" stroke="rgb(0,0,0)" stroke-width="1.44" />
  <line x1="177.58" y1="141.66" x2="177.58" y2="145.44" stroke="rgb(0,0,0)" stroke-width="1.44" />
  <line x1="181.18" y1="148" x2="160.39" y2="160" stroke="rgb(0,0,0)" stroke-width="1.44" />
  <line x1="177.16" y1="146.16" x2="173.89" y2="148.05" stroke="rgb(0,0,0)" stroke-width="1.44" />
  <line x1="170.62" y1="149.94" x2="168.99" y2="150.88" stroke="rgb(0,0,0)" stroke-width="1.44" />
  <line x1="168.99" y1="150.88" x2="167.35" y2="151.83" stroke="rgb(0,0,0)" stroke-width="1.44" />
  <line x1="164.08" y1="153.71" x2="160.81" y2="155.6" stroke="rgb(0,0,0)" stroke-width="1.44" />
  <line x1="160.39" y1="160" x2="139.61" y2="148" stroke="rgb(0,0,0)" stroke-width="1.44" />
  <line x1="159.98" y1="155.6" x2="156.71" y2="153.71" stroke="rgb(0,0,0)" stroke-width="1.44" />
  <line x1="153.44" y1="151.83" x2="151.8" y2="150.88" stroke="rgb(0,0,0)" stroke-width="1.44" />
  <line x1="151.8" y1="150.88" x2="150.17" y2="149.94" stroke="rgb(0,0,0)" stroke-width="1.44" />
  <line x1="146.9" y1="148.05" x2="143.63" y2="146.16" stroke="rgb(0,0,0)" stroke-width="1.44" />
  <line x1="139.61" y1="148" x2="139.61" y2="124" stroke="rgb(0,0,0)" stroke-width="1.44" />
  <line x1="143.21" y1="145.44" x2="143.21" y2="141.66" stroke="rgb(0,0,0)" stroke-width="1.44" />
  <line x1="143.21" y1="137.89" x2="143.21" y2="136" stroke="rgb(0,0,0)" stroke-width="1.44" />
  <line x1="143.21" y1="136" x2="143.21" y2="134.11" stroke="rgb(0,0,0)" stroke-width="1.44" />
  <line x1="143.21" y1="130.34" x2="143.21" y2="126.56" stroke="rgb(0,0,0)" stroke-width="1.44" />
  <line x1="160.39" y1="112" x2="139.61" y2="124" stroke="rgb(0,0,0)" stroke-width="1.44" />
  <line x1="159.98" y1="116.4" x2="156.71" y2="118.29" stroke="rgb(0,0,0)" stroke-width="1.44" />
  <line x1="153.44" y1="120.17" x2="151.8" y2="121.12" stroke="rgb(0,0,0)" stroke-width="1.44" />
  <line x1="151.8" y1="121.12" x2="150.17" y2="122.06" stroke="rgb(0,0,0)" stroke-width="1.44" />
  <line x1="146.9" y1="123.95" x2="143.63" y2="125.84" stroke="rgb(0,0,0)" stroke-width="1.44" />
  <line x1="118.82" y1="40" x2="139.61" y2="52" stroke="rgb(0,0,0)" stroke-width="1.44" />
  <line x1="139.61" y1="52" x2="139.61" y2="76" stroke="rgb(0,0,0)" stroke-width="1.44" />
  <line x1="139.61" y1="76" x2="160.39" y2="88" stroke="rgb(0,0,0)" stroke-width="1.44" />
  <line x1="160.39" y1="88" x2="160.39" y2="112" stroke="rgb(0,0,0)" stroke-width="1.44" />
  <line id="mol13:Bond:3" class="event" x1="160.39" y1="88" x2="181.18" y2="76" stroke-width="8" opacity="0" />
  <line id="mol13:Bond:5" class="event" x1="160.39" y1="112" x2="181.18" y2="124" stroke-width="8" opacity="0" />
  <line id="mol13:Bond:6" class="event" x1="181.18" y1="124" x2="181.18" y2="148" stroke-width="8" opacity="0" />
  <line id="mol13:Bond:7" class="event" x1="181.18" y1="148" x2="160.39" y2="160" stroke-width="8" opacity="0" />
  <line id="mol13:Bond:8" class="event" x1="160.39" y1="160" x2="139.61" y2="148" stroke-width="8" opacity="0" />
  <line id="mol13:Bond:9" class="event" x1="139.61" y1="148" x2="139.61" y2="124" stroke-width="8" opacity="0" />
  <line id="mol13:Bond:10" class="event" x1="160.39" y1="112" x2="139.61" y2="124" stroke-width="8" opacity="0" />
  <line id="mol13:Bond:0" class="event" x1="118.82" y1="40" x2="139.61" y2="52" stroke-width="8" opacity="0" />
  <line id="mol13:Bond:1" class="event" x1="139.61" y1="52" x2="139.61" y2="76" stroke-width="8" opacity="0" />
  <line id="mol13:Bond:2" class="event" x1="139.61" y1="76" x2="160.39" y2="88" stroke-width="8" opacity="0" />
  <line id="mol13:Bond:4" class="event" x1="160.39" y1="88" x2="160.39" y2="112" stroke-width="8" opacity="0" />
  <circle id="mol13:Atom:0" class="event" cx="118.82" cy="40" r="8" opacity="0" />
  <circle id="mol13:Atom:1" class="event" cx="139.61" cy="52" r="8" opacity="0" />
  <circle id="mol13:Atom:2" class="event" cx="139.61" cy="76" r="8" opacity="0" />
  <circle id="mol13:Atom:3" class="event" cx="160.39" cy="88" r="8" opacity="0" />
  <circle id="mol13:Atom:4" class="event" cx="181.18" cy="76" r="8" opacity="0" />
  <circle id="mol13:Atom:5" class="event" cx="160.39" cy="112" r="8" opacity="0" />
  <circle id="mol13:Atom:6" class="event" cx="181.18" cy="124" r="8" opacity="0" />
  <circle id="mol13:Atom:7" class="event" cx="181.18" cy="148" r="8" opacity="0" />
  <circle id="mol13:Atom:8" class="event" cx="160.39" cy="160" r="8" opacity="0" />
  <circle id="mol13:Atom:9" class="event" cx="139.61" cy="148" r="8" opacity="0" />
  <circle id="mol13:Atom:10" class="event" cx="139.61" cy="124" r="8" opacity="0" />
</svg>