<svg id="mol17" xmlns="http://www.w3.org/2000/svg" version="1.1" width="127px" height="70px" viewBox="83 69 127 70">
  <style> text {font-family: sans-serif;} #mol17 { pointer-events:none; } #mol17 .event  { pointer-events:all; } line { stroke-linecap:round; } polygon { stroke-linejoin:round; } </style>
  <text x="91.04" y="128.67" stroke="none" font-size="14" fill="rgb(166,41,41)">Br</text>
  <line x1="118.82" y1="112" x2="118.82" y2="88" stroke="rgb(0,0,0)" stroke-width="1.44" />
  <line x1="122.42" y1="109.44" x2="122.42" y2="105.66" stroke="rgb(0,0,0)" stroke-width="1.44" />
  <line x1="122.42" y1="101.89" x2="122.42" y2="100" stroke="rgb(0,0,0)" stroke-width="1.44" />
  <line x1="122.42" y1="100" x2="122.42" y2="98.11" stroke="rgb(0,0,0)" stroke-width="1.44" />
  <line x1="122.42" y1="94.34" x2="122.42" y2="90.56" stroke="rgb(0,0,0)" stroke-width="1.44" />
  <line x1="118.82" y1="88" x2="139.61" y2="76" stroke="rgb(0,0,0)" stroke-width="1.44" />
  <line x1="122.84" y1="89.84" x2="126.11" y2="87.95" stroke="rgb(0,0,0)" stroke-width="1.44" />
  <line x1="129.38" y1="86.06" x2="131.02" y2="85.12" stroke="rgb(0,0,0)" stroke-width="1.44" />
  <line x1="131.02" y1="85.12" x2="132.65" y2="84.17" stroke="rgb(0,0,0)" stroke-width="1.44" />
  <line x1="135.92" y1="82.29" x2="139.19" y2="80.4" stroke="rgb(0,0,0)" stroke-width="1.44" />
  <line x1="139.61" y1="76" x2="160.39" y2="88" stroke="rgb(0,0,0)" stroke-width="1.44" />
  <line x1="140.03" y1="80.4" x2="143.3" y2="82.29" stroke="rgb(0,0,0)" stroke-width="1.44" />
  <line x1="146.57" y1="84.17" x2="148.2" y2="85.12" stroke="rgb(0,0,0)" stroke-width="1.44" />
  <line x1="148.2" y1="85.12" x2="149.83" y2="86.06" stroke="rgb(0,0,0)" stroke-width="1.44" />
  <line x1="153.1" y1="87.95" x2="156.37" y2="89.84" stroke="rgb(0,0,0)" stroke-width="1.44" />
  <line x1="160.39" y1="88" x2="181.18" y2="76" stroke="rgb(0,0,0)" stroke-width="1.44" />
  <line x1="164.41" y1="89.84" x2="167.68" y2="87.95" stroke="rgb(0,0,0)" stroke-width="1.44" />
  <line x1="170.95" y1="86.06" x2="172.58" y2="85.12" stroke="rgb(0,0,0)" stroke-width="1.44" />
  <line x1="172.58" y1="85.12" x2="174.22" y2="84.17" stroke="rgb(0,0,0)" stroke-width="1.44" />
  <line x1="177.49" y1="82.29" x2="180.76" y2="80.4" stroke="rgb(0,0,0)" stroke-width="1.44" />
  <line x1="181.18" y1="76" x2="201.96" y2="88" stroke="rgb(0,0,0)" stroke-width="1.44" />
  <line x1="181.59" y1="80.4" x2="184.86" y2="82.29" stroke="rgb(0,0,0)" stroke-width="1.44" />
  <line x1="188.13" y1="84.17" x2="189.77" y2="85.12" stroke="rgb(0,0,0)" stroke-width="1.44" />
  <line x1="189.77" y1="85.12" x2="191.4" y2="86.06" stroke="rgb(0,0,0)" stroke-width="1.44" />
  <line x1="194.67" y1="87.95" x2="197.94" y2="89.84" stroke="rgb(0,0,0)" stroke-width="1.44" />
  <line x1="201.96" y1="88" x2="201.96" y2="112" stroke="rgb(0,0,0)" stroke-width="1.44" />
  <line x1="198.36" y1="90.56" x2="198.36" y2="94.34" stroke="rgb(0,0,0)" stroke-width="1.44" />
  <line x1="198.36" y1="98.11" x2="198.36" y2="100" stroke="rgb(0,0,0)" stroke-width="1.44" />
  <line x1="198.36" y1="100" x2="198.36" y2="101.89" stroke="rgb(0,0,0)" stroke-width="1.44" />
  <line x1="198.36" y1="105.66" x2="198.36" y2="109.44" stroke="rgb(0,0,0)" stroke-width="1.44" />
  <line x1="201.96" y1="112" x2="181.18" y2="124" stroke="rgb(0,0,0)" stroke-width="1.44" />
  <line x1="197.94" y1="110.16" x2="194.67" y2="112.05" stroke="rgb(0,0,0)" stroke-width="1.44" />
  <line x1="191.4" y1="113.94" x2="189.77" y2="114.88" stroke="rgb(0,0,0)" stroke-width="1.44" />
  <line x1="189.77" y1="114.88" x2="188.13" y2="115.83" stroke="rgb(0,0,0)" stroke-width="1.44" />
  <line x1="184.86" y1="117.71" x2="181.59" y2="119.6" stroke="rgb(0,0,0)" stroke-width="1.44" />
  <line x1="181.18" y1="124" x2="160.39" y2="112" stroke="rgb(0,0,0)" stroke-width="1.44" />
  <line x1="180.76" y1="119.6" x2="177.49" y2="117.71" stroke="rgb(0,0,0)" stroke-width="1.44" />
  <line x1="174.22" y1="115.83" x2="172.58" y2="114.88" stroke="rgb(0,0,0)" stroke-width="1.44" />
  <line x1="172.58" y1="114.88" x2="170.95" y2="113.94" stroke="rgb(0,0,0)" stroke-width="1.44" />
  <line x1="167.68" y1="112.05" x2="164.41" y2="110.16" stroke="rgb(0,0,0)" stroke-width="1.44" />
  <line x1="160.39" y1="88" x2="160.39" y2="112" stroke="rgb(0,0,0)" stroke-width="1.44" />
  <line x1="156.79" y1="90.56" x2="156.79" y2="94.34" stroke="rgb(0,0,0)" stroke-width="1.44" />
  <line x1="156.79" y1="98.11" x2="156.79" y2="100" stroke="rgb(0,0,0)" stroke-width="1.44" />
  <line x1="156.79" y1="100" x2="156.79" y2="101.89" stroke="rgb(0,0,0)" stroke-width="1.44" />
  <line x1="156.79" y1="105.66" x2="156.79" y2="109.44" stroke="rgb(0,0,0)" stroke-width="1.44" />
  <line x1="160.39" y1="112" x2="139.61" y2="124" stroke="rgb(0,0,0)" stroke-width="1.44" />
  <line x1="156.37" y1="110.16" x2="153.1" y2="112.05" stroke="rgb(0,0,0)" stroke-width="1.44" />
  <line x1="149.83" y1="113.94" x2="148.2" y2="114.88" stroke="rgb(0,0,0)" stroke-width="1.44" />
  <line x1="148.2" y1="114.88" x2="146.57" y2="115.83" stroke="rgb(0,0,0)" stroke-width="1.44" />
  <line x1="143.3" y1="117.71" x2="140.03" y2="119.6" stroke="rgb(0,0,0)" stroke-width="1.44" />
  <line x1="118.82" y1="112" x2="139.61" y2="124" stroke="rgb(0,0,0)" stroke-width="1.44" />
  <line x1="122.84" y1="110.16" x2="126.11" y2="112.05" stroke="rgb(0,0,0)" stroke-width="1.44" />
  <line x1="129.38" y1="113.94" x2="131.02" y2="114.88" stroke="rgb(0,0,0)" stroke-width="1.44" />
  <line x1="131.02" y1="114.88" x2="132.65" y2="115.83" stroke="rgb(0,0,0)" stroke-width="1.44" />
  <line x1="135.92" y1="117.71" x2="139.19" y2="119.6" stroke="rgb(0,0,0)" stroke-width="1.44" />
  <line x1="106.04" y1="119.38" x2="118.82" y2="112" stroke="rgb(0,0,0)" stroke-width="1.44" />
  <line id="mol17:Bond:1" class="event" x1="118.82" y1="112" x2="118.82" y2="88" stroke-width="8" opacity="0" />
  <line id="mol17:Bond:2" class="event" x1="118.82" y1="88" x2="139.61" y2="76" stroke-width="8" opacity="0" />
  <line id="mol17:Bond:3" class="event" x1="139.61" y1="76" x2="160.39" y2="88" stroke-width="8" opacity="0" />
  <line id="mol17:Bond:4" class="event" x1="160.39" y1="88" x2="181.18" y2="76" stroke-width="8" opacity="0" />
  <line id="mol17:Bond:5" class="event" x1="181.18" y1="76" x2="201.96" y2="88" stroke-width="8" opacity="0" />
  <line id="mol17:Bond:6" class="event" x1="201.96" y1="88" x2="201.96" y2="112" stroke-width="8" opacity="0" />
  <line id="mol17:Bond:7" class="event" x1="201.96" y1="112" x2="181.18" y2="124" stroke-width="8" opacity="0" />
  <line id="mol17:Bond:8" class="event" x1="181.18" y1="124" x2="160.39" y2="112" stroke-width="8" opacity="0" />
  <line id="mol17:Bond:9" class="event" x1="160.39" y1="88" x2="160.39" y2="112" stroke-width="8" opacity="0" />
  <line id="mol17:Bond:10" class="event" x1="160.39" y1="112" x2="139.61" y2="124" stroke-width="8" opacity="0" />
  <line id="mol17:Bond:11" class="event" x1="118.82" y1="112" x2="139.61" y2="124" stroke-width="8" opacity="0" />
  <line id="mol17:Bond:0" class="event" x1="98.04" y1="124" x2="118.82" y2="112" stroke-width="8" opacity="0" />
  <circle id="mol17:Atom:0" class="event" cx="98.04" cy="124" r="8" opacity="0" />
  <circle id="mol17:Atom:1" class="event" cx="118.82" cy="112" r="8" opacity="0" />
  <circle id="mol17:Atom:2" class="event" cx="118.82" cy="88" r="8" opacity="0" />
  <circle id="mol17:Atom:3" class="event" cx="139.61" cy="76" r="8" opacity="0" />
  <circle id="mol17:Atom:4" class="event" cx="160.39" cy="88" r="8" opacity="0" />
  <circle id="mol17:Atom:5" class="event" cx="181.18" cy="76" r="8" opacity="0" />
  <circle id="mol17:Atom:6" class="event" cx="201.96" cy="88" r="8" opacity="0" />
  <circle id="mol17:Atom:7" class="event" cx="201.96" cy="112" r="8" opacity="0" />
  <circle id="mol17:Atom:8" class="event" cx="181.18" cy="124" r="8" opacity="0" />
  <circle id="mol17:Atom:9" class="event" cx="160.39" cy="112" r="8" opacity="0" />
  <circle id="mol17:Atom:10" class="event" cx="139.61" cy="124" r="8" opacity="0" />
</svg>