<svg id="mol18" xmlns="http://www.w3.org/2000/svg" version="1.1" width="94px" height="94px" viewBox="95 50 94 94">
  <style> text {font-family: sans-serif;} #mol18 { pointer-events:none; } #mol18 .event  { pointer-events:all; } line { stroke-linecap:round; } polygon { stroke-linejoin:round; } </style>
  <text x="100.71" y="158.15" stroke="none" font-size="12" fill="rgb(160,0,0)">this enantiomer</text>
  <text x="154.95" y="68.67" stroke="none" font-size="14" fill="rgb(255,13,13)">O</text>
  <text x="165.84" y="68.67" stroke="none" font-size="14" fill="rgb(255,13,13)">H</text>
  <text x="153.9" y="96" stroke="none" font-size="9" fill="rgb(160,0,0)">R</text>
  <text x="158.6" y="87.85" stroke="none" font-size="9" fill="rgb(160,0,0)">abs</text>
  <text x="133.11" y="108" stroke="none" font-size="9" fill="rgb(160,0,0)">R</text>
  <text x="132.35" y="96.7" stroke="none" font-size="9" fill="rgb(160,0,0)">abs</text>
  <text x="113.38" y="92.67" stroke="none" font-size="14" fill="rgb(255,13,13)">O</text>
  <text x="103.27" y="92.67" stroke="none" font-size="14" fill="rgb(255,13,13)">H</text>
  <line x1="160.77" y1="85.18" x2="160.02" y2="85.18" stroke="rgb(160,0,0)" stroke-width="1.44" />
  <line x1="161.14" y1="82.35" x2="159.64" y2="82.35" stroke="rgb(160,0,0)" stroke-width="1.44" />
  <line x1="161.52" y1="79.53" x2="159.27" y2="79.53" stroke="rgb(160,0,0)" stroke-width="1.44" />
  <line x1="161.89" y1="76.71" x2="158.89" y2="76.71" stroke="rgb(160,0,0)" stroke-width="1.44" />
  <line x1="162.27" y1="73.88" x2="158.52" y2="73.88" stroke="rgb(160,0,0)" stroke-width="1.44" />
  <line x1="162.64" y1="71.06" x2="158.14" y2="71.06" stroke="rgb(160,0,0)" stroke-width="1.44" />
  <line x1="160.39" y1="88" x2="181.18" y2="100" stroke="rgb(0,0,0)" stroke-width="1.44" />
  <line x1="181.18" y1="100" x2="181.18" y2="124" stroke="rgb(0,0,0)" stroke-width="1.44" />
  <line x1="181.18" y1="124" x2="160.39" y2="136" stroke="rgb(0,0,0)" stroke-width="1.44" />
  <line x1="160.39" y1="136" x2="139.61" y2="124" stroke="rgb(0,0,0)" stroke-width="1.44" />
  <line x1="139.61" y1="100" x2="139.61" y2="124" stroke="rgb(0,0,0)" stroke-width="1.44" />
  <line x1="160.39" y1="88" x2="139.61" y2="100" stroke="rgb(0,0,0)" stroke-width="1.44" />
  <polygon points="140,100 133,95 132,97 " fill="rgb(160,0,0)" stroke="rgb(160,0,0)" stroke-width="1.44" />
  <polygon points="132,97 133,95 126,90 124,93 " fill="rgb(160,0,0)" stroke="rgb(160,0,0)" stroke-width="1.44" />
  <line id="mol18:Bond:0" class="event" x1="160.39" y1="88" x2="160.39" y2="64" stroke-width="8" opacity="0" />
  <line id="mol18:Bond:1" class="event" x1="160.39" y1="88" x2="181.18" y2="100" stroke-width="8" opacity="0" />
  <line id="mol18:Bond:2" class="event" x1="181.18" y1="100" x2="181.18" y2="124" stroke-width="8" opacity="0" />
  <line id="mol18:Bond:3" class="event" x1="181.18" y1="124" x2="160.39" y2="136" stroke-width="8" opacity="0" />
  <line id="mol18:Bond:4" class="event" x1="160.39" y1="136" x2="139.61" y2="124" stroke-width="8" opacity="0" />
  <line id="mol18:Bond:5" class="event" x1="139.61" y1="100" x2="139.61" y2="124" stroke-width="8" opacity="0" />
  <line id="mol18:Bond:6" class="event" x1="160.39" y1="88" x2="139.61" y2="100" stroke-width="8" opacity="0" />
  <line id="mol18:Bond:7" class="event" x1="139.61" y1="100" x2="118.82" y2="88" stroke-width="8" opacity="0" />
  <circle id="mol18:Atom:0" class="event" cx="160.39" cy="64" r="8" opacity="0" />
  <circle id="mol18:Atom:1" class="event" cx="160.39" cy="88" r="8" opacity="0" />
  <circle id="mol18:Atom:2" class="event" cx="181.18" cy="100" r="8" opacity="0" />
  <circle id="mol18:Atom:3" class="event" cx="181.18" cy="124" r="8" opacity="0" />
  <circle id="mol18:Atom:4" class="event" cx="160.39" cy="136" r="8" opacity="0" />
  <circle id="mol18:Atom:5" class="event" cx="139.61" cy="124" r="8" opacity="0" />
  <circle id="mol18:Atom:6" class="event" cx="139.61" cy="100" r="8" opacity="0" />
  <circle id="mol18:Atom:7" class="event" cx="118.82" cy="88" r="8" opacity="0" />
</svg>