<svg id="mol19" xmlns="http://www.w3.org/2000/svg" version="1.1" width="90px" height="137px" viewBox="105 32 90 137">
  <style> text {font-family: sans-serif;} #mol19 { pointer-events:none; } #mol19 .event  { pointer-events:all; } line { stroke-linecap:round; } polygon { stroke-linejoin:round; } </style>
  <text x="134.16" y="50.67" stroke="none" font-size="14" fill="rgb(255,13,13)">O</text>
  <text x="145.05" y="50.67" stroke="none" font-size="14" fill="rgb(255,13,13)">H</text>
  <text x="175.73" y="146.67" stroke="none" font-size="14" fill="rgb(255,13,13)">O</text>
  <text x="134.55" y="146.67" stroke="none" font-size="14" fill="rgb(48,80,248)">N</text>
  <text x="154.95" y="158.67" stroke="none" font-size="14" fill="rgb(255,13,13)">O</text>
  <text x="113.38" y="158.67" stroke="none" font-size="14" fill="rgb(255,13,13)">O</text>
  <line x1="139.61" y1="70" x2="160.39" y2="82" stroke="rgb(0,0,0)" stroke-width="1.44" />
  <line x1="140.03" y1="74.4" x2="143.3" y2="76.29" stroke="rgb(0,0,0)" stroke-width="1.44" />
  <line x1="146.57" y1="78.17" x2="148.2" y2="79.12" stroke="rgb(0,0,0)" stroke-width="1.44" />
  <line x1="148.2" y1="79.12" x2="149.84" y2="80.06" stroke="rgb(0,0,0)" stroke-width="1.44" />
  <line x1="153.11" y1="81.95" x2="156.38" y2="83.84" stroke="rgb(0,0,0)" stroke-width="1.44" />
  <line x1="160.39" y1="82" x2="160.39" y2="106" stroke="rgb(0,0,0)" stroke-width="1.44" />
  <line x1="156.79" y1="84.56" x2="156.79" y2="88.34" stroke="rgb(0,0,0)" stroke-width="1.44" />
  <line x1="156.79" y1="92.11" x2="156.79" y2="94" stroke="rgb(0,0,0)" stroke-width="1.44" />
  <line x1="156.79" y1="94" x2="156.79" y2="95.89" stroke="rgb(0,0,0)" stroke-width="1.44" />
  <line x1="156.79" y1="99.66" x2="156.79" y2="103.44" stroke="rgb(0,0,0)" stroke-width="1.44" />
  <line x1="179.38" y1="120.56" x2="179.38" y2="135" stroke="rgb(0,0,0)" stroke-width="1.44" />
  <line x1="182.98" y1="118" x2="182.98" y2="135" stroke="rgb(0,0,0)" stroke-width="1.44" />
  <line x1="160.39" y1="106" x2="139.61" y2="118" stroke="rgb(0,0,0)" stroke-width="1.44" />
  <line x1="156.38" y1="104.16" x2="153.11" y2="106.05" stroke="rgb(0,0,0)" stroke-width="1.44" />
  <line x1="149.84" y1="107.94" x2="148.2" y2="108.88" stroke="rgb(0,0,0)" stroke-width="1.44" />
  <line x1="148.2" y1="108.88" x2="146.57" y2="109.83" stroke="rgb(0,0,0)" stroke-width="1.44" />
  <line x1="143.3" y1="111.71" x2="140.03" y2="113.6" stroke="rgb(0,0,0)" stroke-width="1.44" />
  <line x1="139.61" y1="118" x2="118.82" y2="106" stroke="rgb(0,0,0)" stroke-width="1.44" />
  <line x1="139.19" y1="113.6" x2="135.92" y2="111.71" stroke="rgb(0,0,0)" stroke-width="1.44" />
  <line x1="132.65" y1="109.83" x2="131.02" y2="108.88" stroke="rgb(0,0,0)" stroke-width="1.44" />
  <line x1="131.02" y1="108.88" x2="129.38" y2="107.94" stroke="rgb(0,0,0)" stroke-width="1.44" />
  <line x1="126.11" y1="106.05" x2="122.84" y2="104.16" stroke="rgb(0,0,0)" stroke-width="1.44" />
  <line x1="118.82" y1="106" x2="118.82" y2="82" stroke="rgb(0,0,0)" stroke-width="1.44" />
  <line x1="122.42" y1="103.44" x2="122.42" y2="99.66" stroke="rgb(0,0,0)" stroke-width="1.44" />
  <line x1="122.42" y1="95.89" x2="122.42" y2="94" stroke="rgb(0,0,0)" stroke-width="1.44" />
  <line x1="122.42" y1="94" x2="122.42" y2="92.11" stroke="rgb(0,0,0)" stroke-width="1.44" />
  <line x1="122.42" y1="88.34" x2="122.42" y2="84.56" stroke="rgb(0,0,0)" stroke-width="1.44" />
  <line x1="139.61" y1="70" x2="118.82" y2="82" stroke="rgb(0,0,0)" stroke-width="1.44" />
  <line x1="139.19" y1="74.4" x2="135.92" y2="76.29" stroke="rgb(0,0,0)" stroke-width="1.44" />
  <line x1="132.65" y1="78.17" x2="131.02" y2="79.12" stroke="rgb(0,0,0)" stroke-width="1.44" />
  <line x1="131.02" y1="79.12" x2="129.38" y2="80.06" stroke="rgb(0,0,0)" stroke-width="1.44" />
  <line x1="126.11" y1="81.95" x2="122.84" y2="83.84" stroke="rgb(0,0,0)" stroke-width="1.44" />
  <line x1="144.76" y1="147.05" x2="153.05" y2="151.84" stroke="rgb(0,0,0)" stroke-width="1.44" />
  <line x1="146.56" y1="143.94" x2="154.85" y2="148.72" stroke="rgb(0,0,0)" stroke-width="1.44" />
  <line x1="132.65" y1="143.94" x2="124.37" y2="148.72" stroke="rgb(0,0,0)" stroke-width="1.44" />
  <line x1="134.45" y1="147.05" x2="126.17" y2="151.84" stroke="rgb(0,0,0)" stroke-width="1.44" />
  <line x1="139.61" y1="53" x2="139.61" y2="70" stroke="rgb(0,0,0)" stroke-width="1.44" />
  <line x1="160.39" y1="106" x2="182.98" y2="118" stroke="rgb(0,0,0)" stroke-width="1.44" />
  <line x1="139.61" y1="118" x2="139.61" y2="135" stroke="rgb(0,0,0)" stroke-width="1.44" />
  <line id="mol19:Bond:1" class="event" x1="139.61" y1="70" x2="160.39" y2="82" stroke-width="8" opacity="0" />
  <line id="mol19:Bond:2" class="event" x1="160.39" y1="82" x2="160.39" y2="106" stroke-width="8" opacity="0" />
  <line id="mol19:Bond:4" class="event" x1="181.18" y1="118" x2="181.18" y2="142" stroke-width="8" opacity="0" />
  <line id="mol19:Bond:5" class="event" x1="160.39" y1="106" x2="139.61" y2="118" stroke-width="8" opacity="0" />
  <line id="mol19:Bond:6" class="event" x1="139.61" y1="118" x2="118.82" y2="106" stroke-width="8" opacity="0" />
  <line id="mol19:Bond:7" class="event" x1="118.82" y1="106" x2="118.82" y2="82" stroke-width="8" opacity="0" />
  <line id="mol19:Bond:8" class="event" x1="139.61" y1="70" x2="118.82" y2="82" stroke-width="8" opacity="0" />
  <line id="mol19:Bond:10" class="event" x1="139.61" y1="142" x2="160.39" y2="154" stroke-width="8" opacity="0" />
  <line id="mol19:Bond:11" class="event" x1="139.61" y1="142" x2="118.82" y2="154" stroke-width="8" opacity="0" />
  <line id="mol19:Bond:0" class="event" x1="139.61" y1="46" x2="139.61" y2="70" stroke-width="8" opacity="0" />
  <line id="mol19:Bond:3" class="event" x1="160.39" y1="106" x2="181.18" y2="118" stroke-width="8" opacity="0" />
  <line id="mol19:Bond:9" class="event" x1="139.61" y1="118" x2="139.61" y2="142" stroke-width="8" opacity="0" />
  <circle id="mol19:Atom:0" class="event" cx="139.61" cy="46" r="8" opacity="0" />
  <circle id="mol19:Atom:1" class="event" cx="139.61" cy="70" r="8" opacity="0" />
  <circle id="mol19:Atom:2" class="event" cx="160.39" cy="82" r="8" opacity="0" />
  <circle id="mol19:Atom:3" class="event" cx="160.39" cy="106" r="8" opacity="0" />
  <circle id="mol19:Atom:4" class="event" cx="181.18" cy="118" r="8" opacity="0" />
  <circle id="mol19:Atom:5" class="event" cx="181.18" cy="142" r="8" opacity="0" />
  <circle id="mol19:Atom:6" class="event" cx="139.61" cy="118" r="8" opacity="0" />
  <circle id="mol19:Atom:7" class="event" cx="118.82" cy="106" r="8" opacity="0" />
  <circle id="mol19:Atom:8" class="event" cx="118.82" cy="82" r="8" opacity="0" />
  <circle id="mol19:Atom:9" class="event" cx="139.61" cy="142" r="8" opacity="0" />
  <circle id="mol19:Atom:10" class="event" cx="160.39" cy="154" r="8" opacity="0" />
  <circle id="mol19:Atom:11" class="event" cx="118.82" cy="154" r="8" opacity="0" />
</svg>