<svg id="mol20" xmlns="http://www.w3.org/2000/svg" version="1.1" width="160px" height="99px" viewBox="70 51 160 99">
  <style> text {font-family: sans-serif;} #mol20 { pointer-events:none; } #mol20 .event  { pointer-events:all; } line { stroke-linecap:round; } polygon { stroke-linejoin:round; } </style>
  <text x="196.52" y="74.67" stroke="none" font-size="14" fill="rgb(255,13,13)">O</text>
  <text x="207.41" y="74.67" stroke="none" font-size="14" fill="rgb(255,13,13)">H</text>
  <text x="154.95" y="74.67" stroke="none" font-size="14" fill="rgb(255,13,13)">O</text>
  <text x="134.16" y="110.67" stroke="none" font-size="14" fill="rgb(255,13,13)">O</text>
  <line x1="201.96" y1="94" x2="222.75" y2="106" stroke="rgb(0,0,0)" stroke-width="1.44" />
  <line x1="202.38" y1="98.4" x2="205.65" y2="100.29" stroke="rgb(0,0,0)" stroke-width="1.44" />
  <line x1="208.92" y1="102.17" x2="210.55" y2="103.12" stroke="rgb(0,0,0)" stroke-width="1.44" />
  <line x1="210.55" y1="103.12" x2="212.19" y2="104.06" stroke="rgb(0,0,0)" stroke-width="1.44" />
  <line x1="215.46" y1="105.95" x2="218.73" y2="107.84" stroke="rgb(0,0,0)" stroke-width="1.44" />
  <line x1="222.75" y1="106" x2="222.75" y2="130" stroke="rgb(0,0,0)" stroke-width="1.44" />
  <line x1="219.15" y1="108.56" x2="219.15" y2="112.34" stroke="rgb(0,0,0)" stroke-width="1.44" />
  <line x1="219.15" y1="116.11" x2="219.15" y2="118" stroke="rgb(0,0,0)" stroke-width="1.44" />
  <line x1="219.15" y1="118" x2="219.15" y2="119.89" stroke="rgb(0,0,0)" stroke-width="1.44" />
  <line x1="219.15" y1="123.66" x2="219.15" y2="127.44" stroke="rgb(0,0,0)" stroke-width="1.44" />
  <line x1="222.75" y1="130" x2="201.96" y2="142" stroke="rgb(0,0,0)" stroke-width="1.44" />
  <line x1="218.73" y1="128.16" x2="215.46" y2="130.05" stroke="rgb(0,0,0)" stroke-width="1.44" />
  <line x1="212.19" y1="131.94" x2="210.55" y2="132.88" stroke="rgb(0,0,0)" stroke-width="1.44" />
  <line x1="210.55" y1="132.88" x2="208.92" y2="133.83" stroke="rgb(0,0,0)" stroke-width="1.44" />
  <line x1="205.65" y1="135.71" x2="202.38" y2="137.6" stroke="rgb(0,0,0)" stroke-width="1.44" />
  <line x1="201.96" y1="142" x2="181.18" y2="130" stroke="rgb(0,0,0)" stroke-width="1.44" />
  <line x1="201.54" y1="137.6" x2="198.27" y2="135.71" stroke="rgb(0,0,0)" stroke-width="1.44" />
  <line x1="195" y1="133.83" x2="193.37" y2="132.88" stroke="rgb(0,0,0)" stroke-width="1.44" />
  <line x1="193.37" y1="132.88" x2="191.73" y2="131.94" stroke="rgb(0,0,0)" stroke-width="1.44" />
  <line x1="188.46" y1="130.05" x2="185.19" y2="128.16" stroke="rgb(0,0,0)" stroke-width="1.44" />
  <line x1="181.18" y1="130" x2="181.18" y2="106" stroke="rgb(0,0,0)" stroke-width="1.44" />
  <line x1="184.78" y1="127.44" x2="184.78" y2="123.66" stroke="rgb(0,0,0)" stroke-width="1.44" />
  <line x1="184.78" y1="119.89" x2="184.78" y2="118" stroke="rgb(0,0,0)" stroke-width="1.44" />
  <line x1="184.78" y1="118" x2="184.78" y2="116.11" stroke="rgb(0,0,0)" stroke-width="1.44" />
  <line x1="184.78" y1="112.34" x2="184.78" y2="108.56" stroke="rgb(0,0,0)" stroke-width="1.44" />
  <line x1="201.96" y1="94" x2="181.18" y2="106" stroke="rgb(0,0,0)" stroke-width="1.44" />
  <line x1="201.54" y1="98.4" x2="198.27" y2="100.29" stroke="rgb(0,0,0)" stroke-width="1.44" />
  <line x1="195" y1="102.17" x2="193.37" y2="103.12" stroke="rgb(0,0,0)" stroke-width="1.44" />
  <line x1="193.37" y1="103.12" x2="191.73" y2="104.06" stroke="rgb(0,0,0)" stroke-width="1.44" />
  <line x1="188.46" y1="105.95" x2="185.19" y2="107.84" stroke="rgb(0,0,0)" stroke-width="1.44" />
  <line x1="162.19" y1="95.04" x2="162.19" y2="77" stroke="rgb(0,0,0)" stroke-width="1.44" />
  <line x1="158.59" y1="95.04" x2="158.59" y2="77" stroke="rgb(0,0,0)" stroke-width="1.44" />
  <line x1="118.82" y1="94" x2="98.04" y2="106" stroke="rgb(0,0,0)" stroke-width="1.44" />
  <line x1="114.81" y1="92.16" x2="111.54" y2="94.05" stroke="rgb(0,0,0)" stroke-width="1.44" />
  <line x1="108.27" y1="95.94" x2="106.63" y2="96.88" stroke="rgb(0,0,0)" stroke-width="1.44" />
  <line x1="106.63" y1="96.88" x2="105" y2="97.83" stroke="rgb(0,0,0)" stroke-width="1.44" />
  <line x1="101.73" y1="99.71" x2="98.46" y2="101.6" stroke="rgb(0,0,0)" stroke-width="1.44" />
  <line x1="98.04" y1="106" x2="77.25" y2="94" stroke="rgb(0,0,0)" stroke-width="1.44" />
  <line x1="97.62" y1="101.6" x2="94.35" y2="99.71" stroke="rgb(0,0,0)" stroke-width="1.44" />
  <line x1="91.08" y1="97.83" x2="89.45" y2="96.88" stroke="rgb(0,0,0)" stroke-width="1.44" />
  <line x1="89.45" y1="96.88" x2="87.81" y2="95.94" stroke="rgb(0,0,0)" stroke-width="1.44" />
  <line x1="84.54" y1="94.05" x2="81.27" y2="92.16" stroke="rgb(0,0,0)" stroke-width="1.44" />
  <line x1="77.25" y1="94" x2="77.25" y2="70" stroke="rgb(0,0,0)" stroke-width="1.44" />
  <line x1="80.85" y1="91.44" x2="80.85" y2="87.66" stroke="rgb(0,0,0)" stroke-width="1.44" />
  <line x1="80.85" y1="83.89" x2="80.85" y2="82" stroke="rgb(0,0,0)" stroke-width="1.44" />
  <line x1="80.85" y1="82" x2="80.85" y2="80.11" stroke="rgb(0,0,0)" stroke-width="1.44" />
  <line x1="80.85" y1="76.34" x2="80.85" y2="72.56" stroke="rgb(0,0,0)" stroke-width="1.44" />
  <line x1="77.25" y1="70" x2="98.04" y2="58" stroke="rgb(0,0,0)" stroke-width="1.44" />
  <line x1="81.27" y1="71.84" x2="84.54" y2="69.95" stroke="rgb(0,0,0)" stroke-width="1.44" />
  <line x1="87.81" y1="68.06" x2="89.45" y2="67.12" stroke="rgb(0,0,0)" stroke-width="1.44" />
  <line x1="89.45" y1="67.12" x2="91.08" y2="66.17" stroke="rgb(0,0,0)" stroke-width="1.44" />
  <line x1="94.35" y1="64.29" x2="97.62" y2="62.4" stroke="rgb(0,0,0)" stroke-width="1.44" />
  <line x1="98.04" y1="58" x2="118.82" y2="70" stroke="rgb(0,0,0)" stroke-width="1.44" />
  <line x1="98.46" y1="62.4" x2="101.73" y2="64.29" stroke="rgb(0,0,0)" stroke-width="1.44" />
  <line x1="105" y1="66.17" x2="106.63" y2="67.12" stroke="rgb(0,0,0)" stroke-width="1.44" />
  <line x1="106.63" y1="67.12" x2="108.27" y2="68.06" stroke="rgb(0,0,0)" stroke-width="1.44" />
  <line x1="111.54" y1="69.95" x2="114.81" y2="71.84" stroke="rgb(0,0,0)" stroke-width="1.44" />
  <line x1="118.82" y1="94" x2="118.82" y2="70" stroke="rgb(0,0,0)" stroke-width="1.44" />
  <line x1="115.22" y1="91.44" x2="115.22" y2="87.66" stroke="rgb(0,0,0)" stroke-width="1.44" />
  <line x1="115.22" y1="83.89" x2="115.22" y2="82" stroke="rgb(0,0,0)" stroke-width="1.44" />
  <line x1="115.22" y1="82" x2="115.22" y2="80.11" stroke="rgb(0,0,0)" stroke-width="1.44" />
  <line x1="115.22" y1="76.34" x2="115.22" y2="72.56" stroke="rgb(0,0,0)" stroke-width="1.44" />
  <line x1="201.96" y1="77" x2="201.96" y2="94" stroke="rgb(0,0,0)" stroke-width="1.44" />
  <line x1="181.18" y1="106" x2="160.39" y2="94" stroke="rgb(0,0,0)" stroke-width="1.44" />
  <line x1="160.39" y1="94" x2="146.05" y2="102.28" stroke="rgb(0,0,0)" stroke-width="1.44" />
  <line x1="133.16" y1="102.28" x2="118.82" y2="94" stroke="rgb(0,0,0)" stroke-width="1.44" />
  <line id="mol20:Bond:1" class="event" x1="201.96" y1="94" x2="222.75" y2="106" stroke-width="8" opacity="0" />
  <line id="mol20:Bond:2" class="event" x1="222.75" y1="106" x2="222.75" y2="130" stroke-width="8" opacity="0" />
  <line id="mol20:Bond:3" class="event" x1="222.75" y1="130" x2="201.96" y2="142" stroke-width="8" opacity="0" />
  <line id="mol20:Bond:4" class="event" x1="201.96" y1="142" x2="181.18" y2="130" stroke-width="8" opacity="0" />
  <line id="mol20:Bond:5" class="event" x1="181.18" y1="130" x2="181.18" y2="106" stroke-width="8" opacity="0" />
  <line id="mol20:Bond:6" class="event" x1="201.96" y1="94" x2="181.18" y2="106" stroke-width="8" opacity="0" />
  <line id="mol20:Bond:8" class="event" x1="160.39" y1="94" x2="160.39" y2="70" stroke-width="8" opacity="0" />
  <line id="mol20:Bond:11" class="event" x1="118.82" y1="94" x2="98.04" y2="106" stroke-width="8" opacity="0" />
  <line id="mol20:Bond:12" class="event" x1="98.04" y1="106" x2="77.25" y2="94" stroke-width="8" opacity="0" />
  <line id="mol20:Bond:13" class="event" x1="77.25" y1="94" x2="77.25" y2="70" stroke-width="8" opacity="0" />
  <line id="mol20:Bond:14" class="event" x1="77.25" y1="70" x2="98.04" y2="58" stroke-width="8" opacity="0" />
  <line id="mol20:Bond:15" class="event" x1="98.04" y1="58" x2="118.82" y2="70" stroke-width="8" opacity="0" />
  <line id="mol20:Bond:16" class="event" x1="118.82" y1="94" x2="118.82" y2="70" stroke-width="8" opacity="0" />
  <line id="mol20:Bond:0" class="event" x1="201.96" y1="70" x2="201.96" y2="94" stroke-width="8" opacity="0" />
  <line id="mol20:Bond:7" class="event" x1="181.18" y1="106" x2="160.39" y2="94" stroke-width="8" opacity="0" />
  <line id="mol20:Bond:9" class="event" x1="160.39" y1="94" x2="139.61" y2="106" stroke-width="8" opacity="0" />
  <line id="mol20:Bond:10" class="event" x1="139.61" y1="106" x2="118.82" y2="94" stroke-width="8" opacity="0" />
  <circle id="mol20:Atom:0" class="event" cx="201.96" cy="70" r="8" opacity="0" />
  <circle id="mol20:Atom:1" class="event" cx="201.96" cy="94" r="8" opacity="0" />
  <circle id="mol20:Atom:2" class="event" cx="222.75" cy="106" r="8" opacity="0" />
  <circle id="mol20:Atom:3" class="event" cx="222.75" cy="130" r="8" opacity="0" />
  <circle id="mol20:Atom:4" class="event" cx="201.96" cy="142" r="8" opacity="0" />
  <circle id="mol20:Atom:5" class="event" cx="181.18" cy="130" r="8" opacity="0" />
  <circle id="mol20:Atom:6" class="event" cx="181.18" cy="106" r="8" opacity="0" />
  <circle id="mol20:Atom:7" class="event" cx="160.39" cy="94" r="8" opacity="0" />
  <circle id="mol20:Atom:8" class="event" cx="160.39" cy="70" r="8" opacity="0" />
  <circle id="mol20:Atom:9" class="event" cx="139.61" cy="106" r="8" opacity="0" />
  <circle id="mol20:Atom:10" class="event" cx="118.82" cy="94" r="8" opacity="0" />
  <circle id="mol20:Atom:11" class="event" cx="98.04" cy="106" r="8" opacity="0" />
  <circle id="mol20:Atom:12" class="event" cx="77.25" cy="94" r="8" opacity="0" />
  <circle id="mol20:Atom:13" class="event" cx="77.25" cy="70" r="8" opacity="0" />
  <circle id="mol20:Atom:14" class="event" cx="98.04" cy="58" r="8" opacity="0" />
  <circle id="mol20:Atom:15" class="event" cx="118.82" cy="70" r="8" opacity="0" />
</svg>