<svg id="mol21" xmlns="http://www.w3.org/2000/svg" version="1.1" width="104px" height="94px" viewBox="95 50 104 94">
  <style> text {font-family: sans-serif;} #mol21 { pointer-events:none; } #mol21 .event  { pointer-events:all; } line { stroke-linecap:round; } polygon { stroke-linejoin:round; } </style>
  <text x="165.34" y="68.67" stroke="none" font-size="14" fill="rgb(255,13,13)">O</text>
  <text x="176.23" y="68.67" stroke="none" font-size="14" fill="rgb(255,13,13)">H</text>
  <text x="102.98" y="104.67" stroke="none" font-size="14" fill="rgb(255,13,13)">O</text>
  <line x1="170.78" y1="88" x2="191.57" y2="100" stroke="rgb(0,0,0)" stroke-width="1.44" />
  <line x1="171.2" y1="92.4" x2="174.47" y2="94.29" stroke="rgb(0,0,0)" stroke-width="1.44" />
  <line x1="177.74" y1="96.17" x2="179.38" y2="97.12" stroke="rgb(0,0,0)" stroke-width="1.44" />
  <line x1="179.38" y1="97.12" x2="181.01" y2="98.06" stroke="rgb(0,0,0)" stroke-width="1.44" />
  <line x1="184.28" y1="99.95" x2="187.55" y2="101.84" stroke="rgb(0,0,0)" stroke-width="1.44" />
  <line x1="191.57" y1="100" x2="191.57" y2="124" stroke="rgb(0,0,0)" stroke-width="1.44" />
  <line x1="187.97" y1="102.56" x2="187.97" y2="106.34" stroke="rgb(0,0,0)" stroke-width="1.44" />
  <line x1="187.97" y1="110.11" x2="187.97" y2="112" stroke="rgb(0,0,0)" stroke-width="1.44" />
  <line x1="187.97" y1="112" x2="187.97" y2="113.89" stroke="rgb(0,0,0)" stroke-width="1.44" />
  <line x1="187.97" y1="117.66" x2="187.97" y2="121.44" stroke="rgb(0,0,0)" stroke-width="1.44" />
  <line x1="191.57" y1="124" x2="170.78" y2="136" stroke="rgb(0,0,0)" stroke-width="1.44" />
  <line x1="187.55" y1="122.16" x2="184.28" y2="124.05" stroke="rgb(0,0,0)" stroke-width="1.44" />
  <line x1="181.01" y1="125.94" x2="179.38" y2="126.88" stroke="rgb(0,0,0)" stroke-width="1.44" />
  <line x1="179.38" y1="126.88" x2="177.74" y2="127.83" stroke="rgb(0,0,0)" stroke-width="1.44" />
  <line x1="174.47" y1="129.71" x2="171.2" y2="131.6" stroke="rgb(0,0,0)" stroke-width="1.44" />
  <line x1="170.78" y1="136" x2="150" y2="124" stroke="rgb(0,0,0)" stroke-width="1.44" />
  <line x1="170.37" y1="131.6" x2="167.1" y2="129.71" stroke="rgb(0,0,0)" stroke-width="1.44" />
  <line x1="163.83" y1="127.83" x2="162.19" y2="126.88" stroke="rgb(0,0,0)" stroke-width="1.44" />
  <line x1="162.19" y1="126.88" x2="160.56" y2="125.94" stroke="rgb(0,0,0)" stroke-width="1.44" />
  <line x1="157.29" y1="124.05" x2="154.02" y2="122.16" stroke="rgb(0,0,0)" stroke-width="1.44" />
  <line x1="150" y1="124" x2="150" y2="100" stroke="rgb(0,0,0)" stroke-width="1.44" />
  <line x1="153.6" y1="121.44" x2="153.6" y2="117.66" stroke="rgb(0,0,0)" stroke-width="1.44" />
  <line x1="153.6" y1="113.89" x2="153.6" y2="112" stroke="rgb(0,0,0)" stroke-width="1.44" />
  <line x1="153.6" y1="112" x2="153.6" y2="110.11" stroke="rgb(0,0,0)" stroke-width="1.44" />
  <line x1="153.6" y1="106.34" x2="153.6" y2="102.56" stroke="rgb(0,0,0)" stroke-width="1.44" />
  <line x1="170.78" y1="88" x2="150" y2="100" stroke="rgb(0,0,0)" stroke-width="1.44" />
  <line x1="170.37" y1="92.4" x2="167.1" y2="94.29" stroke="rgb(0,0,0)" stroke-width="1.44" />
  <line x1="163.83" y1="96.17" x2="162.19" y2="97.12" stroke="rgb(0,0,0)" stroke-width="1.44" />
  <line x1="162.19" y1="97.12" x2="160.56" y2="98.06" stroke="rgb(0,0,0)" stroke-width="1.44" />
  <line x1="157.29" y1="99.95" x2="154.02" y2="101.84" stroke="rgb(0,0,0)" stroke-width="1.44" />
  <line x1="128.32" y1="86.44" x2="113.98" y2="94.72" stroke="rgb(0,0,0)" stroke-width="1.44" />
  <line x1="127.9" y1="90.84" x2="115.78" y2="97.84" stroke="rgb(0,0,0)" stroke-width="1.44" />
  <line x1="170.78" y1="71" x2="170.78" y2="88" stroke="rgb(0,0,0)" stroke-width="1.44" />
  <line x1="150" y1="100" x2="128.32" y2="86.44" stroke="rgb(0,0,0)" stroke-width="1.44" />
  <line id="mol21:Bond:1" class="event" x1="170.78" y1="88" x2="191.57" y2="100" stroke-width="8" opacity="0" />
  <line id="mol21:Bond:2" class="event" x1="191.57" y1="100" x2="191.57" y2="124" stroke-width="8" opacity="0" />
  <line id="mol21:Bond:3" class="event" x1="191.57" y1="124" x2="170.78" y2="136" stroke-width="8" opacity="0" />
  <line id="mol21:Bond:4" class="event" x1="170.78" y1="136" x2="150" y2="124" stroke-width="8" opacity="0" />
  <line id="mol21:Bond:5" class="event" x1="150" y1="124" x2="150" y2="100" stroke-width="8" opacity="0" />
  <line id="mol21:Bond:6" class="event" x1="170.78" y1="88" x2="150" y2="100" stroke-width="8" opacity="0" />
  <line id="mol21:Bond:8" class="event" x1="129.22" y1="88" x2="108.43" y2="100" stroke-width="8" opacity="0" />
  <line id="mol21:Bond:0" class="event" x1="170.78" y1="64" x2="170.78" y2="88" stroke-width="8" opacity="0" />
  <line id="mol21:Bond:7" class="event" x1="150" y1="100" x2="129.22" y2="88" stroke-width="8" opacity="0" />
  <circle id="mol21:Atom:0" class="event" cx="170.78" cy="64" r="8" opacity="0" />
  <circle id="mol21:Atom:1" class="event" cx="170.78" cy="88" r="8" opacity="0" />
  <circle id="mol21:Atom:2" class="event" cx="191.57" cy="100" r="8" opacity="0" />
  <circle id="mol21:Atom:3" class="event" cx="191.57" cy="124" r="8" opacity="0" />
  <circle id="mol21:Atom:4" class="event" cx="170.78" cy="136" r="8" opacity="0" />
  <circle id="mol21:Atom:5" class="event" cx="150" cy="124" r="8" opacity="0" />
  <circle id="mol21:Atom:6" class="event" cx="150" cy="100" r="8" opacity="0" />
  <circle id="mol21:Atom:7" class="event" cx="129.22" cy="88" r="8" opacity="0" />
  <circle id="mol21:Atom:8" class="event" cx="108.43" cy="100" r="8" opacity="0" />
</svg>