<svg id="mol22" xmlns="http://www.w3.org/2000/svg" version="1.1" width="84px" height="166px" viewBox="105 21 84 166">
  <style> text {font-family: sans-serif;} #mol22 { pointer-events:none; } #mol22 .event  { pointer-events:all; } line { stroke-linecap:round; } polygon { stroke-linejoin:round; } </style>
  <text x="154.95" y="44.67" stroke="none" font-size="14" fill="rgb(255,13,13)">O</text>
  <text x="134.16" y="176.67" stroke="none" font-size="14" fill="rgb(255,13,13)">O</text>
  <text x="145.05" y="176.67" stroke="none" font-size="14" fill="rgb(255,13,13)">H</text>
  <text x="113.38" y="140.67" stroke="none" font-size="14" fill="rgb(255,13,13)">O</text>
  <line x1="160.39" y1="64" x2="181.18" y2="76" stroke="rgb(0,0,0)" stroke-width="1.44" />
  <line x1="160.81" y1="68.4" x2="164.08" y2="70.29" stroke="rgb(0,0,0)" stroke-width="1.44" />
  <line x1="167.35" y1="72.17" x2="168.98" y2="73.12" stroke="rgb(0,0,0)" stroke-width="1.44" />
  <line x1="168.98" y1="73.12" x2="170.62" y2="74.06" stroke="rgb(0,0,0)" stroke-width="1.44" />
  <line x1="173.89" y1="75.95" x2="177.16" y2="77.84" stroke="rgb(0,0,0)" stroke-width="1.44" />
  <line x1="181.18" y1="76" x2="181.18" y2="100" stroke="rgb(0,0,0)" stroke-width="1.44" />
  <line x1="177.58" y1="78.56" x2="177.58" y2="82.34" stroke="rgb(0,0,0)" stroke-width="1.44" />
  <line x1="177.58" y1="86.11" x2="177.58" y2="88" stroke="rgb(0,0,0)" stroke-width="1.44" />
  <line x1="177.58" y1="88" x2="177.58" y2="89.89" stroke="rgb(0,0,0)" stroke-width="1.44" />
  <line x1="177.58" y1="93.66" x2="177.58" y2="97.44" stroke="rgb(0,0,0)" stroke-width="1.44" />
  <line x1="181.18" y1="100" x2="160.39" y2="112" stroke="rgb(0,0,0)" stroke-width="1.44" />
  <line x1="177.16" y1="98.16" x2="173.89" y2="100.05" stroke="rgb(0,0,0)" stroke-width="1.44" />
  <line x1="170.62" y1="101.94" x2="168.98" y2="102.88" stroke="rgb(0,0,0)" stroke-width="1.44" />
  <line x1="168.98" y1="102.88" x2="167.35" y2="103.83" stroke="rgb(0,0,0)" stroke-width="1.44" />
  <line x1="164.08" y1="105.71" x2="160.81" y2="107.6" stroke="rgb(0,0,0)" stroke-width="1.44" />
  <line x1="141.41" y1="146.96" x2="126.17" y2="138.16" stroke="rgb(0,0,0)" stroke-width="1.44" />
  <line x1="139.61" y1="150.08" x2="124.37" y2="141.28" stroke="rgb(0,0,0)" stroke-width="1.44" />
  <line x1="160.39" y1="112" x2="139.61" y2="100" stroke="rgb(0,0,0)" stroke-width="1.44" />
  <line x1="159.98" y1="107.6" x2="156.71" y2="105.71" stroke="rgb(0,0,0)" stroke-width="1.44" />
  <line x1="153.44" y1="103.83" x2="151.8" y2="102.88" stroke="rgb(0,0,0)" stroke-width="1.44" />
  <line x1="151.8" y1="102.88" x2="150.17" y2="101.94" stroke="rgb(0,0,0)" stroke-width="1.44" />
  <line x1="146.9" y1="100.05" x2="143.63" y2="98.16" stroke="rgb(0,0,0)" stroke-width="1.44" />
  <line x1="139.61" y1="100" x2="139.61" y2="76" stroke="rgb(0,0,0)" stroke-width="1.44" />
  <line x1="143.21" y1="97.44" x2="143.21" y2="93.66" stroke="rgb(0,0,0)" stroke-width="1.44" />
  <line x1="143.21" y1="89.89" x2="143.21" y2="88" stroke="rgb(0,0,0)" stroke-width="1.44" />
  <line x1="143.21" y1="88" x2="143.21" y2="86.11" stroke="rgb(0,0,0)" stroke-width="1.44" />
  <line x1="143.21" y1="82.34" x2="143.21" y2="78.56" stroke="rgb(0,0,0)" stroke-width="1.44" />
  <line x1="160.39" y1="64" x2="139.61" y2="76" stroke="rgb(0,0,0)" stroke-width="1.44" />
  <line x1="159.98" y1="68.4" x2="156.71" y2="70.29" stroke="rgb(0,0,0)" stroke-width="1.44" />
  <line x1="153.44" y1="72.17" x2="151.8" y2="73.12" stroke="rgb(0,0,0)" stroke-width="1.44" />
  <line x1="151.8" y1="73.12" x2="150.17" y2="74.06" stroke="rgb(0,0,0)" stroke-width="1.44" />
  <line x1="146.9" y1="75.95" x2="143.63" y2="77.84" stroke="rgb(0,0,0)" stroke-width="1.44" />
  <line x1="139.61" y1="28" x2="153.95" y2="36.28" stroke="rgb(0,0,0)" stroke-width="1.44" />
  <line x1="160.39" y1="47" x2="160.39" y2="64" stroke="rgb(0,0,0)" stroke-width="1.44" />
  <line x1="160.39" y1="112" x2="160.39" y2="136" stroke="rgb(0,0,0)" stroke-width="1.44" />
  <line x1="160.39" y1="136" x2="139.61" y2="148" stroke="rgb(0,0,0)" stroke-width="1.44" />
  <line x1="139.61" y1="148" x2="139.61" y2="165" stroke="rgb(0,0,0)" stroke-width="1.44" />
  <line id="mol22:Bond:2" class="event" x1="160.39" y1="64" x2="181.18" y2="76" stroke-width="8" opacity="0" />
  <line id="mol22:Bond:3" class="event" x1="181.18" y1="76" x2="181.18" y2="100" stroke-width="8" opacity="0" />
  <line id="mol22:Bond:4" class="event" x1="181.18" y1="100" x2="160.39" y2="112" stroke-width="8" opacity="0" />
  <line id="mol22:Bond:8" class="event" x1="139.61" y1="148" x2="118.82" y2="136" stroke-width="8" opacity="0" />
  <line id="mol22:Bond:9" class="event" x1="160.39" y1="112" x2="139.61" y2="100" stroke-width="8" opacity="0" />
  <line id="mol22:Bond:10" class="event" x1="139.61" y1="100" x2="139.61" y2="76" stroke-width="8" opacity="0" />
  <line id="mol22:Bond:11" class="event" x1="160.39" y1="64" x2="139.61" y2="76" stroke-width="8" opacity="0" />
  <line id="mol22:Bond:0" class="event" x1="139.61" y1="28" x2="160.39" y2="40" stroke-width="8" opacity="0" />
  <line id="mol22:Bond:1" class="event" x1="160.39" y1="40" x2="160.39" y2="64" stroke-width="8" opacity="0" />
  <line id="mol22:Bond:5" class="event" x1="160.39" y1="112" x2="160.39" y2="136" stroke-width="8" opacity="0" />
  <line id="mol22:Bond:6" class="event" x1="160.39" y1="136" x2="139.61" y2="148" stroke-width="8" opacity="0" />
  <line id="mol22:Bond:7" class="event" x1="139.61" y1="148" x2="139.61" y2="172" stroke-width="8" opacity="0" />
  <circle id="mol22:Atom:0" class="event" cx="139.61" cy="28" r="8" opacity="0" />
  <circle id="mol22:Atom:1" class="event" cx="160.39" cy="40" r="8" opacity="0" />
  <circle id="mol22:Atom:2" class="event" cx="160.39" cy="64" r="8" opacity="0" />
  <circle id="mol22:Atom:3" class="event" cx="181.18" cy="76" r="8" opacity="0" />
  <circle id="mol22:Atom:4" class="event" cx="181.18" cy="100" r="8" opacity="0" />
  <circle id="mol22:Atom:5" class="event" cx="160.39" cy="112" r="8" opacity="0" />
  <circle id="mol22:Atom:6" class="event" cx="160.39" cy="136" r="8" opacity="0" />
  <circle id="mol22:Atom:7" class="event" cx="139.61" cy="148" r="8" opacity="0" />
  <circle id="mol22:Atom:8" class="event" cx="139.61" cy="172" r="8" opacity="0" />
  <circle id="mol22:Atom:9" class="event" cx="118.82" cy="136" r="8" opacity="0" />
  <circle id="mol22:Atom:10" class="event" cx="139.61" cy="100" r="8" opacity="0" />
  <circle id="mol22:Atom:11" class="event" cx="139.61" cy="76" r="8" opacity="0" />
</svg>