<svg id="mol23" xmlns="http://www.w3.org/2000/svg" version="1.1" width="90px" height="185px" viewBox="105 8 90 185">
  <style> text {font-family: sans-serif;} #mol23 { pointer-events:none; } #mol23 .event  { pointer-events:all; } line { stroke-linecap:round; } polygon { stroke-linejoin:round; } </style>
  <text x="113.38" y="26.67" stroke="none" font-size="14" fill="rgb(255,13,13)">O</text>
  <text x="154.95" y="26.67" stroke="none" font-size="14" fill="rgb(255,13,13)">O</text>
  <text x="165.84" y="26.67" stroke="none" font-size="14" fill="rgb(255,13,13)">H</text>
  <text x="155.34" y="170.67" stroke="none" font-size="14" fill="rgb(48,80,248)">N</text>
  <text x="175.73" y="182.67" stroke="none" font-size="14" fill="rgb(255,13,13)">O</text>
  <text x="134.16" y="182.67" stroke="none" font-size="14" fill="rgb(255,13,13)">O</text>
  <line x1="141.41" y1="32.96" x2="126.17" y2="24.16" stroke="rgb(0,0,0)" stroke-width="1.44" />
  <line x1="139.61" y1="36.08" x2="124.37" y2="27.28" stroke="rgb(0,0,0)" stroke-width="1.44" />
  <line x1="139.61" y1="58" x2="160.39" y2="70" stroke="rgb(0,0,0)" stroke-width="1.44" />
  <line x1="143.63" y1="56.16" x2="161.78" y2="66.64" stroke="rgb(0,0,0)" stroke-width="1.44" />
  <line x1="160.39" y1="94" x2="181.18" y2="106" stroke="rgb(0,0,0)" stroke-width="1.44" />
  <line x1="160.81" y1="98.4" x2="164.08" y2="100.29" stroke="rgb(0,0,0)" stroke-width="1.44" />
  <line x1="167.35" y1="102.17" x2="168.98" y2="103.12" stroke="rgb(0,0,0)" stroke-width="1.44" />
  <line x1="168.98" y1="103.12" x2="170.62" y2="104.06" stroke="rgb(0,0,0)" stroke-width="1.44" />
  <line x1="173.89" y1="105.95" x2="177.16" y2="107.84" stroke="rgb(0,0,0)" stroke-width="1.44" />
  <line x1="181.18" y1="106" x2="181.18" y2="130" stroke="rgb(0,0,0)" stroke-width="1.44" />
  <line x1="177.58" y1="108.56" x2="177.58" y2="112.34" stroke="rgb(0,0,0)" stroke-width="1.44" />
  <line x1="177.58" y1="116.11" x2="177.58" y2="118" stroke="rgb(0,0,0)" stroke-width="1.44" />
  <line x1="177.58" y1="118" x2="177.58" y2="119.89" stroke="rgb(0,0,0)" stroke-width="1.44" />
  <line x1="177.58" y1="123.66" x2="177.58" y2="127.44" stroke="rgb(0,0,0)" stroke-width="1.44" />
  <line x1="181.18" y1="130" x2="160.39" y2="142" stroke="rgb(0,0,0)" stroke-width="1.44" />
  <line x1="177.16" y1="128.16" x2="173.89" y2="130.05" stroke="rgb(0,0,0)" stroke-width="1.44" />
  <line x1="170.62" y1="131.94" x2="168.98" y2="132.88" stroke="rgb(0,0,0)" stroke-width="1.44" />
  <line x1="168.98" y1="132.88" x2="167.35" y2="133.83" stroke="rgb(0,0,0)" stroke-width="1.44" />
  <line x1="164.08" y1="135.71" x2="160.81" y2="137.6" stroke="rgb(0,0,0)" stroke-width="1.44" />
  <line x1="165.55" y1="171.05" x2="173.83" y2="175.84" stroke="rgb(0,0,0)" stroke-width="1.44" />
  <line x1="167.35" y1="167.94" x2="175.63" y2="172.72" stroke="rgb(0,0,0)" stroke-width="1.44" />
  <line x1="153.44" y1="167.94" x2="145.15" y2="172.72" stroke="rgb(0,0,0)" stroke-width="1.44" />
  <line x1="155.24" y1="171.05" x2="146.95" y2="175.84" stroke="rgb(0,0,0)" stroke-width="1.44" />
  <line x1="160.39" y1="142" x2="139.61" y2="130" stroke="rgb(0,0,0)" stroke-width="1.44" />
  <line x1="159.98" y1="137.6" x2="156.71" y2="135.71" stroke="rgb(0,0,0)" stroke-width="1.44" />
  <line x1="153.44" y1="133.83" x2="151.8" y2="132.88" stroke="rgb(0,0,0)" stroke-width="1.44" />
  <line x1="151.8" y1="132.88" x2="150.17" y2="131.94" stroke="rgb(0,0,0)" stroke-width="1.44" />
  <line x1="146.9" y1="130.05" x2="143.63" y2="128.16" stroke="rgb(0,0,0)" stroke-width="1.44" />
  <line x1="139.61" y1="130" x2="139.61" y2="106" stroke="rgb(0,0,0)" stroke-width="1.44" />
  <line x1="143.21" y1="127.44" x2="143.21" y2="123.66" stroke="rgb(0,0,0)" stroke-width="1.44" />
  <line x1="143.21" y1="119.89" x2="143.21" y2="118" stroke="rgb(0,0,0)" stroke-width="1.44" />
  <line x1="143.21" y1="118" x2="143.21" y2="116.11" stroke="rgb(0,0,0)" stroke-width="1.44" />
  <line x1="143.21" y1="112.34" x2="143.21" y2="108.56" stroke="rgb(0,0,0)" stroke-width="1.44" />
  <line x1="160.39" y1="94" x2="139.61" y2="106" stroke="rgb(0,0,0)" stroke-width="1.44" />
  <line x1="159.98" y1="98.4" x2="156.71" y2="100.29" stroke="rgb(0,0,0)" stroke-width="1.44" />
  <line x1="153.44" y1="102.17" x2="151.8" y2="103.12" stroke="rgb(0,0,0)" stroke-width="1.44" />
  <line x1="151.8" y1="103.12" x2="150.17" y2="104.06" stroke="rgb(0,0,0)" stroke-width="1.44" />
  <line x1="146.9" y1="105.95" x2="143.63" y2="107.84" stroke="rgb(0,0,0)" stroke-width="1.44" />
  <line x1="139.61" y1="34" x2="153.95" y2="25.72" stroke="rgb(0,0,0)" stroke-width="1.44" />
  <line x1="139.61" y1="58" x2="139.61" y2="34" stroke="rgb(0,0,0)" stroke-width="1.44" />
  <line x1="160.39" y1="70" x2="160.39" y2="94" stroke="rgb(0,0,0)" stroke-width="1.44" />
  <line x1="160.39" y1="142" x2="160.39" y2="159" stroke="rgb(0,0,0)" stroke-width="1.44" />
  <text x="143" y="73.93" stroke="none" font-size="9" fill="rgb(160,0,0)">E</text>
  <line id="mol23:Bond:0" class="event" x1="118.82" y1="22" x2="139.61" y2="34" stroke-width="8" opacity="0" />
  <line id="mol23:Bond:3" class="event" x1="139.61" y1="58" x2="160.39" y2="70" stroke-width="8" opacity="0" />
  <line id="mol23:Bond:5" class="event" x1="160.39" y1="94" x2="181.18" y2="106" stroke-width="8" opacity="0" />
  <line id="mol23:Bond:6" class="event" x1="181.18" y1="106" x2="181.18" y2="130" stroke-width="8" opacity="0" />
  <line id="mol23:Bond:7" class="event" x1="181.18" y1="130" x2="160.39" y2="142" stroke-width="8" opacity="0" />
  <line id="mol23:Bond:9" class="event" x1="160.39" y1="166" x2="181.18" y2="178" stroke-width="8" opacity="0" />
  <line id="mol23:Bond:10" class="event" x1="160.39" y1="166" x2="139.61" y2="178" stroke-width="8" opacity="0" />
  <line id="mol23:Bond:11" class="event" x1="160.39" y1="142" x2="139.61" y2="130" stroke-width="8" opacity="0" />
  <line id="mol23:Bond:12" class="event" x1="139.61" y1="130" x2="139.61" y2="106" stroke-width="8" opacity="0" />
  <line id="mol23:Bond:13" class="event" x1="160.39" y1="94" x2="139.61" y2="106" stroke-width="8" opacity="0" />
  <line id="mol23:Bond:1" class="event" x1="139.61" y1="34" x2="160.39" y2="22" stroke-width="8" opacity="0" />
  <line id="mol23:Bond:2" class="event" x1="139.61" y1="58" x2="139.61" y2="34" stroke-width="8" opacity="0" />
  <line id="mol23:Bond:4" class="event" x1="160.39" y1="70" x2="160.39" y2="94" stroke-width="8" opacity="0" />
  <line id="mol23:Bond:8" class="event" x1="160.39" y1="142" x2="160.39" y2="166" stroke-width="8" opacity="0" />
  <circle id="mol23:Atom:0" class="event" cx="118.82" cy="22" r="8" opacity="0" />
  <circle id="mol23:Atom:1" class="event" cx="139.61" cy="34" r="8" opacity="0" />
  <circle id="mol23:Atom:2" class="event" cx="160.39" cy="22" r="8" opacity="0" />
  <circle id="mol23:Atom:3" class="event" cx="139.61" cy="58" r="8" opacity="0" />
  <circle id="mol23:Atom:4" class="event" cx="160.39" cy="70" r="8" opacity="0" />
  <circle id="mol23:Atom:5" class="event" cx="160.39" cy="94" r="8" opacity="0" />
  <circle id="mol23:Atom:6" class="event" cx="181.18" cy="106" r="8" opacity="0" />
  <circle id="mol23:Atom:7" class="event" cx="181.18" cy="130" r="8" opacity="0" />
  <circle id="mol23:Atom:8" class="event" cx="160.39" cy="142" r="8" opacity="0" />
  <circle id="mol23:Atom:9" class="event" cx="160.39" cy="166" r="8" opacity="0" />
  <circle id="mol23:Atom:10" class="event" cx="181.18" cy="178" r="8" opacity="0" />
  <circle id="mol23:Atom:11" class="event" cx="139.61" cy="178" r="8" opacity="0" />
  <circle id="mol23:Atom:12" class="event" cx="139.61" cy="130" r="8" opacity="0" />
  <circle id="mol23:Atom:13" class="event" cx="139.61" cy="106" r="8" opacity="0" />
</svg>