<svg id="mol26" xmlns="http://www.w3.org/2000/svg" version="1.1" width="177px" height="70px" viewBox="53 62 177 70">
  <style> text {font-family: sans-serif;} #mol26 { pointer-events:none; } #mol26 .event  { pointer-events:all; } line { stroke-linecap:round; } polygon { stroke-linejoin:round; } </style>
  <text x="71.81" y="80.67" stroke="none" font-size="14" fill="rgb(255,13,13)">O</text>
  <text x="61.7" y="80.67" stroke="none" font-size="14" fill="rgb(255,13,13)">H</text>
  <text x="92.59" y="116.67" stroke="none" font-size="14" fill="rgb(255,13,13)">O</text>
  <text x="154.95" y="80.67" stroke="none" font-size="14" fill="rgb(255,13,13)">O</text>
  <line x1="96.24" y1="86.96" x2="96.24" y2="105" stroke="rgb(0,0,0)" stroke-width="1.44" />
  <line x1="99.84" y1="86.96" x2="99.84" y2="105" stroke="rgb(0,0,0)" stroke-width="1.44" />
  <line x1="181.18" y1="88" x2="201.96" y2="76" stroke="rgb(0,0,0)" stroke-width="1.44" />
  <line x1="185.19" y1="89.84" x2="188.46" y2="87.95" stroke="rgb(0,0,0)" stroke-width="1.44" />
  <line x1="191.73" y1="86.06" x2="193.37" y2="85.12" stroke="rgb(0,0,0)" stroke-width="1.44" />
  <line x1="193.37" y1="85.12" x2="195" y2="84.17" stroke="rgb(0,0,0)" stroke-width="1.44" />
  <line x1="198.27" y1="82.29" x2="201.54" y2="80.4" stroke="rgb(0,0,0)" stroke-width="1.44" />
  <line x1="201.96" y1="76" x2="222.75" y2="88" stroke="rgb(0,0,0)" stroke-width="1.44" />
  <line x1="202.38" y1="80.4" x2="205.65" y2="82.29" stroke="rgb(0,0,0)" stroke-width="1.44" />
  <line x1="208.92" y1="84.17" x2="210.55" y2="85.12" stroke="rgb(0,0,0)" stroke-width="1.44" />
  <line x1="210.55" y1="85.12" x2="212.19" y2="86.06" stroke="rgb(0,0,0)" stroke-width="1.44" />
  <line x1="215.46" y1="87.95" x2="218.73" y2="89.84" stroke="rgb(0,0,0)" stroke-width="1.44" />
  <line x1="222.75" y1="88" x2="222.75" y2="112" stroke="rgb(0,0,0)" stroke-width="1.44" />
  <line x1="219.15" y1="90.56" x2="219.15" y2="94.34" stroke="rgb(0,0,0)" stroke-width="1.44" />
  <line x1="219.15" y1="98.11" x2="219.15" y2="100" stroke="rgb(0,0,0)" stroke-width="1.44" />
  <line x1="219.15" y1="100" x2="219.15" y2="101.89" stroke="rgb(0,0,0)" stroke-width="1.44" />
  <line x1="219.15" y1="105.66" x2="219.15" y2="109.44" stroke="rgb(0,0,0)" stroke-width="1.44" />
  <line x1="222.75" y1="112" x2="201.96" y2="124" stroke="rgb(0,0,0)" stroke-width="1.44" />
  <line x1="218.73" y1="110.16" x2="215.46" y2="112.05" stroke="rgb(0,0,0)" stroke-width="1.44" />
  <line x1="212.19" y1="113.94" x2="210.55" y2="114.88" stroke="rgb(0,0,0)" stroke-width="1.44" />
  <line x1="210.55" y1="114.88" x2="208.92" y2="115.83" stroke="rgb(0,0,0)" stroke-width="1.44" />
  <line x1="205.65" y1="117.71" x2="202.38" y2="119.6" stroke="rgb(0,0,0)" stroke-width="1.44" />
  <line x1="201.96" y1="124" x2="181.18" y2="112" stroke="rgb(0,0,0)" stroke-width="1.44" />
  <line x1="201.54" y1="119.6" x2="198.27" y2="117.71" stroke="rgb(0,0,0)" stroke-width="1.44" />
  <line x1="195" y1="115.83" x2="193.37" y2="114.88" stroke="rgb(0,0,0)" stroke-width="1.44" />
  <line x1="193.37" y1="114.88" x2="191.73" y2="113.94" stroke="rgb(0,0,0)" stroke-width="1.44" />
  <line x1="188.46" y1="112.05" x2="185.19" y2="110.16" stroke="rgb(0,0,0)" stroke-width="1.44" />
  <line x1="181.18" y1="88" x2="181.18" y2="112" stroke="rgb(0,0,0)" stroke-width="1.44" />
  <line x1="184.78" y1="90.56" x2="184.78" y2="94.34" stroke="rgb(0,0,0)" stroke-width="1.44" />
  <line x1="184.78" y1="98.11" x2="184.78" y2="100" stroke="rgb(0,0,0)" stroke-width="1.44" />
  <line x1="184.78" y1="100" x2="184.78" y2="101.89" stroke="rgb(0,0,0)" stroke-width="1.44" />
  <line x1="184.78" y1="105.66" x2="184.78" y2="109.44" stroke="rgb(0,0,0)" stroke-width="1.44" />
  <line x1="83.7" y1="79.72" x2="98.04" y2="88" stroke="rgb(0,0,0)" stroke-width="1.44" />
  <line x1="98.04" y1="88" x2="118.82" y2="76" stroke="rgb(0,0,0)" stroke-width="1.44" />
  <line x1="118.82" y1="76" x2="139.61" y2="88" stroke="rgb(0,0,0)" stroke-width="1.44" />
  <line x1="139.61" y1="88" x2="153.95" y2="79.72" stroke="rgb(0,0,0)" stroke-width="1.44" />
  <line x1="166.84" y1="79.72" x2="181.18" y2="88" stroke="rgb(0,0,0)" stroke-width="1.44" />
  <line id="mol26:Bond:1" class="event" x1="98.04" y1="88" x2="98.04" y2="112" stroke-width="8" opacity="0" />
  <line id="mol26:Bond:6" class="event" x1="181.18" y1="88" x2="201.96" y2="76" stroke-width="8" opacity="0" />
  <line id="mol26:Bond:7" class="event" x1="201.96" y1="76" x2="222.75" y2="88" stroke-width="8" opacity="0" />
  <line id="mol26:Bond:8" class="event" x1="222.75" y1="88" x2="222.75" y2="112" stroke-width="8" opacity="0" />
  <line id="mol26:Bond:9" class="event" x1="222.75" y1="112" x2="201.96" y2="124" stroke-width="8" opacity="0" />
  <line id="mol26:Bond:10" class="event" x1="201.96" y1="124" x2="181.18" y2="112" stroke-width="8" opacity="0" />
  <line id="mol26:Bond:11" class="event" x1="181.18" y1="88" x2="181.18" y2="112" stroke-width="8" opacity="0" />
  <line id="mol26:Bond:0" class="event" x1="77.25" y1="76" x2="98.04" y2="88" stroke-width="8" opacity="0" />
  <line id="mol26:Bond:2" class="event" x1="98.04" y1="88" x2="118.82" y2="76" stroke-width="8" opacity="0" />
  <line id="mol26:Bond:3" class="event" x1="118.82" y1="76" x2="139.61" y2="88" stroke-width="8" opacity="0" />
  <line id="mol26:Bond:4" class="event" x1="139.61" y1="88" x2="160.39" y2="76" stroke-width="8" opacity="0" />
  <line id="mol26:Bond:5" class="event" x1="160.39" y1="76" x2="181.18" y2="88" stroke-width="8" opacity="0" />
  <circle id="mol26:Atom:0" class="event" cx="77.25" cy="76" r="8" opacity="0" />
  <circle id="mol26:Atom:1" class="event" cx="98.04" cy="88" r="8" opacity="0" />
  <circle id="mol26:Atom:2" class="event" cx="98.04" cy="112" r="8" opacity="0" />
  <circle id="mol26:Atom:3" class="event" cx="118.82" cy="76" r="8" opacity="0" />
  <circle id="mol26:Atom:4" class="event" cx="139.61" cy="88" r="8" opacity="0" />
  <circle id="mol26:Atom:5" class="event" cx="160.39" cy="76" r="8" opacity="0" />
  <circle id="mol26:Atom:6" class="event" cx="181.18" cy="88" r="8" opacity="0" />
  <circle id="mol26:Atom:7" class="event" cx="201.96" cy="76" r="8" opacity="0" />
  <circle id="mol26:Atom:8" class="event" cx="222.75" cy="88" r="8" opacity="0" />
  <circle id="mol26:Atom:9" class="event" cx="222.75" cy="112" r="8" opacity="0" />
  <circle id="mol26:Atom:10" class="event" cx="201.96" cy="124" r="8" opacity="0" />
  <circle id="mol26:Atom:11" class="event" cx="181.18" cy="112" r="8" opacity="0" />
</svg>