<svg id="mol27" xmlns="http://www.w3.org/2000/svg" version="1.1" width="146px" height="106px" viewBox="74 51 146 106">
  <style> text {font-family: sans-serif;} #mol27 { pointer-events:none; } #mol27 .event  { pointer-events:all; } line { stroke-linecap:round; } polygon { stroke-linejoin:round; } </style>
  <text x="144.55" y="74.67" stroke="none" font-size="14" fill="rgb(255,13,13)">O</text>
  <text x="186.12" y="146.67" stroke="none" font-size="14" fill="rgb(255,13,13)">O</text>
  <text x="82.2" y="134.67" stroke="none" font-size="14" fill="rgb(255,13,13)">O</text>
  <line x1="150" y1="94" x2="170.78" y2="106" stroke="rgb(0,0,0)" stroke-width="1.44" />
  <line x1="150.42" y1="98.4" x2="153.69" y2="100.29" stroke="rgb(0,0,0)" stroke-width="1.44" />
  <line x1="156.96" y1="102.17" x2="158.59" y2="103.12" stroke="rgb(0,0,0)" stroke-width="1.44" />
  <line x1="158.59" y1="103.12" x2="160.23" y2="104.06" stroke="rgb(0,0,0)" stroke-width="1.44" />
  <line x1="163.5" y1="105.95" x2="166.77" y2="107.84" stroke="rgb(0,0,0)" stroke-width="1.44" />
  <line x1="170.78" y1="106" x2="170.78" y2="130" stroke="rgb(0,0,0)" stroke-width="1.44" />
  <line x1="167.18" y1="108.56" x2="167.18" y2="112.34" stroke="rgb(0,0,0)" stroke-width="1.44" />
  <line x1="167.18" y1="116.11" x2="167.18" y2="118" stroke="rgb(0,0,0)" stroke-width="1.44" />
  <line x1="167.18" y1="118" x2="167.18" y2="119.89" stroke="rgb(0,0,0)" stroke-width="1.44" />
  <line x1="167.18" y1="123.66" x2="167.18" y2="127.44" stroke="rgb(0,0,0)" stroke-width="1.44" />
  <line x1="170.78" y1="130" x2="150" y2="142" stroke="rgb(0,0,0)" stroke-width="1.44" />
  <line x1="166.77" y1="128.16" x2="163.5" y2="130.05" stroke="rgb(0,0,0)" stroke-width="1.44" />
  <line x1="160.23" y1="131.94" x2="158.59" y2="132.88" stroke="rgb(0,0,0)" stroke-width="1.44" />
  <line x1="158.59" y1="132.88" x2="156.96" y2="133.83" stroke="rgb(0,0,0)" stroke-width="1.44" />
  <line x1="153.69" y1="135.71" x2="150.42" y2="137.6" stroke="rgb(0,0,0)" stroke-width="1.44" />
  <line x1="150" y1="142" x2="129.22" y2="130" stroke="rgb(0,0,0)" stroke-width="1.44" />
  <line x1="149.58" y1="137.6" x2="146.31" y2="135.71" stroke="rgb(0,0,0)" stroke-width="1.44" />
  <line x1="143.04" y1="133.83" x2="141.41" y2="132.88" stroke="rgb(0,0,0)" stroke-width="1.44" />
  <line x1="141.41" y1="132.88" x2="139.77" y2="131.94" stroke="rgb(0,0,0)" stroke-width="1.44" />
  <line x1="136.5" y1="130.05" x2="133.23" y2="128.16" stroke="rgb(0,0,0)" stroke-width="1.44" />
  <line x1="107.11" y1="139.16" x2="94.99" y2="132.16" stroke="rgb(0,0,0)" stroke-width="1.44" />
  <line x1="107.53" y1="143.56" x2="93.19" y2="135.28" stroke="rgb(0,0,0)" stroke-width="1.44" />
  <line x1="129.22" y1="130" x2="129.22" y2="106" stroke="rgb(0,0,0)" stroke-width="1.44" />
  <line x1="132.82" y1="127.44" x2="132.82" y2="123.66" stroke="rgb(0,0,0)" stroke-width="1.44" />
  <line x1="132.82" y1="119.89" x2="132.82" y2="118" stroke="rgb(0,0,0)" stroke-width="1.44" />
  <line x1="132.82" y1="118" x2="132.82" y2="116.11" stroke="rgb(0,0,0)" stroke-width="1.44" />
  <line x1="132.82" y1="112.34" x2="132.82" y2="108.56" stroke="rgb(0,0,0)" stroke-width="1.44" />
  <line x1="150" y1="94" x2="129.22" y2="106" stroke="rgb(0,0,0)" stroke-width="1.44" />
  <line x1="149.58" y1="98.4" x2="146.31" y2="100.29" stroke="rgb(0,0,0)" stroke-width="1.44" />
  <line x1="143.04" y1="102.17" x2="141.41" y2="103.12" stroke="rgb(0,0,0)" stroke-width="1.44" />
  <line x1="141.41" y1="103.12" x2="139.77" y2="104.06" stroke="rgb(0,0,0)" stroke-width="1.44" />
  <line x1="136.5" y1="105.95" x2="133.23" y2="107.84" stroke="rgb(0,0,0)" stroke-width="1.44" />
  <line x1="129.22" y1="58" x2="143.55" y2="66.28" stroke="rgb(0,0,0)" stroke-width="1.44" />
  <line x1="150" y1="77" x2="150" y2="94" stroke="rgb(0,0,0)" stroke-width="1.44" />
  <line x1="170.78" y1="130" x2="185.12" y2="138.28" stroke="rgb(0,0,0)" stroke-width="1.44" />
  <line x1="198.02" y1="138.28" x2="212.35" y2="130" stroke="rgb(0,0,0)" stroke-width="1.44" />
  <line x1="129.22" y1="130" x2="107.53" y2="143.56" stroke="rgb(0,0,0)" stroke-width="1.44" />
  <line id="mol27:Bond:2" class="event" x1="150" y1="94" x2="170.78" y2="106" stroke-width="8" opacity="0" />
  <line id="mol27:Bond:3" class="event" x1="170.78" y1="106" x2="170.78" y2="130" stroke-width="8" opacity="0" />
  <line id="mol27:Bond:6" class="event" x1="170.78" y1="130" x2="150" y2="142" stroke-width="8" opacity="0" />
  <line id="mol27:Bond:7" class="event" x1="150" y1="142" x2="129.22" y2="130" stroke-width="8" opacity="0" />
  <line id="mol27:Bond:9" class="event" x1="108.43" y1="142" x2="87.65" y2="130" stroke-width="8" opacity="0" />
  <line id="mol27:Bond:10" class="event" x1="129.22" y1="130" x2="129.22" y2="106" stroke-width="8" opacity="0" />
  <line id="mol27:Bond:11" class="event" x1="150" y1="94" x2="129.22" y2="106" stroke-width="8" opacity="0" />
  <line id="mol27:Bond:0" class="event" x1="129.22" y1="58" x2="150" y2="70" stroke-width="8" opacity="0" />
  <line id="mol27:Bond:1" class="event" x1="150" y1="70" x2="150" y2="94" stroke-width="8" opacity="0" />
  <line id="mol27:Bond:4" class="event" x1="170.78" y1="130" x2="191.57" y2="142" stroke-width="8" opacity="0" />
  <line id="mol27:Bond:5" class="event" x1="191.57" y1="142" x2="212.35" y2="130" stroke-width="8" opacity="0" />
  <line id="mol27:Bond:8" class="event" x1="129.22" y1="130" x2="108.43" y2="142" stroke-width="8" opacity="0" />
  <circle id="mol27:Atom:0" class="event" cx="129.22" cy="58" r="8" opacity="0" />
  <circle id="mol27:Atom:1" class="event" cx="150" cy="70" r="8" opacity="0" />
  <circle id="mol27:Atom:2" class="event" cx="150" cy="94" r="8" opacity="0" />
  <circle id="mol27:Atom:3" class="event" cx="170.78" cy="106" r="8" opacity="0" />
  <circle id="mol27:Atom:4" class="event" cx="170.78" cy="130" r="8" opacity="0" />
  <circle id="mol27:Atom:5" class="event" cx="191.57" cy="142" r="8" opacity="0" />
  <circle id="mol27:Atom:6" class="event" cx="212.35" cy="130" r="8" opacity="0" />
  <circle id="mol27:Atom:7" class="event" cx="150" cy="142" r="8" opacity="0" />
  <circle id="mol27:Atom:8" class="event" cx="129.22" cy="130" r="8" opacity="0" />
  <circle id="mol27:Atom:9" class="event" cx="108.43" cy="142" r="8" opacity="0" />
  <circle id="mol27:Atom:10" class="event" cx="87.65" cy="130" r="8" opacity="0" />
  <circle id="mol27:Atom:11" class="event" cx="129.22" cy="106" r="8" opacity="0" />
</svg>