<svg id="mol28" xmlns="http://www.w3.org/2000/svg" version="1.1" width="56px" height="207px" viewBox="122 -3 56 207">
  <style> text {font-family: sans-serif;} #mol28 { pointer-events:none; } #mol28 .event  { pointer-events:all; } line { stroke-linecap:round; } polygon { stroke-linejoin:round; } </style>
  <text x="144.55" y="20.67" stroke="none" font-size="14" fill="rgb(255,13,13)">O</text>
  <text x="144.55" y="188.67" stroke="none" font-size="14" fill="rgb(255,13,13)">O</text>
  <line x1="150" y1="40" x2="170.78" y2="52" stroke="rgb(0,0,0)" stroke-width="1.44" />
  <line x1="150.42" y1="44.4" x2="153.69" y2="46.29" stroke="rgb(0,0,0)" stroke-width="1.44" />
  <line x1="156.96" y1="48.17" x2="158.59" y2="49.12" stroke="rgb(0,0,0)" stroke-width="1.44" />
  <line x1="158.59" y1="49.12" x2="160.23" y2="50.06" stroke="rgb(0,0,0)" stroke-width="1.44" />
  <line x1="163.5" y1="51.95" x2="166.77" y2="53.84" stroke="rgb(0,0,0)" stroke-width="1.44" />
  <line x1="170.78" y1="52" x2="170.78" y2="76" stroke="rgb(0,0,0)" stroke-width="1.44" />
  <line x1="167.18" y1="54.56" x2="167.18" y2="58.34" stroke="rgb(0,0,0)" stroke-width="1.44" />
  <line x1="167.18" y1="62.11" x2="167.18" y2="64" stroke="rgb(0,0,0)" stroke-width="1.44" />
  <line x1="167.18" y1="64" x2="167.18" y2="65.89" stroke="rgb(0,0,0)" stroke-width="1.44" />
  <line x1="167.18" y1="69.66" x2="167.18" y2="73.44" stroke="rgb(0,0,0)" stroke-width="1.44" />
  <line x1="170.78" y1="76" x2="150" y2="88" stroke="rgb(0,0,0)" stroke-width="1.44" />
  <line x1="166.77" y1="74.16" x2="163.5" y2="76.05" stroke="rgb(0,0,0)" stroke-width="1.44" />
  <line x1="160.23" y1="77.94" x2="158.59" y2="78.88" stroke="rgb(0,0,0)" stroke-width="1.44" />
  <line x1="158.59" y1="78.88" x2="156.96" y2="79.83" stroke="rgb(0,0,0)" stroke-width="1.44" />
  <line x1="153.69" y1="81.71" x2="150.42" y2="83.6" stroke="rgb(0,0,0)" stroke-width="1.44" />
  <line x1="150" y1="88" x2="129.22" y2="76" stroke="rgb(0,0,0)" stroke-width="1.44" />
  <line x1="149.58" y1="83.6" x2="146.31" y2="81.71" stroke="rgb(0,0,0)" stroke-width="1.44" />
  <line x1="143.04" y1="79.83" x2="141.41" y2="78.88" stroke="rgb(0,0,0)" stroke-width="1.44" />
  <line x1="141.41" y1="78.88" x2="139.77" y2="77.94" stroke="rgb(0,0,0)" stroke-width="1.44" />
  <line x1="136.5" y1="76.05" x2="133.23" y2="74.16" stroke="rgb(0,0,0)" stroke-width="1.44" />
  <line x1="129.22" y1="76" x2="129.22" y2="52" stroke="rgb(0,0,0)" stroke-width="1.44" />
  <line x1="132.82" y1="73.44" x2="132.82" y2="69.66" stroke="rgb(0,0,0)" stroke-width="1.44" />
  <line x1="132.82" y1="65.89" x2="132.82" y2="64" stroke="rgb(0,0,0)" stroke-width="1.44" />
  <line x1="132.82" y1="64" x2="132.82" y2="62.11" stroke="rgb(0,0,0)" stroke-width="1.44" />
  <line x1="132.82" y1="58.34" x2="132.82" y2="54.56" stroke="rgb(0,0,0)" stroke-width="1.44" />
  <line x1="150" y1="40" x2="129.22" y2="52" stroke="rgb(0,0,0)" stroke-width="1.44" />
  <line x1="149.58" y1="44.4" x2="146.31" y2="46.29" stroke="rgb(0,0,0)" stroke-width="1.44" />
  <line x1="143.04" y1="48.17" x2="141.41" y2="49.12" stroke="rgb(0,0,0)" stroke-width="1.44" />
  <line x1="141.41" y1="49.12" x2="139.77" y2="50.06" stroke="rgb(0,0,0)" stroke-width="1.44" />
  <line x1="136.5" y1="51.95" x2="133.23" y2="53.84" stroke="rgb(0,0,0)" stroke-width="1.44" />
  <line x1="150" y1="112" x2="170.78" y2="124" stroke="rgb(0,0,0)" stroke-width="1.44" />
  <line x1="150.42" y1="116.4" x2="153.69" y2="118.29" stroke="rgb(0,0,0)" stroke-width="1.44" />
  <line x1="156.96" y1="120.17" x2="158.59" y2="121.12" stroke="rgb(0,0,0)" stroke-width="1.44" />
  <line x1="158.59" y1="121.12" x2="160.23" y2="122.06" stroke="rgb(0,0,0)" stroke-width="1.44" />
  <line x1="163.5" y1="123.95" x2="166.77" y2="125.84" stroke="rgb(0,0,0)" stroke-width="1.44" />
  <line x1="170.78" y1="124" x2="170.78" y2="148" stroke="rgb(0,0,0)" stroke-width="1.44" />
  <line x1="167.18" y1="126.56" x2="167.18" y2="130.34" stroke="rgb(0,0,0)" stroke-width="1.44" />
  <line x1="167.18" y1="134.11" x2="167.18" y2="136" stroke="rgb(0,0,0)" stroke-width="1.44" />
  <line x1="167.18" y1="136" x2="167.18" y2="137.89" stroke="rgb(0,0,0)" stroke-width="1.44" />
  <line x1="167.18" y1="141.66" x2="167.18" y2="145.44" stroke="rgb(0,0,0)" stroke-width="1.44" />
  <line x1="170.78" y1="148" x2="150" y2="160" stroke="rgb(0,0,0)" stroke-width="1.44" />
  <line x1="166.77" y1="146.16" x2="163.5" y2="148.05" stroke="rgb(0,0,0)" stroke-width="1.44" />
  <line x1="160.23" y1="149.94" x2="158.59" y2="150.88" stroke="rgb(0,0,0)" stroke-width="1.44" />
  <line x1="158.59" y1="150.88" x2="156.96" y2="151.83" stroke="rgb(0,0,0)" stroke-width="1.44" />
  <line x1="153.69" y1="153.71" x2="150.42" y2="155.6" stroke="rgb(0,0,0)" stroke-width="1.44" />
  <line x1="150" y1="160" x2="129.22" y2="148" stroke="rgb(0,0,0)" stroke-width="1.44" />
  <line x1="149.58" y1="155.6" x2="146.31" y2="153.71" stroke="rgb(0,0,0)" stroke-width="1.44" />
  <line x1="143.04" y1="151.83" x2="141.41" y2="150.88" stroke="rgb(0,0,0)" stroke-width="1.44" />
  <line x1="141.41" y1="150.88" x2="139.77" y2="149.94" stroke="rgb(0,0,0)" stroke-width="1.44" />
  <line x1="136.5" y1="148.05" x2="133.23" y2="146.16" stroke="rgb(0,0,0)" stroke-width="1.44" />
  <line x1="129.22" y1="148" x2="129.22" y2="124" stroke="rgb(0,0,0)" stroke-width="1.44" />
  <line x1="132.82" y1="145.44" x2="132.82" y2="141.66" stroke="rgb(0,0,0)" stroke-width="1.44" />
  <line x1="132.82" y1="137.89" x2="132.82" y2="136" stroke="rgb(0,0,0)" stroke-width="1.44" />
  <line x1="132.82" y1="136" x2="132.82" y2="134.11" stroke="rgb(0,0,0)" stroke-width="1.44" />
  <line x1="132.82" y1="130.34" x2="132.82" y2="126.56" stroke="rgb(0,0,0)" stroke-width="1.44" />
  <line x1="150" y1="112" x2="129.22" y2="124" stroke="rgb(0,0,0)" stroke-width="1.44" />
  <line x1="149.58" y1="116.4" x2="146.31" y2="118.29" stroke="rgb(0,0,0)" stroke-width="1.44" />
  <line x1="143.04" y1="120.17" x2="141.41" y2="121.12" stroke="rgb(0,0,0)" stroke-width="1.44" />
  <line x1="141.41" y1="121.12" x2="139.77" y2="122.06" stroke="rgb(0,0,0)" stroke-width="1.44" />
  <line x1="136.5" y1="123.95" x2="133.23" y2="125.84" stroke="rgb(0,0,0)" stroke-width="1.44" />
  <line x1="129.22" y1="4" x2="143.55" y2="12.28" stroke="rgb(0,0,0)" stroke-width="1.44" />
  <line x1="150" y1="23" x2="150" y2="40" stroke="rgb(0,0,0)" stroke-width="1.44" />
  <line x1="150" y1="88" x2="150" y2="112" stroke="rgb(0,0,0)" stroke-width="1.44" />
  <line x1="150" y1="160" x2="150" y2="177" stroke="rgb(0,0,0)" stroke-width="1.44" />
  <line x1="156.45" y1="187.72" x2="170.78" y2="196" stroke="rgb(0,0,0)" stroke-width="1.44" />
  <line id="mol28:Bond:2" class="event" x1="150" y1="40" x2="170.78" y2="52" stroke-width="8" opacity="0" />
  <line id="mol28:Bond:3" class="event" x1="170.78" y1="52" x2="170.78" y2="76" stroke-width="8" opacity="0" />
  <line id="mol28:Bond:4" class="event" x1="170.78" y1="76" x2="150" y2="88" stroke-width="8" opacity="0" />
  <line id="mol28:Bond:5" class="event" x1="150" y1="88" x2="129.22" y2="76" stroke-width="8" opacity="0" />
  <line id="mol28:Bond:6" class="event" x1="129.22" y1="76" x2="129.22" y2="52" stroke-width="8" opacity="0" />
  <line id="mol28:Bond:7" class="event" x1="150" y1="40" x2="129.22" y2="52" stroke-width="8" opacity="0" />
  <line id="mol28:Bond:9" class="event" x1="150" y1="112" x2="170.78" y2="124" stroke-width="8" opacity="0" />
  <line id="mol28:Bond:10" class="event" x1="170.78" y1="124" x2="170.78" y2="148" stroke-width="8" opacity="0" />
  <line id="mol28:Bond:11" class="event" x1="170.78" y1="148" x2="150" y2="160" stroke-width="8" opacity="0" />
  <line id="mol28:Bond:14" class="event" x1="150" y1="160" x2="129.22" y2="148" stroke-width="8" opacity="0" />
  <line id="mol28:Bond:15" class="event" x1="129.22" y1="148" x2="129.22" y2="124" stroke-width="8" opacity="0" />
  <line id="mol28:Bond:16" class="event" x1="150" y1="112" x2="129.22" y2="124" stroke-width="8" opacity="0" />
  <line id="mol28:Bond:0" class="event" x1="129.22" y1="4" x2="150" y2="16" stroke-width="8" opacity="0" />
  <line id="mol28:Bond:1" class="event" x1="150" y1="16" x2="150" y2="40" stroke-width="8" opacity="0" />
  <line id="mol28:Bond:8" class="event" x1="150" y1="88" x2="150" y2="112" stroke-width="8" opacity="0" />
  <line id="mol28:Bond:12" class="event" x1="150" y1="160" x2="150" y2="184" stroke-width="8" opacity="0" />
  <line id="mol28:Bond:13" class="event" x1="150" y1="184" x2="170.78" y2="196" stroke-width="8" opacity="0" />
  <circle id="mol28:Atom:0" class="event" cx="129.22" cy="4" r="8" opacity="0" />
  <circle id="mol28:Atom:1" class="event" cx="150" cy="16" r="8" opacity="0" />
  <circle id="mol28:Atom:2" class="event" cx="150" cy="40" r="8" opacity="0" />
  <circle id="mol28:Atom:3" class="event" cx="170.78" cy="52" r="8" opacity="0" />
  <circle id="mol28:Atom:4" class="event" cx="170.78" cy="76" r="8" opacity="0" />
  <circle id="mol28:Atom:5" class="event" cx="150" cy="88" r="8" opacity="0" />
  <circle id="mol28:Atom:6" class="event" cx="129.22" cy="76" r="8" opacity="0" />
  <circle id="mol28:Atom:7" class="event" cx="129.22" cy="52" r="8" opacity="0" />
  <circle id="mol28:Atom:8" class="event" cx="150" cy="112" r="8" opacity="0" />
  <circle id="mol28:Atom:9" class="event" cx="170.78" cy="124" r="8" opacity="0" />
  <circle id="mol28:Atom:10" class="event" cx="170.78" cy="148" r="8" opacity="0" />
  <circle id="mol28:Atom:11" class="event" cx="150" cy="160" r="8" opacity="0" />
  <circle id="mol28:Atom:12" class="event" cx="150" cy="184" r="8" opacity="0" />
  <circle id="mol28:Atom:13" class="event" cx="170.78" cy="196" r="8" opacity="0" />
  <circle id="mol28:Atom:14" class="event" cx="129.22" cy="148" r="8" opacity="0" />
  <circle id="mol28:Atom:15" class="event" cx="129.22" cy="124" r="8" opacity="0" />
</svg>