<svg id="mol34" xmlns="http://www.w3.org/2000/svg" version="1.1" width="104px" height="125px" viewBox="101 38 104 125">
  <style> text {font-family: sans-serif;} #mol34 { pointer-events:none; } #mol34 .event  { pointer-events:all; } line { stroke-linecap:round; } polygon { stroke-linejoin:round; } </style>
  <text x="123.77" y="56.67" stroke="none" font-size="14" fill="rgb(255,13,13)">O</text>
  <text x="134.66" y="56.67" stroke="none" font-size="14" fill="rgb(255,13,13)">H</text>
  <text x="165.73" y="128.67" stroke="none" font-size="14" fill="rgb(48,80,248)">N</text>
  <text x="186.12" y="116.67" stroke="none" font-size="14" fill="rgb(255,13,13)">O</text>
  <text x="165.34" y="152.67" stroke="none" font-size="14" fill="rgb(255,13,13)">O</text>
  <line x1="129.22" y1="76" x2="150" y2="88" stroke="rgb(0,0,0)" stroke-width="1.44" />
  <line x1="129.63" y1="80.4" x2="132.9" y2="82.29" stroke="rgb(0,0,0)" stroke-width="1.44" />
  <line x1="136.17" y1="84.17" x2="137.81" y2="85.12" stroke="rgb(0,0,0)" stroke-width="1.44" />
  <line x1="137.81" y1="85.12" x2="139.44" y2="86.06" stroke="rgb(0,0,0)" stroke-width="1.44" />
  <line x1="142.71" y1="87.95" x2="145.98" y2="89.84" stroke="rgb(0,0,0)" stroke-width="1.44" />
  <line x1="150" y1="88" x2="150" y2="112" stroke="rgb(0,0,0)" stroke-width="1.44" />
  <line x1="146.4" y1="90.56" x2="146.4" y2="94.34" stroke="rgb(0,0,0)" stroke-width="1.44" />
  <line x1="146.4" y1="98.11" x2="146.4" y2="100" stroke="rgb(0,0,0)" stroke-width="1.44" />
  <line x1="146.4" y1="100" x2="146.4" y2="101.89" stroke="rgb(0,0,0)" stroke-width="1.44" />
  <line x1="146.4" y1="105.66" x2="146.4" y2="109.44" stroke="rgb(0,0,0)" stroke-width="1.44" />
  <line x1="177.74" y1="122.06" x2="186.02" y2="117.28" stroke="rgb(0,0,0)" stroke-width="1.44" />
  <line x1="175.94" y1="118.95" x2="184.22" y2="114.16" stroke="rgb(0,0,0)" stroke-width="1.44" />
  <line x1="168.98" y1="131" x2="168.98" y2="141" stroke="rgb(0,0,0)" stroke-width="1.44" />
  <line x1="172.58" y1="131" x2="172.58" y2="141" stroke="rgb(0,0,0)" stroke-width="1.44" />
  <line x1="150" y1="112" x2="129.22" y2="124" stroke="rgb(0,0,0)" stroke-width="1.44" />
  <line x1="145.98" y1="110.16" x2="142.71" y2="112.05" stroke="rgb(0,0,0)" stroke-width="1.44" />
  <line x1="139.44" y1="113.94" x2="137.81" y2="114.88" stroke="rgb(0,0,0)" stroke-width="1.44" />
  <line x1="137.81" y1="114.88" x2="136.17" y2="115.83" stroke="rgb(0,0,0)" stroke-width="1.44" />
  <line x1="132.9" y1="117.71" x2="129.63" y2="119.6" stroke="rgb(0,0,0)" stroke-width="1.44" />
  <line x1="129.22" y1="124" x2="108.43" y2="112" stroke="rgb(0,0,0)" stroke-width="1.44" />
  <line x1="128.8" y1="119.6" x2="125.53" y2="117.71" stroke="rgb(0,0,0)" stroke-width="1.44" />
  <line x1="122.26" y1="115.83" x2="120.62" y2="114.88" stroke="rgb(0,0,0)" stroke-width="1.44" />
  <line x1="120.62" y1="114.88" x2="118.99" y2="113.94" stroke="rgb(0,0,0)" stroke-width="1.44" />
  <line x1="115.72" y1="112.05" x2="112.45" y2="110.16" stroke="rgb(0,0,0)" stroke-width="1.44" />
  <line x1="108.43" y1="112" x2="108.43" y2="88" stroke="rgb(0,0,0)" stroke-width="1.44" />
  <line x1="112.03" y1="109.44" x2="112.03" y2="105.66" stroke="rgb(0,0,0)" stroke-width="1.44" />
  <line x1="112.03" y1="101.89" x2="112.03" y2="100" stroke="rgb(0,0,0)" stroke-width="1.44" />
  <line x1="112.03" y1="100" x2="112.03" y2="98.11" stroke="rgb(0,0,0)" stroke-width="1.44" />
  <line x1="112.03" y1="94.34" x2="112.03" y2="90.56" stroke="rgb(0,0,0)" stroke-width="1.44" />
  <line x1="129.22" y1="76" x2="108.43" y2="88" stroke="rgb(0,0,0)" stroke-width="1.44" />
  <line x1="128.8" y1="80.4" x2="125.53" y2="82.29" stroke="rgb(0,0,0)" stroke-width="1.44" />
  <line x1="122.26" y1="84.17" x2="120.62" y2="85.12" stroke="rgb(0,0,0)" stroke-width="1.44" />
  <line x1="120.62" y1="85.12" x2="118.99" y2="86.06" stroke="rgb(0,0,0)" stroke-width="1.44" />
  <line x1="115.72" y1="87.95" x2="112.45" y2="89.84" stroke="rgb(0,0,0)" stroke-width="1.44" />
  <line x1="129.22" y1="59" x2="129.22" y2="76" stroke="rgb(0,0,0)" stroke-width="1.44" />
  <line x1="150" y1="112" x2="164.73" y2="120.5" stroke="rgb(0,0,0)" stroke-width="1.44" />
  <line id="mol34:Bond:1" class="event" x1="129.22" y1="76" x2="150" y2="88" stroke-width="8" opacity="0" />
  <line id="mol34:Bond:2" class="event" x1="150" y1="88" x2="150" y2="112" stroke-width="8" opacity="0" />
  <line id="mol34:Bond:4" class="event" x1="170.78" y1="124" x2="191.57" y2="112" stroke-width="8" opacity="0" />
  <line id="mol34:Bond:5" class="event" x1="170.78" y1="124" x2="170.78" y2="148" stroke-width="8" opacity="0" />
  <line id="mol34:Bond:6" class="event" x1="150" y1="112" x2="129.22" y2="124" stroke-width="8" opacity="0" />
  <line id="mol34:Bond:7" class="event" x1="129.22" y1="124" x2="108.43" y2="112" stroke-width="8" opacity="0" />
  <line id="mol34:Bond:8" class="event" x1="108.43" y1="112" x2="108.43" y2="88" stroke-width="8" opacity="0" />
  <line id="mol34:Bond:9" class="event" x1="129.22" y1="76" x2="108.43" y2="88" stroke-width="8" opacity="0" />
  <line id="mol34:Bond:0" class="event" x1="129.22" y1="52" x2="129.22" y2="76" stroke-width="8" opacity="0" />
  <line id="mol34:Bond:3" class="event" x1="150" y1="112" x2="170.78" y2="124" stroke-width="8" opacity="0" />
  <circle id="mol34:Atom:0" class="event" cx="129.22" cy="52" r="8" opacity="0" />
  <circle id="mol34:Atom:1" class="event" cx="129.22" cy="76" r="8" opacity="0" />
  <circle id="mol34:Atom:2" class="event" cx="150" cy="88" r="8" opacity="0" />
  <circle id="mol34:Atom:3" class="event" cx="150" cy="112" r="8" opacity="0" />
  <circle id="mol34:Atom:4" class="event" cx="170.78" cy="124" r="8" opacity="0" />
  <circle id="mol34:Atom:5" class="event" cx="191.57" cy="112" r="8" opacity="0" />
  <circle id="mol34:Atom:6" class="event" cx="170.78" cy="148" r="8" opacity="0" />
  <circle id="mol34:Atom:7" class="event" cx="129.22" cy="124" r="8" opacity="0" />
  <circle id="mol34:Atom:8" class="event" cx="108.43" cy="112" r="8" opacity="0" />
  <circle id="mol34:Atom:9" class="event" cx="108.43" cy="88" r="8" opacity="0" />
</svg>