<svg id="mol35" xmlns="http://www.w3.org/2000/svg" version="1.1" width="89px" height="63px" viewBox="106 69 89 63">
  <style> text {font-family: sans-serif;} #mol35 { pointer-events:none; } #mol35 .event  { pointer-events:all; } line { stroke-linecap:round; } polygon { stroke-linejoin:round; } </style>
  <text x="165.73" y="116.67" stroke="none" font-size="14" fill="rgb(48,80,248)">N</text>
  <text x="175.84" y="116.67" stroke="none" font-size="14" fill="rgb(48,80,248)">H</text>
  <text x="124.16" y="92.67" stroke="none" font-size="14" fill="rgb(48,80,248)">N</text>
  <text x="114.05" y="92.67" stroke="none" font-size="14" fill="rgb(48,80,248)">H</text>
  <line x1="150" y1="76" x2="170.78" y2="88" stroke="rgb(0,0,0)" stroke-width="1.44" />
  <line x1="150.42" y1="80.4" x2="153.69" y2="82.29" stroke="rgb(0,0,0)" stroke-width="1.44" />
  <line x1="156.96" y1="84.17" x2="158.59" y2="85.12" stroke="rgb(0,0,0)" stroke-width="1.44" />
  <line x1="158.59" y1="85.12" x2="160.23" y2="86.06" stroke="rgb(0,0,0)" stroke-width="1.44" />
  <line x1="163.5" y1="87.95" x2="166.77" y2="89.84" stroke="rgb(0,0,0)" stroke-width="1.44" />
  <line x1="170.78" y1="88" x2="170.78" y2="105" stroke="rgb(0,0,0)" stroke-width="1.44" />
  <line x1="167.18" y1="90.56" x2="167.18" y2="93.45" stroke="rgb(0,0,0)" stroke-width="1.44" />
  <line x1="167.18" y1="96.34" x2="167.18" y2="97.78" stroke="rgb(0,0,0)" stroke-width="1.44" />
  <line x1="167.18" y1="97.78" x2="167.18" y2="99.22" stroke="rgb(0,0,0)" stroke-width="1.44" />
  <line x1="167.18" y1="102.11" x2="167.18" y2="105" stroke="rgb(0,0,0)" stroke-width="1.44" />
  <line x1="164.73" y1="115.5" x2="150" y2="124" stroke="rgb(0,0,0)" stroke-width="1.44" />
  <line x1="164.73" y1="111.34" x2="161.87" y2="112.99" stroke="rgb(0,0,0)" stroke-width="1.44" />
  <line x1="159.01" y1="114.64" x2="157.57" y2="115.47" stroke="rgb(0,0,0)" stroke-width="1.44" />
  <line x1="157.57" y1="115.47" x2="156.14" y2="116.3" stroke="rgb(0,0,0)" stroke-width="1.44" />
  <line x1="153.28" y1="117.95" x2="150.42" y2="119.6" stroke="rgb(0,0,0)" stroke-width="1.44" />
  <line x1="150" y1="124" x2="129.22" y2="112" stroke="rgb(0,0,0)" stroke-width="1.44" />
  <line x1="149.58" y1="119.6" x2="146.31" y2="117.71" stroke="rgb(0,0,0)" stroke-width="1.44" />
  <line x1="143.04" y1="115.83" x2="141.41" y2="114.88" stroke="rgb(0,0,0)" stroke-width="1.44" />
  <line x1="141.41" y1="114.88" x2="139.77" y2="113.94" stroke="rgb(0,0,0)" stroke-width="1.44" />
  <line x1="136.5" y1="112.05" x2="133.23" y2="110.16" stroke="rgb(0,0,0)" stroke-width="1.44" />
  <line x1="129.22" y1="112" x2="129.22" y2="95" stroke="rgb(0,0,0)" stroke-width="1.44" />
  <line x1="132.82" y1="109.44" x2="132.82" y2="106.55" stroke="rgb(0,0,0)" stroke-width="1.44" />
  <line x1="132.82" y1="103.66" x2="132.82" y2="102.22" stroke="rgb(0,0,0)" stroke-width="1.44" />
  <line x1="132.82" y1="102.22" x2="132.82" y2="100.78" stroke="rgb(0,0,0)" stroke-width="1.44" />
  <line x1="132.82" y1="97.89" x2="132.82" y2="95" stroke="rgb(0,0,0)" stroke-width="1.44" />
  <line x1="150" y1="76" x2="135.27" y2="84.5" stroke="rgb(0,0,0)" stroke-width="1.44" />
  <line x1="149.58" y1="80.4" x2="146.72" y2="82.05" stroke="rgb(0,0,0)" stroke-width="1.44" />
  <line x1="143.86" y1="83.7" x2="142.43" y2="84.53" stroke="rgb(0,0,0)" stroke-width="1.44" />
  <line x1="142.43" y1="84.53" x2="140.99" y2="85.36" stroke="rgb(0,0,0)" stroke-width="1.44" />
  <line x1="138.13" y1="87.01" x2="135.27" y2="88.66" stroke="rgb(0,0,0)" stroke-width="1.44" />
  <line id="mol35:Bond:0" class="event" x1="150" y1="76" x2="170.78" y2="88" stroke-width="8" opacity="0" />
  <line id="mol35:Bond:1" class="event" x1="170.78" y1="88" x2="170.78" y2="112" stroke-width="8" opacity="0" />
  <line id="mol35:Bond:2" class="event" x1="170.78" y1="112" x2="150" y2="124" stroke-width="8" opacity="0" />
  <line id="mol35:Bond:3" class="event" x1="150" y1="124" x2="129.22" y2="112" stroke-width="8" opacity="0" />
  <line id="mol35:Bond:4" class="event" x1="129.22" y1="112" x2="129.22" y2="88" stroke-width="8" opacity="0" />
  <line id="mol35:Bond:5" class="event" x1="150" y1="76" x2="129.22" y2="88" stroke-width="8" opacity="0" />
  <circle id="mol35:Atom:0" class="event" cx="150" cy="76" r="8" opacity="0" />
  <circle id="mol35:Atom:1" class="event" cx="170.78" cy="88" r="8" opacity="0" />
  <circle id="mol35:Atom:2" class="event" cx="170.78" cy="112" r="8" opacity="0" />
  <circle id="mol35:Atom:3" class="event" cx="150" cy="124" r="8" opacity="0" />
  <circle id="mol35:Atom:4" class="event" cx="129.22" cy="112" r="8" opacity="0" />
  <circle id="mol35:Atom:5" class="event" cx="129.22" cy="88" r="8" opacity="0" />
</svg>