<svg id="mol38" xmlns="http://www.w3.org/2000/svg" version="1.1" width="104px" height="178px" viewBox="101 8 104 178">
  <style> text {font-family: sans-serif;} #mol38 { pointer-events:none; } #mol38 .event  { pointer-events:all; } line { stroke-linecap:round; } polygon { stroke-linejoin:round; } </style>
  <text x="144.55" y="26.67" stroke="none" font-size="14" fill="rgb(255,13,13)">O</text>
  <text x="165.73" y="38.67" stroke="none" font-size="14" fill="rgb(48,80,248)">N</text>
  <text x="186.12" y="26.67" stroke="none" font-size="14" fill="rgb(255,13,13)">O</text>
  <text x="186.12" y="146.67" stroke="none" font-size="14" fill="rgb(255,13,13)">O</text>
  <line x1="155.55" y1="27.28" x2="163.83" y2="32.06" stroke="rgb(0,0,0)" stroke-width="1.44" />
  <line x1="157.35" y1="24.16" x2="165.63" y2="28.95" stroke="rgb(0,0,0)" stroke-width="1.44" />
  <line x1="177.74" y1="32.06" x2="186.02" y2="27.28" stroke="rgb(0,0,0)" stroke-width="1.44" />
  <line x1="175.94" y1="28.95" x2="184.22" y2="24.16" stroke="rgb(0,0,0)" stroke-width="1.44" />
  <line x1="170.78" y1="58" x2="191.57" y2="70" stroke="rgb(0,0,0)" stroke-width="1.44" />
  <line x1="171.2" y1="62.4" x2="174.47" y2="64.29" stroke="rgb(0,0,0)" stroke-width="1.44" />
  <line x1="177.74" y1="66.17" x2="179.38" y2="67.12" stroke="rgb(0,0,0)" stroke-width="1.44" />
  <line x1="179.38" y1="67.12" x2="181.01" y2="68.06" stroke="rgb(0,0,0)" stroke-width="1.44" />
  <line x1="184.28" y1="69.95" x2="187.55" y2="71.84" stroke="rgb(0,0,0)" stroke-width="1.44" />
  <line x1="191.57" y1="70" x2="191.57" y2="94" stroke="rgb(0,0,0)" stroke-width="1.44" />
  <line x1="187.97" y1="72.56" x2="187.97" y2="76.34" stroke="rgb(0,0,0)" stroke-width="1.44" />
  <line x1="187.97" y1="80.11" x2="187.97" y2="82" stroke="rgb(0,0,0)" stroke-width="1.44" />
  <line x1="187.97" y1="82" x2="187.97" y2="83.89" stroke="rgb(0,0,0)" stroke-width="1.44" />
  <line x1="187.97" y1="87.66" x2="187.97" y2="91.44" stroke="rgb(0,0,0)" stroke-width="1.44" />
  <line x1="191.57" y1="94" x2="170.78" y2="106" stroke="rgb(0,0,0)" stroke-width="1.44" />
  <line x1="187.55" y1="92.16" x2="184.28" y2="94.05" stroke="rgb(0,0,0)" stroke-width="1.44" />
  <line x1="181.01" y1="95.94" x2="179.38" y2="96.88" stroke="rgb(0,0,0)" stroke-width="1.44" />
  <line x1="179.38" y1="96.88" x2="177.74" y2="97.83" stroke="rgb(0,0,0)" stroke-width="1.44" />
  <line x1="174.47" y1="99.71" x2="171.2" y2="101.6" stroke="rgb(0,0,0)" stroke-width="1.44" />
  <line x1="170.78" y1="106" x2="150" y2="94" stroke="rgb(0,0,0)" stroke-width="1.44" />
  <line x1="170.37" y1="101.6" x2="167.1" y2="99.71" stroke="rgb(0,0,0)" stroke-width="1.44" />
  <line x1="163.83" y1="97.83" x2="162.19" y2="96.88" stroke="rgb(0,0,0)" stroke-width="1.44" />
  <line x1="162.19" y1="96.88" x2="160.56" y2="95.94" stroke="rgb(0,0,0)" stroke-width="1.44" />
  <line x1="157.29" y1="94.05" x2="154.02" y2="92.16" stroke="rgb(0,0,0)" stroke-width="1.44" />
  <line x1="150" y1="94" x2="150" y2="70" stroke="rgb(0,0,0)" stroke-width="1.44" />
  <line x1="153.6" y1="91.44" x2="153.6" y2="87.66" stroke="rgb(0,0,0)" stroke-width="1.44" />
  <line x1="153.6" y1="83.89" x2="153.6" y2="82" stroke="rgb(0,0,0)" stroke-width="1.44" />
  <line x1="153.6" y1="82" x2="153.6" y2="80.11" stroke="rgb(0,0,0)" stroke-width="1.44" />
  <line x1="153.6" y1="76.34" x2="153.6" y2="72.56" stroke="rgb(0,0,0)" stroke-width="1.44" />
  <line x1="170.78" y1="58" x2="150" y2="70" stroke="rgb(0,0,0)" stroke-width="1.44" />
  <line x1="170.37" y1="62.4" x2="167.1" y2="64.29" stroke="rgb(0,0,0)" stroke-width="1.44" />
  <line x1="163.83" y1="66.17" x2="162.19" y2="67.12" stroke="rgb(0,0,0)" stroke-width="1.44" />
  <line x1="162.19" y1="67.12" x2="160.56" y2="68.06" stroke="rgb(0,0,0)" stroke-width="1.44" />
  <line x1="157.29" y1="69.95" x2="154.02" y2="71.84" stroke="rgb(0,0,0)" stroke-width="1.44" />
  <line x1="168.98" y1="131.04" x2="184.22" y2="139.84" stroke="rgb(0,0,0)" stroke-width="1.44" />
  <line x1="170.78" y1="127.92" x2="186.02" y2="136.72" stroke="rgb(0,0,0)" stroke-width="1.44" />
  <line x1="150" y1="142" x2="150" y2="166" stroke="rgb(0,0,0)" stroke-width="1.44" />
  <line x1="146.4" y1="144.56" x2="146.4" y2="148.34" stroke="rgb(0,0,0)" stroke-width="1.44" />
  <line x1="146.4" y1="152.11" x2="146.4" y2="154" stroke="rgb(0,0,0)" stroke-width="1.44" />
  <line x1="146.4" y1="154" x2="146.4" y2="155.89" stroke="rgb(0,0,0)" stroke-width="1.44" />
  <line x1="146.4" y1="159.66" x2="146.4" y2="163.44" stroke="rgb(0,0,0)" stroke-width="1.44" />
  <line x1="150" y1="166" x2="129.22" y2="178" stroke="rgb(0,0,0)" stroke-width="1.44" />
  <line x1="145.98" y1="164.16" x2="142.71" y2="166.05" stroke="rgb(0,0,0)" stroke-width="1.44" />
  <line x1="139.44" y1="167.94" x2="137.81" y2="168.88" stroke="rgb(0,0,0)" stroke-width="1.44" />
  <line x1="137.81" y1="168.88" x2="136.17" y2="169.83" stroke="rgb(0,0,0)" stroke-width="1.44" />
  <line x1="132.9" y1="171.71" x2="129.63" y2="173.6" stroke="rgb(0,0,0)" stroke-width="1.44" />
  <line x1="129.22" y1="178" x2="108.43" y2="166" stroke="rgb(0,0,0)" stroke-width="1.44" />
  <line x1="128.8" y1="173.6" x2="125.53" y2="171.71" stroke="rgb(0,0,0)" stroke-width="1.44" />
  <line x1="122.26" y1="169.83" x2="120.62" y2="168.88" stroke="rgb(0,0,0)" stroke-width="1.44" />
  <line x1="120.62" y1="168.88" x2="118.99" y2="167.94" stroke="rgb(0,0,0)" stroke-width="1.44" />
  <line x1="115.72" y1="166.05" x2="112.45" y2="164.16" stroke="rgb(0,0,0)" stroke-width="1.44" />
  <line x1="108.43" y1="166" x2="108.43" y2="142" stroke="rgb(0,0,0)" stroke-width="1.44" />
  <line x1="112.03" y1="163.44" x2="112.03" y2="159.66" stroke="rgb(0,0,0)" stroke-width="1.44" />
  <line x1="112.03" y1="155.89" x2="112.03" y2="154" stroke="rgb(0,0,0)" stroke-width="1.44" />
  <line x1="112.03" y1="154" x2="112.03" y2="152.11" stroke="rgb(0,0,0)" stroke-width="1.44" />
  <line x1="112.03" y1="148.34" x2="112.03" y2="144.56" stroke="rgb(0,0,0)" stroke-width="1.44" />
  <line x1="108.43" y1="142" x2="129.22" y2="130" stroke="rgb(0,0,0)" stroke-width="1.44" />
  <line x1="112.45" y1="143.84" x2="115.72" y2="141.95" stroke="rgb(0,0,0)" stroke-width="1.44" />
  <line x1="118.99" y1="140.06" x2="120.62" y2="139.12" stroke="rgb(0,0,0)" stroke-width="1.44" />
  <line x1="120.62" y1="139.12" x2="122.26" y2="138.17" stroke="rgb(0,0,0)" stroke-width="1.44" />
  <line x1="125.53" y1="136.29" x2="128.8" y2="134.4" stroke="rgb(0,0,0)" stroke-width="1.44" />
  <line x1="150" y1="142" x2="129.22" y2="130" stroke="rgb(0,0,0)" stroke-width="1.44" />
  <line x1="145.98" y1="143.84" x2="142.71" y2="141.95" stroke="rgb(0,0,0)" stroke-width="1.44" />
  <line x1="139.44" y1="140.06" x2="137.81" y2="139.12" stroke="rgb(0,0,0)" stroke-width="1.44" />
  <line x1="137.81" y1="139.12" x2="136.17" y2="138.17" stroke="rgb(0,0,0)" stroke-width="1.44" />
  <line x1="132.9" y1="136.29" x2="129.63" y2="134.4" stroke="rgb(0,0,0)" stroke-width="1.44" />
  <line x1="170.78" y1="41" x2="170.78" y2="58" stroke="rgb(0,0,0)" stroke-width="1.44" />
  <line x1="170.78" y1="106" x2="170.78" y2="130" stroke="rgb(0,0,0)" stroke-width="1.44" />
  <line x1="170.78" y1="130" x2="150" y2="142" stroke="rgb(0,0,0)" stroke-width="1.44" />
  <line id="mol38:Bond:0" class="event" x1="150" y1="22" x2="170.78" y2="34" stroke-width="8" opacity="0" />
  <line id="mol38:Bond:1" class="event" x1="170.78" y1="34" x2="191.57" y2="22" stroke-width="8" opacity="0" />
  <line id="mol38:Bond:3" class="event" x1="170.78" y1="58" x2="191.57" y2="70" stroke-width="8" opacity="0" />
  <line id="mol38:Bond:4" class="event" x1="191.57" y1="70" x2="191.57" y2="94" stroke-width="8" opacity="0" />
  <line id="mol38:Bond:5" class="event" x1="191.57" y1="94" x2="170.78" y2="106" stroke-width="8" opacity="0" />
  <line id="mol38:Bond:6" class="event" x1="170.78" y1="106" x2="150" y2="94" stroke-width="8" opacity="0" />
  <line id="mol38:Bond:7" class="event" x1="150" y1="94" x2="150" y2="70" stroke-width="8" opacity="0" />
  <line id="mol38:Bond:8" class="event" x1="170.78" y1="58" x2="150" y2="70" stroke-width="8" opacity="0" />
  <line id="mol38:Bond:10" class="event" x1="170.78" y1="130" x2="191.57" y2="142" stroke-width="8" opacity="0" />
  <line id="mol38:Bond:12" class="event" x1="150" y1="142" x2="150" y2="166" stroke-width="8" opacity="0" />
  <line id="mol38:Bond:13" class="event" x1="150" y1="166" x2="129.22" y2="178" stroke-width="8" opacity="0" />
  <line id="mol38:Bond:14" class="event" x1="129.22" y1="178" x2="108.43" y2="166" stroke-width="8" opacity="0" />
  <line id="mol38:Bond:15" class="event" x1="108.43" y1="166" x2="108.43" y2="142" stroke-width="8" opacity="0" />
  <line id="mol38:Bond:16" class="event" x1="108.43" y1="142" x2="129.22" y2="130" stroke-width="8" opacity="0" />
  <line id="mol38:Bond:17" class="event" x1="150" y1="142" x2="129.22" y2="130" stroke-width="8" opacity="0" />
  <line id="mol38:Bond:2" class="event" x1="170.78" y1="34" x2="170.78" y2="58" stroke-width="8" opacity="0" />
  <line id="mol38:Bond:9" class="event" x1="170.78" y1="106" x2="170.78" y2="130" stroke-width="8" opacity="0" />
  <line id="mol38:Bond:11" class="event" x1="170.78" y1="130" x2="150" y2="142" stroke-width="8" opacity="0" />
  <circle id="mol38:Atom:0" class="event" cx="150" cy="22" r="8" opacity="0" />
  <circle id="mol38:Atom:1" class="event" cx="170.78" cy="34" r="8" opacity="0" />
  <circle id="mol38:Atom:2" class="event" cx="191.57" cy="22" r="8" opacity="0" />
  <circle id="mol38:Atom:3" class="event" cx="170.78" cy="58" r="8" opacity="0" />
  <circle id="mol38:Atom:4" class="event" cx="191.57" cy="70" r="8" opacity="0" />
  <circle id="mol38:Atom:5" class="event" cx="191.57" cy="94" r="8" opacity="0" />
  <circle id="mol38:Atom:6" class="event" cx="170.78" cy="106" r="8" opacity="0" />
  <circle id="mol38:Atom:7" class="event" cx="150" cy="94" r="8" opacity="0" />
  <circle id="mol38:Atom:8" class="event" cx="150" cy="70" r="8" opacity="0" />
  <circle id="mol38:Atom:9" class="event" cx="170.78" cy="130" r="8" opacity="0" />
  <circle id="mol38:Atom:10" class="event" cx="191.57" cy="142" r="8" opacity="0" />
  <circle id="mol38:Atom:11" class="event" cx="150" cy="142" r="8" opacity="0" />
  <circle id="mol38:Atom:12" class="event" cx="150" cy="166" r="8" opacity="0" />
  <circle id="mol38:Atom:13" class="event" cx="129.22" cy="178" r="8" opacity="0" />
  <circle id="mol38:Atom:14" class="event" cx="108.43" cy="166" r="8" opacity="0" />
  <circle id="mol38:Atom:15" class="event" cx="108.43" cy="142" r="8" opacity="0" />
  <circle id="mol38:Atom:16" class="event" cx="129.22" cy="130" r="8" opacity="0" />
</svg>