<svg id="mol39" xmlns="http://www.w3.org/2000/svg" version="1.1" width="85px" height="118px" viewBox="103 45 85 118">
  <style> text {font-family: sans-serif;} #mol39 { pointer-events:none; } #mol39 .event  { pointer-events:all; } line { stroke-linecap:round; } polygon { stroke-linejoin:round; } </style>
  <text x="156.12" y="152.67" stroke="none" font-size="14" fill="rgb(144,224,80)">F</text>
  <text x="111.82" y="80.67" stroke="none" font-size="14" fill="rgb(166,41,41)">Br</text>
  <line x1="160.39" y1="76" x2="181.18" y2="88" stroke="rgb(0,0,0)" stroke-width="1.44" />
  <line x1="160.81" y1="80.4" x2="164.08" y2="82.29" stroke="rgb(0,0,0)" stroke-width="1.44" />
  <line x1="167.35" y1="84.17" x2="168.99" y2="85.12" stroke="rgb(0,0,0)" stroke-width="1.44" />
  <line x1="168.99" y1="85.12" x2="170.62" y2="86.06" stroke="rgb(0,0,0)" stroke-width="1.44" />
  <line x1="173.89" y1="87.95" x2="177.16" y2="89.84" stroke="rgb(0,0,0)" stroke-width="1.44" />
  <line x1="181.18" y1="88" x2="181.18" y2="112" stroke="rgb(0,0,0)" stroke-width="1.44" />
  <line x1="177.58" y1="90.56" x2="177.58" y2="94.34" stroke="rgb(0,0,0)" stroke-width="1.44" />
  <line x1="177.58" y1="98.11" x2="177.58" y2="100" stroke="rgb(0,0,0)" stroke-width="1.44" />
  <line x1="177.58" y1="100" x2="177.58" y2="101.89" stroke="rgb(0,0,0)" stroke-width="1.44" />
  <line x1="177.58" y1="105.66" x2="177.58" y2="109.44" stroke="rgb(0,0,0)" stroke-width="1.44" />
  <line x1="181.18" y1="112" x2="160.39" y2="124" stroke="rgb(0,0,0)" stroke-width="1.44" />
  <line x1="177.16" y1="110.16" x2="173.89" y2="112.05" stroke="rgb(0,0,0)" stroke-width="1.44" />
  <line x1="170.62" y1="113.94" x2="168.99" y2="114.88" stroke="rgb(0,0,0)" stroke-width="1.44" />
  <line x1="168.99" y1="114.88" x2="167.35" y2="115.83" stroke="rgb(0,0,0)" stroke-width="1.44" />
  <line x1="164.08" y1="117.71" x2="160.81" y2="119.6" stroke="rgb(0,0,0)" stroke-width="1.44" />
  <line x1="160.39" y1="124" x2="139.61" y2="112" stroke="rgb(0,0,0)" stroke-width="1.44" />
  <line x1="159.98" y1="119.6" x2="156.71" y2="117.71" stroke="rgb(0,0,0)" stroke-width="1.44" />
  <line x1="153.44" y1="115.83" x2="151.8" y2="114.88" stroke="rgb(0,0,0)" stroke-width="1.44" />
  <line x1="151.8" y1="114.88" x2="150.17" y2="113.94" stroke="rgb(0,0,0)" stroke-width="1.44" />
  <line x1="146.9" y1="112.05" x2="143.63" y2="110.16" stroke="rgb(0,0,0)" stroke-width="1.44" />
  <line x1="139.61" y1="112" x2="139.61" y2="88" stroke="rgb(0,0,0)" stroke-width="1.44" />
  <line x1="143.21" y1="109.44" x2="143.21" y2="105.66" stroke="rgb(0,0,0)" stroke-width="1.44" />
  <line x1="143.21" y1="101.89" x2="143.21" y2="100" stroke="rgb(0,0,0)" stroke-width="1.44" />
  <line x1="143.21" y1="100" x2="143.21" y2="98.11" stroke="rgb(0,0,0)" stroke-width="1.44" />
  <line x1="143.21" y1="94.34" x2="143.21" y2="90.56" stroke="rgb(0,0,0)" stroke-width="1.44" />
  <line x1="160.39" y1="76" x2="139.61" y2="88" stroke="rgb(0,0,0)" stroke-width="1.44" />
  <line x1="159.98" y1="80.4" x2="156.71" y2="82.29" stroke="rgb(0,0,0)" stroke-width="1.44" />
  <line x1="153.44" y1="84.17" x2="151.8" y2="85.12" stroke="rgb(0,0,0)" stroke-width="1.44" />
  <line x1="151.8" y1="85.12" x2="150.17" y2="86.06" stroke="rgb(0,0,0)" stroke-width="1.44" />
  <line x1="146.9" y1="87.95" x2="143.63" y2="89.84" stroke="rgb(0,0,0)" stroke-width="1.44" />
  <line x1="160.39" y1="52" x2="160.39" y2="76" stroke="rgb(0,0,0)" stroke-width="1.44" />
  <line x1="160.39" y1="124" x2="160.39" y2="141" stroke="rgb(0,0,0)" stroke-width="1.44" />
  <line x1="139.61" y1="88" x2="126.82" y2="80.62" stroke="rgb(0,0,0)" stroke-width="1.44" />
  <line id="mol39:Bond:1" class="event" x1="160.39" y1="76" x2="181.18" y2="88" stroke-width="8" opacity="0" />
  <line id="mol39:Bond:2" class="event" x1="181.18" y1="88" x2="181.18" y2="112" stroke-width="8" opacity="0" />
  <line id="mol39:Bond:3" class="event" x1="181.18" y1="112" x2="160.39" y2="124" stroke-width="8" opacity="0" />
  <line id="mol39:Bond:5" class="event" x1="160.39" y1="124" x2="139.61" y2="112" stroke-width="8" opacity="0" />
  <line id="mol39:Bond:6" class="event" x1="139.61" y1="112" x2="139.61" y2="88" stroke-width="8" opacity="0" />
  <line id="mol39:Bond:7" class="event" x1="160.39" y1="76" x2="139.61" y2="88" stroke-width="8" opacity="0" />
  <line id="mol39:Bond:0" class="event" x1="160.39" y1="52" x2="160.39" y2="76" stroke-width="8" opacity="0" />
  <line id="mol39:Bond:4" class="event" x1="160.39" y1="124" x2="160.39" y2="148" stroke-width="8" opacity="0" />
  <line id="mol39:Bond:8" class="event" x1="139.61" y1="88" x2="118.82" y2="76" stroke-width="8" opacity="0" />
  <circle id="mol39:Atom:0" class="event" cx="160.39" cy="52" r="8" opacity="0" />
  <circle id="mol39:Atom:1" class="event" cx="160.39" cy="76" r="8" opacity="0" />
  <circle id="mol39:Atom:2" class="event" cx="181.18" cy="88" r="8" opacity="0" />
  <circle id="mol39:Atom:3" class="event" cx="181.18" cy="112" r="8" opacity="0" />
  <circle id="mol39:Atom:4" class="event" cx="160.39" cy="124" r="8" opacity="0" />
  <circle id="mol39:Atom:5" class="event" cx="160.39" cy="148" r="8" opacity="0" />
  <circle id="mol39:Atom:6" class="event" cx="139.61" cy="112" r="8" opacity="0" />
  <circle id="mol39:Atom:7" class="event" cx="139.61" cy="88" r="8" opacity="0" />
  <circle id="mol39:Atom:8" class="event" cx="118.82" cy="76" r="8" opacity="0" />
</svg>