<svg id="mol40" xmlns="http://www.w3.org/2000/svg" version="1.1" width="133px" height="70px" viewBox="84 65 133 70">
  <style> text {font-family: sans-serif;} #mol40 { pointer-events:none; } #mol40 .event  { pointer-events:all; } line { stroke-linecap:round; } polygon { stroke-linejoin:round; } </style>
  <line x1="169.42" y1="86.72" x2="192.89" y2="81.73" stroke="rgb(0,0,0)" stroke-width="1.44" />
  <line x1="172.67" y1="89.71" x2="176.36" y2="88.93" stroke="rgb(0,0,0)" stroke-width="1.44" />
  <line x1="180.06" y1="88.14" x2="181.9" y2="87.75" stroke="rgb(0,0,0)" stroke-width="1.44" />
  <line x1="181.9" y1="87.75" x2="183.75" y2="87.36" stroke="rgb(0,0,0)" stroke-width="1.44" />
  <line x1="187.44" y1="86.57" x2="191.13" y2="85.79" stroke="rgb(0,0,0)" stroke-width="1.44" />
  <line x1="192.89" y1="81.73" x2="208.95" y2="99.57" stroke="rgb(0,0,0)" stroke-width="1.44" />
  <line x1="191.93" y1="86.04" x2="194.46" y2="88.85" stroke="rgb(0,0,0)" stroke-width="1.44" />
  <line x1="196.98" y1="91.66" x2="198.25" y2="93.06" stroke="rgb(0,0,0)" stroke-width="1.44" />
  <line x1="198.25" y1="93.06" x2="199.51" y2="94.46" stroke="rgb(0,0,0)" stroke-width="1.44" />
  <line x1="202.04" y1="97.27" x2="204.56" y2="100.07" stroke="rgb(0,0,0)" stroke-width="1.44" />
  <line x1="208.95" y1="99.57" x2="201.53" y2="122.39" stroke="rgb(0,0,0)" stroke-width="1.44" />
  <line x1="204.74" y1="100.89" x2="203.57" y2="104.48" stroke="rgb(0,0,0)" stroke-width="1.44" />
  <line x1="202.4" y1="108.07" x2="201.82" y2="109.87" stroke="rgb(0,0,0)" stroke-width="1.44" />
  <line x1="201.82" y1="109.87" x2="201.24" y2="111.66" stroke="rgb(0,0,0)" stroke-width="1.44" />
  <line x1="200.07" y1="115.26" x2="198.9" y2="118.85" stroke="rgb(0,0,0)" stroke-width="1.44" />
  <line x1="201.53" y1="122.39" x2="178.06" y2="127.38" stroke="rgb(0,0,0)" stroke-width="1.44" />
  <line x1="198.28" y1="119.41" x2="194.59" y2="120.19" stroke="rgb(0,0,0)" stroke-width="1.44" />
  <line x1="190.89" y1="120.98" x2="189.05" y2="121.37" stroke="rgb(0,0,0)" stroke-width="1.44" />
  <line x1="189.05" y1="121.37" x2="187.2" y2="121.76" stroke="rgb(0,0,0)" stroke-width="1.44" />
  <line x1="183.51" y1="122.55" x2="179.82" y2="123.33" stroke="rgb(0,0,0)" stroke-width="1.44" />
  <line x1="178.06" y1="127.38" x2="162" y2="109.55" stroke="rgb(0,0,0)" stroke-width="1.44" />
  <line x1="179.02" y1="123.07" x2="176.49" y2="120.27" stroke="rgb(0,0,0)" stroke-width="1.44" />
  <line x1="173.97" y1="117.46" x2="172.71" y2="116.06" stroke="rgb(0,0,0)" stroke-width="1.44" />
  <line x1="172.71" y1="116.06" x2="171.44" y2="114.65" stroke="rgb(0,0,0)" stroke-width="1.44" />
  <line x1="168.92" y1="111.85" x2="166.39" y2="109.04" stroke="rgb(0,0,0)" stroke-width="1.44" />
  <line x1="169.42" y1="86.72" x2="162" y2="109.55" stroke="rgb(0,0,0)" stroke-width="1.44" />
  <line x1="172.05" y1="90.27" x2="170.88" y2="93.86" stroke="rgb(0,0,0)" stroke-width="1.44" />
  <line x1="169.72" y1="97.45" x2="169.13" y2="99.25" stroke="rgb(0,0,0)" stroke-width="1.44" />
  <line x1="169.13" y1="99.25" x2="168.55" y2="101.04" stroke="rgb(0,0,0)" stroke-width="1.44" />
  <line x1="167.38" y1="104.64" x2="166.22" y2="108.23" stroke="rgb(0,0,0)" stroke-width="1.44" />
  <line x1="138" y1="109.55" x2="121.94" y2="127.38" stroke="rgb(0,0,0)" stroke-width="1.44" />
  <line x1="133.61" y1="109.04" x2="131.08" y2="111.85" stroke="rgb(0,0,0)" stroke-width="1.44" />
  <line x1="128.56" y1="114.65" x2="127.29" y2="116.06" stroke="rgb(0,0,0)" stroke-width="1.44" />
  <line x1="127.29" y1="116.06" x2="126.03" y2="117.46" stroke="rgb(0,0,0)" stroke-width="1.44" />
  <line x1="123.51" y1="120.27" x2="120.98" y2="123.07" stroke="rgb(0,0,0)" stroke-width="1.44" />
  <line x1="121.94" y1="127.38" x2="98.47" y2="122.39" stroke="rgb(0,0,0)" stroke-width="1.44" />
  <line x1="120.18" y1="123.33" x2="116.49" y2="122.55" stroke="rgb(0,0,0)" stroke-width="1.44" />
  <line x1="112.8" y1="121.76" x2="110.95" y2="121.37" stroke="rgb(0,0,0)" stroke-width="1.44" />
  <line x1="110.95" y1="121.37" x2="109.11" y2="120.98" stroke="rgb(0,0,0)" stroke-width="1.44" />
  <line x1="105.41" y1="120.19" x2="101.72" y2="119.41" stroke="rgb(0,0,0)" stroke-width="1.44" />
  <line x1="98.47" y1="122.39" x2="91.05" y2="99.57" stroke="rgb(0,0,0)" stroke-width="1.44" />
  <line x1="101.1" y1="118.85" x2="99.93" y2="115.26" stroke="rgb(0,0,0)" stroke-width="1.44" />
  <line x1="98.76" y1="111.66" x2="98.18" y2="109.87" stroke="rgb(0,0,0)" stroke-width="1.44" />
  <line x1="98.18" y1="109.87" x2="97.6" y2="108.07" stroke="rgb(0,0,0)" stroke-width="1.44" />
  <line x1="96.43" y1="104.48" x2="95.26" y2="100.89" stroke="rgb(0,0,0)" stroke-width="1.44" />
  <line x1="91.05" y1="99.57" x2="107.11" y2="81.73" stroke="rgb(0,0,0)" stroke-width="1.44" />
  <line x1="95.44" y1="100.07" x2="97.96" y2="97.27" stroke="rgb(0,0,0)" stroke-width="1.44" />
  <line x1="100.49" y1="94.46" x2="101.75" y2="93.06" stroke="rgb(0,0,0)" stroke-width="1.44" />
  <line x1="101.75" y1="93.06" x2="103.02" y2="91.66" stroke="rgb(0,0,0)" stroke-width="1.44" />
  <line x1="105.54" y1="88.85" x2="108.07" y2="86.04" stroke="rgb(0,0,0)" stroke-width="1.44" />
  <line x1="107.11" y1="81.73" x2="130.58" y2="86.72" stroke="rgb(0,0,0)" stroke-width="1.44" />
  <line x1="108.87" y1="85.79" x2="112.56" y2="86.57" stroke="rgb(0,0,0)" stroke-width="1.44" />
  <line x1="116.25" y1="87.36" x2="118.1" y2="87.75" stroke="rgb(0,0,0)" stroke-width="1.44" />
  <line x1="118.1" y1="87.75" x2="119.94" y2="88.14" stroke="rgb(0,0,0)" stroke-width="1.44" />
  <line x1="123.64" y1="88.93" x2="127.33" y2="89.71" stroke="rgb(0,0,0)" stroke-width="1.44" />
  <line x1="138" y1="109.55" x2="130.58" y2="86.72" stroke="rgb(0,0,0)" stroke-width="1.44" />
  <line x1="133.78" y1="108.23" x2="132.62" y2="104.64" stroke="rgb(0,0,0)" stroke-width="1.44" />
  <line x1="131.45" y1="101.04" x2="130.87" y2="99.25" stroke="rgb(0,0,0)" stroke-width="1.44" />
  <line x1="130.87" y1="99.25" x2="130.28" y2="97.45" stroke="rgb(0,0,0)" stroke-width="1.44" />
  <line x1="129.12" y1="93.86" x2="127.95" y2="90.27" stroke="rgb(0,0,0)" stroke-width="1.44" />
  <line x1="150" y1="72.62" x2="169.42" y2="86.72" stroke="rgb(0,0,0)" stroke-width="1.44" />
  <line x1="162" y1="109.55" x2="138" y2="109.55" stroke="rgb(0,0,0)" stroke-width="1.44" />
  <line x1="150" y1="72.62" x2="130.58" y2="86.72" stroke="rgb(0,0,0)" stroke-width="1.44" />
  <line id="mol40:Bond:1" class="event" x1="169.42" y1="86.72" x2="192.89" y2="81.73" stroke-width="8" opacity="0" />
  <line id="mol40:Bond:2" class="event" x1="192.89" y1="81.73" x2="208.95" y2="99.57" stroke-width="8" opacity="0" />
  <line id="mol40:Bond:3" class="event" x1="208.95" y1="99.57" x2="201.53" y2="122.39" stroke-width="8" opacity="0" />
  <line id="mol40:Bond:4" class="event" x1="201.53" y1="122.39" x2="178.06" y2="127.38" stroke-width="8" opacity="0" />
  <line id="mol40:Bond:5" class="event" x1="178.06" y1="127.38" x2="162" y2="109.55" stroke-width="8" opacity="0" />
  <line id="mol40:Bond:6" class="event" x1="169.42" y1="86.72" x2="162" y2="109.55" stroke-width="8" opacity="0" />
  <line id="mol40:Bond:8" class="event" x1="138" y1="109.55" x2="121.94" y2="127.38" stroke-width="8" opacity="0" />
  <line id="mol40:Bond:9" class="event" x1="121.94" y1="127.38" x2="98.47" y2="122.39" stroke-width="8" opacity="0" />
  <line id="mol40:Bond:10" class="event" x1="98.47" y1="122.39" x2="91.05" y2="99.57" stroke-width="8" opacity="0" />
  <line id="mol40:Bond:11" class="event" x1="91.05" y1="99.57" x2="107.11" y2="81.73" stroke-width="8" opacity="0" />
  <line id="mol40:Bond:12" class="event" x1="107.11" y1="81.73" x2="130.58" y2="86.72" stroke-width="8" opacity="0" />
  <line id="mol40:Bond:14" class="event" x1="138" y1="109.55" x2="130.58" y2="86.72" stroke-width="8" opacity="0" />
  <line id="mol40:Bond:0" class="event" x1="150" y1="72.62" x2="169.42" y2="86.72" stroke-width="8" opacity="0" />
  <line id="mol40:Bond:7" class="event" x1="162" y1="109.55" x2="138" y2="109.55" stroke-width="8" opacity="0" />
  <line id="mol40:Bond:13" class="event" x1="150" y1="72.62" x2="130.58" y2="86.72" stroke-width="8" opacity="0" />
  <circle id="mol40:Atom:0" class="event" cx="150" cy="72.62" r="8" opacity="0" />
  <circle id="mol40:Atom:1" class="event" cx="169.42" cy="86.72" r="8" opacity="0" />
  <circle id="mol40:Atom:2" class="event" cx="192.89" cy="81.73" r="8" opacity="0" />
  <circle id="mol40:Atom:3" class="event" cx="208.95" cy="99.57" r="8" opacity="0" />
  <circle id="mol40:Atom:4" class="event" cx="201.53" cy="122.39" r="8" opacity="0" />
  <circle id="mol40:Atom:5" class="event" cx="178.06" cy="127.38" r="8" opacity="0" />
  <circle id="mol40:Atom:6" class="event" cx="162" cy="109.55" r="8" opacity="0" />
  <circle id="mol40:Atom:7" class="event" cx="138" cy="109.55" r="8" opacity="0" />
  <circle id="mol40:Atom:8" class="event" cx="121.94" cy="127.38" r="8" opacity="0" />
  <circle id="mol40:Atom:9" class="event" cx="98.47" cy="122.39" r="8" opacity="0" />
  <circle id="mol40:Atom:10" class="event" cx="91.05" cy="99.57" r="8" opacity="0" />
  <circle id="mol40:Atom:11" class="event" cx="107.11" cy="81.73" r="8" opacity="0" />
  <circle id="mol40:Atom:12" class="event" cx="130.58" cy="86.72" r="8" opacity="0" />
</svg>