<svg id="mol41" xmlns="http://www.w3.org/2000/svg" version="1.1" width="110px" height="118px" viewBox="95 45 110 118">
  <style> text {font-family: sans-serif;} #mol41 { pointer-events:none; } #mol41 .event  { pointer-events:all; } line { stroke-linecap:round; } polygon { stroke-linejoin:round; } </style>
  <text x="186.12" y="80.67" stroke="none" font-size="14" fill="rgb(255,13,13)">O</text>
  <text x="186.12" y="128.67" stroke="none" font-size="14" fill="rgb(255,13,13)">O</text>
  <text x="103.38" y="152.67" stroke="none" font-size="14" fill="rgb(48,80,248)">N</text>
  <line x1="129.22" y1="88" x2="129.22" y2="112" stroke="rgb(0,0,0)" stroke-width="1.44" />
  <line x1="132.82" y1="90.56" x2="132.82" y2="109.44" stroke="rgb(0,0,0)" stroke-width="1.44" />
  <line x1="150" y1="124" x2="170.78" y2="112" stroke="rgb(0,0,0)" stroke-width="1.44" />
  <line x1="150.42" y1="119.6" x2="166.77" y2="110.16" stroke="rgb(0,0,0)" stroke-width="1.44" />
  <line x1="170.78" y1="88" x2="150" y2="76" stroke="rgb(0,0,0)" stroke-width="1.44" />
  <line x1="166.77" y1="89.84" x2="150.42" y2="80.4" stroke="rgb(0,0,0)" stroke-width="1.44" />
  <line x1="129.22" y1="112" x2="150" y2="124" stroke="rgb(0,0,0)" stroke-width="1.44" />
  <line x1="170.78" y1="112" x2="170.78" y2="88" stroke="rgb(0,0,0)" stroke-width="1.44" />
  <line x1="150" y1="76" x2="129.22" y2="88" stroke="rgb(0,0,0)" stroke-width="1.44" />
  <line x1="170.78" y1="88" x2="185.12" y2="79.72" stroke="rgb(0,0,0)" stroke-width="1.44" />
  <line x1="191.57" y1="69" x2="191.57" y2="52" stroke="rgb(0,0,0)" stroke-width="1.44" />
  <line x1="170.78" y1="112" x2="185.12" y2="120.28" stroke="rgb(0,0,0)" stroke-width="1.44" />
  <line x1="191.57" y1="131" x2="191.57" y2="148" stroke="rgb(0,0,0)" stroke-width="1.44" />
  <line x1="129.22" y1="112" x2="108.43" y2="124" stroke="rgb(0,0,0)" stroke-width="1.44" />
  <line x1="108.43" y1="124" x2="108.43" y2="141" stroke="rgb(0,0,0)" stroke-width="1.44" />
  <line x1="104.83" y1="124" x2="104.83" y2="141" stroke="rgb(0,0,0)" stroke-width="1.44" />
  <line x1="112.03" y1="124" x2="112.03" y2="141" stroke="rgb(0,0,0)" stroke-width="1.44" />
  <line id="mol41:Bond:0" class="event" x1="129.22" y1="88" x2="129.22" y2="112" stroke-width="8" opacity="0" />
  <line id="mol41:Bond:2" class="event" x1="150" y1="124" x2="170.78" y2="112" stroke-width="8" opacity="0" />
  <line id="mol41:Bond:4" class="event" x1="170.78" y1="88" x2="150" y2="76" stroke-width="8" opacity="0" />
  <line id="mol41:Bond:1" class="event" x1="129.22" y1="112" x2="150" y2="124" stroke-width="8" opacity="0" />
  <line id="mol41:Bond:3" class="event" x1="170.78" y1="112" x2="170.78" y2="88" stroke-width="8" opacity="0" />
  <line id="mol41:Bond:5" class="event" x1="150" y1="76" x2="129.22" y2="88" stroke-width="8" opacity="0" />
  <line id="mol41:Bond:6" class="event" x1="170.78" y1="88" x2="191.57" y2="76" stroke-width="8" opacity="0" />
  <line id="mol41:Bond:7" class="event" x1="191.57" y1="76" x2="191.57" y2="52" stroke-width="8" opacity="0" />
  <line id="mol41:Bond:8" class="event" x1="170.78" y1="112" x2="191.57" y2="124" stroke-width="8" opacity="0" />
  <line id="mol41:Bond:9" class="event" x1="191.57" y1="124" x2="191.57" y2="148" stroke-width="8" opacity="0" />
  <line id="mol41:Bond:10" class="event" x1="129.22" y1="112" x2="108.43" y2="124" stroke-width="8" opacity="0" />
  <line id="mol41:Bond:11" class="event" x1="108.43" y1="124" x2="108.43" y2="148" stroke-width="8" opacity="0" />
  <circle id="mol41:Atom:0" class="event" cx="129.22" cy="88" r="8" opacity="0" />
  <circle id="mol41:Atom:1" class="event" cx="129.22" cy="112" r="8" opacity="0" />
  <circle id="mol41:Atom:2" class="event" cx="150" cy="124" r="8" opacity="0" />
  <circle id="mol41:Atom:3" class="event" cx="170.78" cy="112" r="8" opacity="0" />
  <circle id="mol41:Atom:4" class="event" cx="170.78" cy="88" r="8" opacity="0" />
  <circle id="mol41:Atom:5" class="event" cx="150" cy="76" r="8" opacity="0" />
  <circle id="mol41:Atom:6" class="event" cx="191.57" cy="76" r="8" opacity="0" />
  <circle id="mol41:Atom:7" class="event" cx="191.57" cy="52" r="8" opacity="0" />
  <circle id="mol41:Atom:8" class="event" cx="191.57" cy="124" r="8" opacity="0" />
  <circle id="mol41:Atom:9" class="event" cx="191.57" cy="148" r="8" opacity="0" />
  <circle id="mol41:Atom:10" class="event" cx="108.43" cy="124" r="8" opacity="0" />
  <circle id="mol41:Atom:11" class="event" cx="108.43" cy="148" r="8" opacity="0" />
</svg>