<svg id="mol45" xmlns="http://www.w3.org/2000/svg" version="1.1" width="56px" height="125px" viewBox="122 38 56 125">
  <style> text {font-family: sans-serif;} #mol45 { pointer-events:none; } #mol45 .event  { pointer-events:all; } line { stroke-linecap:round; } polygon { stroke-linejoin:round; } </style>
  <text x="144.55" y="56.67" stroke="none" font-size="14" fill="rgb(255,13,13)">O</text>
  <text x="144.55" y="152.67" stroke="none" font-size="14" fill="rgb(255,13,13)">O</text>
  <line x1="151.8" y1="77.04" x2="151.8" y2="59" stroke="rgb(0,0,0)" stroke-width="1.44" />
  <line x1="148.2" y1="77.04" x2="148.2" y2="59" stroke="rgb(0,0,0)" stroke-width="1.44" />
  <line x1="148.2" y1="122.96" x2="148.2" y2="141" stroke="rgb(0,0,0)" stroke-width="1.44" />
  <line x1="151.8" y1="122.96" x2="151.8" y2="141" stroke="rgb(0,0,0)" stroke-width="1.44" />
  <line x1="150" y1="76" x2="170.78" y2="88" stroke="rgb(0,0,0)" stroke-width="1.44" />
  <line x1="170.78" y1="88" x2="170.78" y2="112" stroke="rgb(0,0,0)" stroke-width="1.44" />
  <line x1="170.78" y1="112" x2="150" y2="124" stroke="rgb(0,0,0)" stroke-width="1.44" />
  <line x1="150" y1="124" x2="129.22" y2="112" stroke="rgb(0,0,0)" stroke-width="1.44" />
  <line x1="129.22" y1="112" x2="129.22" y2="88" stroke="rgb(0,0,0)" stroke-width="1.44" />
  <line x1="150" y1="76" x2="129.22" y2="88" stroke="rgb(0,0,0)" stroke-width="1.44" />
  <line id="mol45:Bond:0" class="event" x1="150" y1="52" x2="150" y2="76" stroke-width="8" opacity="0" />
  <line id="mol45:Bond:4" class="event" x1="150" y1="124" x2="150" y2="148" stroke-width="8" opacity="0" />
  <line id="mol45:Bond:1" class="event" x1="150" y1="76" x2="170.78" y2="88" stroke-width="8" opacity="0" />
  <line id="mol45:Bond:2" class="event" x1="170.78" y1="88" x2="170.78" y2="112" stroke-width="8" opacity="0" />
  <line id="mol45:Bond:3" class="event" x1="170.78" y1="112" x2="150" y2="124" stroke-width="8" opacity="0" />
  <line id="mol45:Bond:5" class="event" x1="150" y1="124" x2="129.22" y2="112" stroke-width="8" opacity="0" />
  <line id="mol45:Bond:6" class="event" x1="129.22" y1="112" x2="129.22" y2="88" stroke-width="8" opacity="0" />
  <line id="mol45:Bond:7" class="event" x1="150" y1="76" x2="129.22" y2="88" stroke-width="8" opacity="0" />
  <circle id="mol45:Atom:0" class="event" cx="150" cy="52" r="8" opacity="0" />
  <circle id="mol45:Atom:1" class="event" cx="150" cy="76" r="8" opacity="0" />
  <circle id="mol45:Atom:2" class="event" cx="170.78" cy="88" r="8" opacity="0" />
  <circle id="mol45:Atom:3" class="event" cx="170.78" cy="112" r="8" opacity="0" />
  <circle id="mol45:Atom:4" class="event" cx="150" cy="124" r="8" opacity="0" />
  <circle id="mol45:Atom:5" class="event" cx="150" cy="148" r="8" opacity="0" />
  <circle id="mol45:Atom:6" class="event" cx="129.22" cy="112" r="8" opacity="0" />
  <circle id="mol45:Atom:7" class="event" cx="129.22" cy="88" r="8" opacity="0" />
</svg>