<svg id="mol48" xmlns="http://www.w3.org/2000/svg" version="1.1" width="77px" height="118px" viewBox="111 38 77 118">
  <style> text {font-family: sans-serif;} #mol48 { pointer-events:none; } #mol48 .event  { pointer-events:all; } line { stroke-linecap:round; } polygon { stroke-linejoin:round; } </style>
  <text x="145.33" y="80.67" stroke="none" font-size="14" fill="rgb(205,205,38)">S</text>
  <text x="144.55" y="56.67" stroke="none" font-size="14" fill="rgb(255,13,13)">O</text>
  <text x="168.55" y="80.67" stroke="none" font-size="14" fill="rgb(255,13,13)">O</text>
  <text x="119.39" y="80.67" stroke="none" font-size="14" fill="rgb(31,240,31)">Cl</text>
  <line x1="150" y1="148" x2="129.22" y2="136" stroke="rgb(0,0,0)" stroke-width="1.44" />
  <line x1="149.58" y1="143.6" x2="146.31" y2="141.71" stroke="rgb(0,0,0)" stroke-width="1.44" />
  <line x1="143.04" y1="139.83" x2="141.41" y2="138.88" stroke="rgb(0,0,0)" stroke-width="1.44" />
  <line x1="141.41" y1="138.88" x2="139.77" y2="137.94" stroke="rgb(0,0,0)" stroke-width="1.44" />
  <line x1="136.5" y1="136.05" x2="133.23" y2="134.16" stroke="rgb(0,0,0)" stroke-width="1.44" />
  <line x1="129.22" y1="136" x2="129.22" y2="112" stroke="rgb(0,0,0)" stroke-width="1.44" />
  <line x1="132.82" y1="133.44" x2="132.82" y2="129.66" stroke="rgb(0,0,0)" stroke-width="1.44" />
  <line x1="132.82" y1="125.89" x2="132.82" y2="124" stroke="rgb(0,0,0)" stroke-width="1.44" />
  <line x1="132.82" y1="124" x2="132.82" y2="122.11" stroke="rgb(0,0,0)" stroke-width="1.44" />
  <line x1="132.82" y1="118.34" x2="132.82" y2="114.56" stroke="rgb(0,0,0)" stroke-width="1.44" />
  <line x1="129.22" y1="112" x2="150" y2="100" stroke="rgb(0,0,0)" stroke-width="1.44" />
  <line x1="133.23" y1="113.84" x2="136.5" y2="111.95" stroke="rgb(0,0,0)" stroke-width="1.44" />
  <line x1="139.77" y1="110.06" x2="141.41" y2="109.12" stroke="rgb(0,0,0)" stroke-width="1.44" />
  <line x1="141.41" y1="109.12" x2="143.04" y2="108.17" stroke="rgb(0,0,0)" stroke-width="1.44" />
  <line x1="146.31" y1="106.29" x2="149.58" y2="104.4" stroke="rgb(0,0,0)" stroke-width="1.44" />
  <line x1="150" y1="100" x2="170.78" y2="112" stroke="rgb(0,0,0)" stroke-width="1.44" />
  <line x1="150.42" y1="104.4" x2="153.69" y2="106.29" stroke="rgb(0,0,0)" stroke-width="1.44" />
  <line x1="156.96" y1="108.17" x2="158.59" y2="109.12" stroke="rgb(0,0,0)" stroke-width="1.44" />
  <line x1="158.59" y1="109.12" x2="160.23" y2="110.06" stroke="rgb(0,0,0)" stroke-width="1.44" />
  <line x1="163.5" y1="111.95" x2="166.77" y2="113.84" stroke="rgb(0,0,0)" stroke-width="1.44" />
  <line x1="170.78" y1="112" x2="170.78" y2="136" stroke="rgb(0,0,0)" stroke-width="1.44" />
  <line x1="167.18" y1="114.56" x2="167.18" y2="118.34" stroke="rgb(0,0,0)" stroke-width="1.44" />
  <line x1="167.18" y1="122.11" x2="167.18" y2="124" stroke="rgb(0,0,0)" stroke-width="1.44" />
  <line x1="167.18" y1="124" x2="167.18" y2="125.89" stroke="rgb(0,0,0)" stroke-width="1.44" />
  <line x1="167.18" y1="129.66" x2="167.18" y2="133.44" stroke="rgb(0,0,0)" stroke-width="1.44" />
  <line x1="150" y1="148" x2="170.78" y2="136" stroke="rgb(0,0,0)" stroke-width="1.44" />
  <line x1="150.42" y1="143.6" x2="153.69" y2="141.71" stroke="rgb(0,0,0)" stroke-width="1.44" />
  <line x1="156.96" y1="139.83" x2="158.59" y2="138.88" stroke="rgb(0,0,0)" stroke-width="1.44" />
  <line x1="158.59" y1="138.88" x2="160.23" y2="137.94" stroke="rgb(0,0,0)" stroke-width="1.44" />
  <line x1="163.5" y1="136.05" x2="166.77" y2="134.16" stroke="rgb(0,0,0)" stroke-width="1.44" />
  <line x1="151.8" y1="69" x2="151.8" y2="59" stroke="rgb(0,0,0)" stroke-width="1.44" />
  <line x1="148.2" y1="69" x2="148.2" y2="59" stroke="rgb(0,0,0)" stroke-width="1.44" />
  <line x1="155.67" y1="77.8" x2="167.55" y2="77.8" stroke="rgb(0,0,0)" stroke-width="1.44" />
  <line x1="155.67" y1="74.2" x2="167.55" y2="74.2" stroke="rgb(0,0,0)" stroke-width="1.44" />
  <line x1="150" y1="100" x2="150" y2="83" stroke="rgb(0,0,0)" stroke-width="1.44" />
  <line x1="144.33" y1="76" x2="133.61" y2="76" stroke="rgb(0,0,0)" stroke-width="1.44" />
  <line id="mol48:Bond:0" class="event" x1="150" y1="148" x2="129.22" y2="136" stroke-width="8" opacity="0" />
  <line id="mol48:Bond:1" class="event" x1="129.22" y1="136" x2="129.22" y2="112" stroke-width="8" opacity="0" />
  <line id="mol48:Bond:2" class="event" x1="129.22" y1="112" x2="150" y2="100" stroke-width="8" opacity="0" />
  <line id="mol48:Bond:3" class="event" x1="150" y1="100" x2="170.78" y2="112" stroke-width="8" opacity="0" />
  <line id="mol48:Bond:4" class="event" x1="170.78" y1="112" x2="170.78" y2="136" stroke-width="8" opacity="0" />
  <line id="mol48:Bond:5" class="event" x1="150" y1="148" x2="170.78" y2="136" stroke-width="8" opacity="0" />
  <line id="mol48:Bond:7" class="event" x1="150" y1="76" x2="150" y2="52" stroke-width="8" opacity="0" />
  <line id="mol48:Bond:8" class="event" x1="150" y1="76" x2="174" y2="76" stroke-width="8" opacity="0" />
  <line id="mol48:Bond:6" class="event" x1="150" y1="100" x2="150" y2="76" stroke-width="8" opacity="0" />
  <line id="mol48:Bond:9" class="event" x1="150" y1="76" x2="126" y2="76" stroke-width="8" opacity="0" />
  <circle id="mol48:Atom:0" class="event" cx="150" cy="148" r="8" opacity="0" />
  <circle id="mol48:Atom:1" class="event" cx="129.22" cy="136" r="8" opacity="0" />
  <circle id="mol48:Atom:2" class="event" cx="129.22" cy="112" r="8" opacity="0" />
  <circle id="mol48:Atom:3" class="event" cx="150" cy="100" r="8" opacity="0" />
  <circle id="mol48:Atom:4" class="event" cx="170.78" cy="112" r="8" opacity="0" />
  <circle id="mol48:Atom:5" class="event" cx="170.78" cy="136" r="8" opacity="0" />
  <circle id="mol48:Atom:6" class="event" cx="150" cy="76" r="8" opacity="0" />
  <circle id="mol48:Atom:7" class="event" cx="150" cy="52" r="8" opacity="0" />
  <circle id="mol48:Atom:8" class="event" cx="174" cy="76" r="8" opacity="0" />
  <circle id="mol48:Atom:9" class="event" cx="126" cy="76" r="8" opacity="0" />
</svg>