<svg id="mol49" xmlns="http://www.w3.org/2000/svg" version="1.1" width="82px" height="210px" viewBox="109 -5 82 210">
  <style> text {font-family: sans-serif;} #mol49 { pointer-events:none; } #mol49 .event  { pointer-events:all; } line { stroke-linecap:round; } polygon { stroke-linejoin:round; } </style>
  <text x="117.12" y="13.89" stroke="none" font-size="14" fill="rgb(255,13,13)">O</text>
  <text x="137.52" y="119.88" stroke="none" font-size="14" fill="rgb(255,13,13)">O</text>
  <line x1="143.85" y1="19.47" x2="129.9" y2="11.42" stroke="rgb(0,0,0)" stroke-width="1.41" />
  <line x1="139.91" y1="21.27" x2="128.13" y2="14.48" stroke="rgb(0,0,0)" stroke-width="1.41" />
  <line x1="142.96" y1="44.55" x2="163.36" y2="56.33" stroke="rgb(0,0,0)" stroke-width="1.41" />
  <line x1="143.37" y1="48.87" x2="146.58" y2="50.72" stroke="rgb(0,0,0)" stroke-width="1.41" />
  <line x1="149.79" y1="52.57" x2="151.4" y2="53.5" stroke="rgb(0,0,0)" stroke-width="1.41" />
  <line x1="151.4" y1="53.5" x2="153" y2="54.43" stroke="rgb(0,0,0)" stroke-width="1.41" />
  <line x1="156.21" y1="56.28" x2="159.42" y2="58.13" stroke="rgb(0,0,0)" stroke-width="1.41" />
  <line x1="163.36" y1="56.33" x2="163.36" y2="79.88" stroke="rgb(0,0,0)" stroke-width="1.41" />
  <line x1="159.83" y1="58.84" x2="159.83" y2="62.55" stroke="rgb(0,0,0)" stroke-width="1.41" />
  <line x1="159.83" y1="66.25" x2="159.83" y2="68.11" stroke="rgb(0,0,0)" stroke-width="1.41" />
  <line x1="159.83" y1="68.11" x2="159.83" y2="69.96" stroke="rgb(0,0,0)" stroke-width="1.41" />
  <line x1="159.83" y1="73.66" x2="159.83" y2="77.37" stroke="rgb(0,0,0)" stroke-width="1.41" />
  <line x1="163.36" y1="79.88" x2="142.96" y2="91.66" stroke="rgb(0,0,0)" stroke-width="1.41" />
  <line x1="159.42" y1="78.08" x2="156.21" y2="79.93" stroke="rgb(0,0,0)" stroke-width="1.41" />
  <line x1="153" y1="81.78" x2="151.4" y2="82.71" stroke="rgb(0,0,0)" stroke-width="1.41" />
  <line x1="151.4" y1="82.71" x2="149.79" y2="83.64" stroke="rgb(0,0,0)" stroke-width="1.41" />
  <line x1="146.58" y1="85.49" x2="143.37" y2="87.34" stroke="rgb(0,0,0)" stroke-width="1.41" />
  <line x1="163.36" y1="150.54" x2="183.76" y2="162.32" stroke="rgb(0,0,0)" stroke-width="1.41" />
  <line x1="163.77" y1="154.86" x2="166.98" y2="156.71" stroke="rgb(0,0,0)" stroke-width="1.41" />
  <line x1="170.19" y1="158.56" x2="171.79" y2="159.49" stroke="rgb(0,0,0)" stroke-width="1.41" />
  <line x1="171.79" y1="159.49" x2="173.4" y2="160.41" stroke="rgb(0,0,0)" stroke-width="1.41" />
  <line x1="176.61" y1="162.27" x2="179.82" y2="164.12" stroke="rgb(0,0,0)" stroke-width="1.41" />
  <line x1="183.76" y1="162.32" x2="183.76" y2="185.87" stroke="rgb(0,0,0)" stroke-width="1.41" />
  <line x1="180.23" y1="164.83" x2="180.23" y2="168.53" stroke="rgb(0,0,0)" stroke-width="1.41" />
  <line x1="180.23" y1="172.24" x2="180.23" y2="174.09" stroke="rgb(0,0,0)" stroke-width="1.41" />
  <line x1="180.23" y1="174.09" x2="180.23" y2="175.94" stroke="rgb(0,0,0)" stroke-width="1.41" />
  <line x1="180.23" y1="179.65" x2="180.23" y2="183.36" stroke="rgb(0,0,0)" stroke-width="1.41" />
  <line x1="183.76" y1="185.87" x2="163.36" y2="197.64" stroke="rgb(0,0,0)" stroke-width="1.41" />
  <line x1="179.82" y1="184.07" x2="176.61" y2="185.92" stroke="rgb(0,0,0)" stroke-width="1.41" />
  <line x1="173.4" y1="187.77" x2="171.79" y2="188.7" stroke="rgb(0,0,0)" stroke-width="1.41" />
  <line x1="171.79" y1="188.7" x2="170.19" y2="189.62" stroke="rgb(0,0,0)" stroke-width="1.41" />
  <line x1="166.98" y1="191.48" x2="163.77" y2="193.33" stroke="rgb(0,0,0)" stroke-width="1.41" />
  <line x1="163.36" y1="197.64" x2="142.96" y2="185.87" stroke="rgb(0,0,0)" stroke-width="1.41" />
  <line x1="162.95" y1="193.33" x2="159.74" y2="191.48" stroke="rgb(0,0,0)" stroke-width="1.41" />
  <line x1="156.53" y1="189.62" x2="154.93" y2="188.7" stroke="rgb(0,0,0)" stroke-width="1.41" />
  <line x1="154.93" y1="188.7" x2="153.33" y2="187.77" stroke="rgb(0,0,0)" stroke-width="1.41" />
  <line x1="150.12" y1="185.92" x2="146.91" y2="184.07" stroke="rgb(0,0,0)" stroke-width="1.41" />
  <line x1="142.96" y1="185.87" x2="142.96" y2="162.32" stroke="rgb(0,0,0)" stroke-width="1.41" />
  <line x1="146.5" y1="183.36" x2="146.5" y2="179.65" stroke="rgb(0,0,0)" stroke-width="1.41" />
  <line x1="146.5" y1="175.94" x2="146.5" y2="174.09" stroke="rgb(0,0,0)" stroke-width="1.41" />
  <line x1="146.5" y1="174.09" x2="146.5" y2="172.24" stroke="rgb(0,0,0)" stroke-width="1.41" />
  <line x1="146.5" y1="168.53" x2="146.5" y2="164.83" stroke="rgb(0,0,0)" stroke-width="1.41" />
  <line x1="163.36" y1="150.54" x2="142.96" y2="162.32" stroke="rgb(0,0,0)" stroke-width="1.41" />
  <line x1="162.95" y1="154.86" x2="159.74" y2="156.71" stroke="rgb(0,0,0)" stroke-width="1.41" />
  <line x1="156.53" y1="158.56" x2="154.93" y2="159.49" stroke="rgb(0,0,0)" stroke-width="1.41" />
  <line x1="154.93" y1="159.49" x2="153.33" y2="160.41" stroke="rgb(0,0,0)" stroke-width="1.41" />
  <line x1="150.12" y1="162.27" x2="146.91" y2="164.12" stroke="rgb(0,0,0)" stroke-width="1.41" />
  <line x1="142.96" y1="91.66" x2="122.57" y2="79.88" stroke="rgb(0,0,0)" stroke-width="1.41" />
  <line x1="142.56" y1="87.34" x2="139.35" y2="85.49" stroke="rgb(0,0,0)" stroke-width="1.41" />
  <line x1="136.14" y1="83.64" x2="134.53" y2="82.71" stroke="rgb(0,0,0)" stroke-width="1.41" />
  <line x1="134.53" y1="82.71" x2="132.93" y2="81.78" stroke="rgb(0,0,0)" stroke-width="1.41" />
  <line x1="129.72" y1="79.93" x2="126.51" y2="78.08" stroke="rgb(0,0,0)" stroke-width="1.41" />
  <line x1="122.57" y1="79.88" x2="122.57" y2="56.33" stroke="rgb(0,0,0)" stroke-width="1.41" />
  <line x1="126.1" y1="77.37" x2="126.1" y2="73.66" stroke="rgb(0,0,0)" stroke-width="1.41" />
  <line x1="126.1" y1="69.96" x2="126.1" y2="68.11" stroke="rgb(0,0,0)" stroke-width="1.41" />
  <line x1="126.1" y1="68.11" x2="126.1" y2="66.25" stroke="rgb(0,0,0)" stroke-width="1.41" />
  <line x1="126.1" y1="62.55" x2="126.1" y2="58.84" stroke="rgb(0,0,0)" stroke-width="1.41" />
  <line x1="142.96" y1="44.55" x2="122.57" y2="56.33" stroke="rgb(0,0,0)" stroke-width="1.41" />
  <line x1="142.56" y1="48.87" x2="139.35" y2="50.72" stroke="rgb(0,0,0)" stroke-width="1.41" />
  <line x1="136.14" y1="52.57" x2="134.53" y2="53.5" stroke="rgb(0,0,0)" stroke-width="1.41" />
  <line x1="134.53" y1="53.5" x2="132.93" y2="54.43" stroke="rgb(0,0,0)" stroke-width="1.41" />
  <line x1="129.72" y1="56.28" x2="126.51" y2="58.13" stroke="rgb(0,0,0)" stroke-width="1.41" />
  <line x1="143.85" y1="19.47" x2="142.96" y2="44.55" stroke="rgb(0,0,0)" stroke-width="1.41" />
  <line x1="142.96" y1="91.66" x2="142.96" y2="108.21" stroke="rgb(0,0,0)" stroke-width="1.41" />
  <line x1="149.41" y1="118.93" x2="163.36" y2="126.99" stroke="rgb(0,0,0)" stroke-width="1.41" />
  <line x1="163.36" y1="126.99" x2="163.36" y2="150.54" stroke="rgb(0,0,0)" stroke-width="1.41" />
  <line id="mol49:Bond:0" class="event" x1="122.57" y1="9.22" x2="142.96" y2="21" stroke-width="8" opacity="0" />
  <line id="mol49:Bond:2" class="event" x1="142.96" y1="44.55" x2="163.36" y2="56.33" stroke-width="8" opacity="0" />
  <line id="mol49:Bond:3" class="event" x1="163.36" y1="56.33" x2="163.36" y2="79.88" stroke-width="8" opacity="0" />
  <line id="mol49:Bond:4" class="event" x1="163.36" y1="79.88" x2="142.96" y2="91.66" stroke-width="8" opacity="0" />
  <line id="mol49:Bond:8" class="event" x1="163.36" y1="150.54" x2="183.76" y2="162.32" stroke-width="8" opacity="0" />
  <line id="mol49:Bond:9" class="event" x1="183.76" y1="162.32" x2="183.76" y2="185.87" stroke-width="8" opacity="0" />
  <line id="mol49:Bond:10" class="event" x1="183.76" y1="185.87" x2="163.36" y2="197.64" stroke-width="8" opacity="0" />
  <line id="mol49:Bond:11" class="event" x1="163.36" y1="197.64" x2="142.96" y2="185.87" stroke-width="8" opacity="0" />
  <line id="mol49:Bond:12" class="event" x1="142.96" y1="185.87" x2="142.96" y2="162.32" stroke-width="8" opacity="0" />
  <line id="mol49:Bond:13" class="event" x1="163.36" y1="150.54" x2="142.96" y2="162.32" stroke-width="8" opacity="0" />
  <line id="mol49:Bond:14" class="event" x1="142.96" y1="91.66" x2="122.57" y2="79.88" stroke-width="8" opacity="0" />
  <line id="mol49:Bond:15" class="event" x1="122.57" y1="79.88" x2="122.57" y2="56.33" stroke-width="8" opacity="0" />
  <line id="mol49:Bond:16" class="event" x1="142.96" y1="44.55" x2="122.57" y2="56.33" stroke-width="8" opacity="0" />
  <line id="mol49:Bond:1" class="event" x1="142.96" y1="21" x2="142.96" y2="44.55" stroke-width="8" opacity="0" />
  <line id="mol49:Bond:5" class="event" x1="142.96" y1="91.66" x2="142.96" y2="115.21" stroke-width="8" opacity="0" />
  <line id="mol49:Bond:6" class="event" x1="142.96" y1="115.21" x2="163.36" y2="126.99" stroke-width="8" opacity="0" />
  <line id="mol49:Bond:7" class="event" x1="163.36" y1="126.99" x2="163.36" y2="150.54" stroke-width="8" opacity="0" />
  <circle id="mol49:Atom:0" class="event" cx="122.57" cy="9.22" r="8" opacity="0" />
  <circle id="mol49:Atom:1" class="event" cx="142.96" cy="21" r="8" opacity="0" />
  <circle id="mol49:Atom:2" class="event" cx="142.96" cy="44.55" r="8" opacity="0" />
  <circle id="mol49:Atom:3" class="event" cx="163.36" cy="56.33" r="8" opacity="0" />
  <circle id="mol49:Atom:4" class="event" cx="163.36" cy="79.88" r="8" opacity="0" />
  <circle id="mol49:Atom:5" class="event" cx="142.96" cy="91.66" r="8" opacity="0" />
  <circle id="mol49:Atom:6" class="event" cx="142.96" cy="115.21" r="8" opacity="0" />
  <circle id="mol49:Atom:7" class="event" cx="163.36" cy="126.99" r="8" opacity="0" />
  <circle id="mol49:Atom:8" class="event" cx="163.36" cy="150.54" r="8" opacity="0" />
  <circle id="mol49:Atom:9" class="event" cx="183.76" cy="162.32" r="8" opacity="0" />
  <circle id="mol49:Atom:10" class="event" cx="183.76" cy="185.87" r="8" opacity="0" />
  <circle id="mol49:Atom:11" class="event" cx="163.36" cy="197.64" r="8" opacity="0" />
  <circle id="mol49:Atom:12" class="event" cx="142.96" cy="185.87" r="8" opacity="0" />
  <circle id="mol49:Atom:13" class="event" cx="142.96" cy="162.32" r="8" opacity="0" />
  <circle id="mol49:Atom:14" class="event" cx="122.57" cy="79.88" r="8" opacity="0" />
  <circle id="mol49:Atom:15" class="event" cx="122.57" cy="56.33" r="8" opacity="0" />
</svg>