<svg id="mol51" xmlns="http://www.w3.org/2000/svg" version="1.1" width="100px" height="171px" viewBox="105 15 100 171">
  <style> text {font-family: sans-serif;} #mol51 { pointer-events:none; } #mol51 .event  { pointer-events:all; } line { stroke-linecap:round; } polygon { stroke-linejoin:round; } </style>
  <text x="109.04" y="195.75" stroke="none" font-size="12" fill="rgb(160,0,0)">unknown chirality</text>
  <text x="175.73" y="98.67" stroke="none" font-size="14" fill="rgb(255,13,13)">O</text>
  <text x="186.62" y="98.67" stroke="none" font-size="14" fill="rgb(255,13,13)">H</text>
  <text x="113.38" y="110.67" stroke="none" font-size="14" fill="rgb(255,13,13)">O</text>
  <line x1="160.39" y1="130" x2="181.18" y2="142" stroke="rgb(0,0,0)" stroke-width="1.44" />
  <line x1="160.81" y1="134.4" x2="164.08" y2="136.29" stroke="rgb(0,0,0)" stroke-width="1.44" />
  <line x1="167.35" y1="138.17" x2="168.98" y2="139.12" stroke="rgb(0,0,0)" stroke-width="1.44" />
  <line x1="168.98" y1="139.12" x2="170.62" y2="140.06" stroke="rgb(0,0,0)" stroke-width="1.44" />
  <line x1="173.89" y1="141.95" x2="177.16" y2="143.84" stroke="rgb(0,0,0)" stroke-width="1.44" />
  <line x1="181.18" y1="142" x2="181.18" y2="166" stroke="rgb(0,0,0)" stroke-width="1.44" />
  <line x1="177.58" y1="144.56" x2="177.58" y2="148.34" stroke="rgb(0,0,0)" stroke-width="1.44" />
  <line x1="177.58" y1="152.11" x2="177.58" y2="154" stroke="rgb(0,0,0)" stroke-width="1.44" />
  <line x1="177.58" y1="154" x2="177.58" y2="155.89" stroke="rgb(0,0,0)" stroke-width="1.44" />
  <line x1="177.58" y1="159.66" x2="177.58" y2="163.44" stroke="rgb(0,0,0)" stroke-width="1.44" />
  <line x1="181.18" y1="166" x2="160.39" y2="178" stroke="rgb(0,0,0)" stroke-width="1.44" />
  <line x1="177.16" y1="164.16" x2="173.89" y2="166.05" stroke="rgb(0,0,0)" stroke-width="1.44" />
  <line x1="170.62" y1="167.94" x2="168.98" y2="168.88" stroke="rgb(0,0,0)" stroke-width="1.44" />
  <line x1="168.98" y1="168.88" x2="167.35" y2="169.83" stroke="rgb(0,0,0)" stroke-width="1.44" />
  <line x1="164.08" y1="171.71" x2="160.81" y2="173.6" stroke="rgb(0,0,0)" stroke-width="1.44" />
  <line x1="160.39" y1="178" x2="139.61" y2="166" stroke="rgb(0,0,0)" stroke-width="1.44" />
  <line x1="159.98" y1="173.6" x2="156.71" y2="171.71" stroke="rgb(0,0,0)" stroke-width="1.44" />
  <line x1="153.44" y1="169.83" x2="151.8" y2="168.88" stroke="rgb(0,0,0)" stroke-width="1.44" />
  <line x1="151.8" y1="168.88" x2="150.17" y2="167.94" stroke="rgb(0,0,0)" stroke-width="1.44" />
  <line x1="146.9" y1="166.05" x2="143.63" y2="164.16" stroke="rgb(0,0,0)" stroke-width="1.44" />
  <line x1="139.61" y1="166" x2="139.61" y2="142" stroke="rgb(0,0,0)" stroke-width="1.44" />
  <line x1="143.21" y1="163.44" x2="143.21" y2="159.66" stroke="rgb(0,0,0)" stroke-width="1.44" />
  <line x1="143.21" y1="155.89" x2="143.21" y2="154" stroke="rgb(0,0,0)" stroke-width="1.44" />
  <line x1="143.21" y1="154" x2="143.21" y2="152.11" stroke="rgb(0,0,0)" stroke-width="1.44" />
  <line x1="143.21" y1="148.34" x2="143.21" y2="144.56" stroke="rgb(0,0,0)" stroke-width="1.44" />
  <line x1="160.39" y1="130" x2="139.61" y2="142" stroke="rgb(0,0,0)" stroke-width="1.44" />
  <line x1="159.98" y1="134.4" x2="156.71" y2="136.29" stroke="rgb(0,0,0)" stroke-width="1.44" />
  <line x1="153.44" y1="138.17" x2="151.8" y2="139.12" stroke="rgb(0,0,0)" stroke-width="1.44" />
  <line x1="151.8" y1="139.12" x2="150.17" y2="140.06" stroke="rgb(0,0,0)" stroke-width="1.44" />
  <line x1="146.9" y1="141.95" x2="143.63" y2="143.84" stroke="rgb(0,0,0)" stroke-width="1.44" />
  <line x1="139.61" y1="91.92" x2="124.37" y2="100.72" stroke="rgb(0,0,0)" stroke-width="1.44" />
  <line x1="141.41" y1="95.04" x2="126.17" y2="103.84" stroke="rgb(0,0,0)" stroke-width="1.44" />
  <line x1="139.61" y1="70" x2="118.82" y2="58" stroke="rgb(0,0,0)" stroke-width="1.44" />
  <line x1="139.19" y1="65.6" x2="135.92" y2="63.71" stroke="rgb(0,0,0)" stroke-width="1.44" />
  <line x1="132.65" y1="61.83" x2="131.02" y2="60.88" stroke="rgb(0,0,0)" stroke-width="1.44" />
  <line x1="131.02" y1="60.88" x2="129.38" y2="59.94" stroke="rgb(0,0,0)" stroke-width="1.44" />
  <line x1="126.11" y1="58.05" x2="122.84" y2="56.16" stroke="rgb(0,0,0)" stroke-width="1.44" />
  <line x1="118.82" y1="58" x2="118.82" y2="34" stroke="rgb(0,0,0)" stroke-width="1.44" />
  <line x1="122.42" y1="55.44" x2="122.42" y2="51.66" stroke="rgb(0,0,0)" stroke-width="1.44" />
  <line x1="122.42" y1="47.89" x2="122.42" y2="46" stroke="rgb(0,0,0)" stroke-width="1.44" />
  <line x1="122.42" y1="46" x2="122.42" y2="44.11" stroke="rgb(0,0,0)" stroke-width="1.44" />
  <line x1="122.42" y1="40.34" x2="122.42" y2="36.56" stroke="rgb(0,0,0)" stroke-width="1.44" />
  <line x1="118.82" y1="34" x2="139.61" y2="22" stroke="rgb(0,0,0)" stroke-width="1.44" />
  <line x1="122.84" y1="35.84" x2="126.11" y2="33.95" stroke="rgb(0,0,0)" stroke-width="1.44" />
  <line x1="129.38" y1="32.06" x2="131.02" y2="31.12" stroke="rgb(0,0,0)" stroke-width="1.44" />
  <line x1="131.02" y1="31.12" x2="132.65" y2="30.17" stroke="rgb(0,0,0)" stroke-width="1.44" />
  <line x1="135.92" y1="28.29" x2="139.19" y2="26.4" stroke="rgb(0,0,0)" stroke-width="1.44" />
  <line x1="139.61" y1="22" x2="160.39" y2="34" stroke="rgb(0,0,0)" stroke-width="1.44" />
  <line x1="140.03" y1="26.4" x2="143.3" y2="28.29" stroke="rgb(0,0,0)" stroke-width="1.44" />
  <line x1="146.57" y1="30.17" x2="148.2" y2="31.12" stroke="rgb(0,0,0)" stroke-width="1.44" />
  <line x1="148.2" y1="31.12" x2="149.84" y2="32.06" stroke="rgb(0,0,0)" stroke-width="1.44" />
  <line x1="153.11" y1="33.95" x2="156.38" y2="35.84" stroke="rgb(0,0,0)" stroke-width="1.44" />
  <line x1="160.39" y1="34" x2="160.39" y2="58" stroke="rgb(0,0,0)" stroke-width="1.44" />
  <line x1="156.79" y1="36.56" x2="156.79" y2="40.34" stroke="rgb(0,0,0)" stroke-width="1.44" />
  <line x1="156.79" y1="44.11" x2="156.79" y2="46" stroke="rgb(0,0,0)" stroke-width="1.44" />
  <line x1="156.79" y1="46" x2="156.79" y2="47.89" stroke="rgb(0,0,0)" stroke-width="1.44" />
  <line x1="156.79" y1="51.66" x2="156.79" y2="55.44" stroke="rgb(0,0,0)" stroke-width="1.44" />
  <line x1="139.61" y1="70" x2="160.39" y2="58" stroke="rgb(0,0,0)" stroke-width="1.44" />
  <line x1="140.03" y1="65.6" x2="143.3" y2="63.71" stroke="rgb(0,0,0)" stroke-width="1.44" />
  <line x1="146.57" y1="61.83" x2="148.2" y2="60.88" stroke="rgb(0,0,0)" stroke-width="1.44" />
  <line x1="148.2" y1="60.88" x2="149.84" y2="59.94" stroke="rgb(0,0,0)" stroke-width="1.44" />
  <line x1="153.11" y1="58.05" x2="156.38" y2="56.16" stroke="rgb(0,0,0)" stroke-width="1.44" />
  <line x1="174.73" y1="97.72" x2="167.56" y2="101.86" stroke="rgb(0,0,0)" stroke-width="1.44" />
  <line x1="167.56" y1="101.86" x2="160.39" y2="106" stroke="rgb(192,0,255)" stroke-width="1.44" />
  <line x1="160.39" y1="106" x2="160.39" y2="118" stroke="rgb(192,0,255)" stroke-width="1.44" />
  <line x1="160.39" y1="118" x2="160.39" y2="130" stroke="rgb(0,0,0)" stroke-width="1.44" />
  <line x1="160.39" y1="106" x2="150" y2="100" stroke="rgb(192,0,255)" stroke-width="1.44" />
  <line x1="150" y1="100" x2="139.61" y2="94" stroke="rgb(0,0,0)" stroke-width="1.44" />
  <line x1="139.61" y1="94" x2="139.61" y2="70" stroke="rgb(0,0,0)" stroke-width="1.44" />
  <line id="mol51:Bond:2" class="event" x1="160.39" y1="130" x2="181.18" y2="142" stroke-width="8" opacity="0" />
  <line id="mol51:Bond:3" class="event" x1="181.18" y1="142" x2="181.18" y2="166" stroke-width="8" opacity="0" />
  <line id="mol51:Bond:4" class="event" x1="181.18" y1="166" x2="160.39" y2="178" stroke-width="8" opacity="0" />
  <line id="mol51:Bond:5" class="event" x1="160.39" y1="178" x2="139.61" y2="166" stroke-width="8" opacity="0" />
  <line id="mol51:Bond:6" class="event" x1="139.61" y1="166" x2="139.61" y2="142" stroke-width="8" opacity="0" />
  <line id="mol51:Bond:7" class="event" x1="160.39" y1="130" x2="139.61" y2="142" stroke-width="8" opacity="0" />
  <line id="mol51:Bond:9" class="event" x1="139.61" y1="94" x2="118.82" y2="106" stroke-width="8" opacity="0" />
  <line id="mol51:Bond:11" class="event" x1="139.61" y1="70" x2="118.82" y2="58" stroke-width="8" opacity="0" />
  <line id="mol51:Bond:12" class="event" x1="118.82" y1="58" x2="118.82" y2="34" stroke-width="8" opacity="0" />
  <line id="mol51:Bond:13" class="event" x1="118.82" y1="34" x2="139.61" y2="22" stroke-width="8" opacity="0" />
  <line id="mol51:Bond:14" class="event" x1="139.61" y1="22" x2="160.39" y2="34" stroke-width="8" opacity="0" />
  <line id="mol51:Bond:15" class="event" x1="160.39" y1="34" x2="160.39" y2="58" stroke-width="8" opacity="0" />
  <line id="mol51:Bond:16" class="event" x1="139.61" y1="70" x2="160.39" y2="58" stroke-width="8" opacity="0" />
  <line id="mol51:Bond:0" class="event" x1="181.18" y1="94" x2="160.39" y2="106" stroke-width="8" opacity="0" />
  <line id="mol51:Bond:1" class="event" x1="160.39" y1="106" x2="160.39" y2="130" stroke-width="8" opacity="0" />
  <line id="mol51:Bond:8" class="event" x1="160.39" y1="106" x2="139.61" y2="94" stroke-width="8" opacity="0" />
  <line id="mol51:Bond:10" class="event" x1="139.61" y1="94" x2="139.61" y2="70" stroke-width="8" opacity="0" />
  <circle id="mol51:Atom:0" class="event" cx="181.18" cy="94" r="8" opacity="0" />
  <circle id="mol51:Atom:1" class="event" cx="160.39" cy="106" r="8" opacity="0" />
  <circle id="mol51:Atom:2" class="event" cx="160.39" cy="130" r="8" opacity="0" />
  <circle id="mol51:Atom:3" class="event" cx="181.18" cy="142" r="8" opacity="0" />
  <circle id="mol51:Atom:4" class="event" cx="181.18" cy="166" r="8" opacity="0" />
  <circle id="mol51:Atom:5" class="event" cx="160.39" cy="178" r="8" opacity="0" />
  <circle id="mol51:Atom:6" class="event" cx="139.61" cy="166" r="8" opacity="0" />
  <circle id="mol51:Atom:7" class="event" cx="139.61" cy="142" r="8" opacity="0" />
  <circle id="mol51:Atom:8" class="event" cx="139.61" cy="94" r="8" opacity="0" />
  <circle id="mol51:Atom:9" class="event" cx="118.82" cy="106" r="8" opacity="0" />
  <circle id="mol51:Atom:10" class="event" cx="139.61" cy="70" r="8" opacity="0" />
  <circle id="mol51:Atom:11" class="event" cx="118.82" cy="58" r="8" opacity="0" />
  <circle id="mol51:Atom:12" class="event" cx="118.82" cy="34" r="8" opacity="0" />
  <circle id="mol51:Atom:13" class="event" cx="139.61" cy="22" r="8" opacity="0" />
  <circle id="mol51:Atom:14" class="event" cx="160.39" cy="34" r="8" opacity="0" />
  <circle id="mol51:Atom:15" class="event" cx="160.39" cy="58" r="8" opacity="0" />
</svg>